<?xml version="1.0" encoding="UTF-8"?>
<svg id="Layer_2" data-name="Layer 2" xmlns="http://www.w3.org/2000/svg" viewBox="0 0 258.64 305.98">
  <defs>
    <style>
      .cls-1 {
        fill: #f58c3a;
      }

      .cls-1, .cls-2, .cls-3, .cls-4, .cls-5, .cls-6, .cls-7, .cls-8, .cls-9, .cls-10, .cls-11, .cls-12, .cls-13, .cls-14, .cls-15, .cls-16, .cls-17, .cls-18, .cls-19, .cls-20, .cls-21, .cls-22, .cls-23, .cls-24, .cls-25, .cls-26, .cls-27, .cls-28, .cls-29, .cls-30, .cls-31, .cls-32, .cls-33, .cls-34, .cls-35, .cls-36, .cls-37, .cls-38, .cls-39, .cls-40, .cls-41, .cls-42, .cls-43, .cls-44, .cls-45, .cls-46, .cls-47, .cls-48, .cls-49, .cls-50, .cls-51, .cls-52, .cls-53, .cls-54, .cls-55, .cls-56, .cls-57, .cls-58, .cls-59, .cls-60, .cls-61, .cls-62, .cls-63, .cls-64, .cls-65, .cls-66, .cls-67, .cls-68, .cls-69, .cls-70, .cls-71, .cls-72, .cls-73, .cls-74, .cls-75, .cls-76, .cls-77, .cls-78, .cls-79, .cls-80, .cls-81, .cls-82, .cls-83, .cls-84, .cls-85, .cls-86, .cls-87, .cls-88, .cls-89, .cls-90, .cls-91, .cls-92, .cls-93, .cls-94, .cls-95, .cls-96, .cls-97, .cls-98, .cls-99, .cls-100, .cls-101, .cls-102, .cls-103, .cls-104, .cls-105, .cls-106, .cls-107, .cls-108, .cls-109, .cls-110, .cls-111, .cls-112, .cls-113, .cls-114, .cls-115, .cls-116, .cls-117, .cls-118, .cls-119, .cls-120, .cls-121, .cls-122, .cls-123, .cls-124, .cls-125, .cls-126, .cls-127, .cls-128, .cls-129, .cls-130, .cls-131, .cls-132, .cls-133, .cls-134, .cls-135, .cls-136, .cls-137, .cls-138, .cls-139, .cls-140, .cls-141, .cls-142, .cls-143, .cls-144, .cls-145, .cls-146, .cls-147, .cls-148, .cls-149, .cls-150, .cls-151, .cls-152, .cls-153, .cls-154, .cls-155, .cls-156, .cls-157, .cls-158, .cls-159, .cls-160, .cls-161, .cls-162, .cls-163, .cls-164, .cls-165, .cls-166, .cls-167, .cls-168, .cls-169, .cls-170, .cls-171, .cls-172, .cls-173, .cls-174, .cls-175, .cls-176, .cls-177, .cls-178, .cls-179, .cls-180, .cls-181, .cls-182, .cls-183, .cls-184, .cls-185, .cls-186, .cls-187, .cls-188, .cls-189, .cls-190, .cls-191, .cls-192, .cls-193, .cls-194, .cls-195, .cls-196, .cls-197, .cls-198, .cls-199, .cls-200, .cls-201, .cls-202, .cls-203, .cls-204, .cls-205, .cls-206, .cls-207, .cls-208, .cls-209, .cls-210, .cls-211, .cls-212, .cls-213, .cls-214, .cls-215, .cls-216, .cls-217, .cls-218, .cls-219, .cls-220, .cls-221, .cls-222, .cls-223, .cls-224, .cls-225, .cls-226, .cls-227, .cls-228, .cls-229, .cls-230, .cls-231, .cls-232, .cls-233, .cls-234, .cls-235, .cls-236, .cls-237, .cls-238, .cls-239, .cls-240, .cls-241, .cls-242, .cls-243, .cls-244, .cls-245, .cls-246, .cls-247, .cls-248, .cls-249, .cls-250, .cls-251, .cls-252, .cls-253, .cls-254, .cls-255, .cls-256, .cls-257, .cls-258, .cls-259, .cls-260, .cls-261, .cls-262, .cls-263, .cls-264, .cls-265, .cls-266, .cls-267, .cls-268, .cls-269, .cls-270, .cls-271, .cls-272, .cls-273, .cls-274, .cls-275, .cls-276, .cls-277, .cls-278, .cls-279, .cls-280, .cls-281, .cls-282, .cls-283, .cls-284, .cls-285, .cls-286, .cls-287, .cls-288, .cls-289, .cls-290, .cls-291, .cls-292, .cls-293, .cls-294, .cls-295, .cls-296, .cls-297, .cls-298, .cls-299, .cls-300, .cls-301, .cls-302, .cls-303, .cls-304, .cls-305, .cls-306, .cls-307, .cls-308, .cls-309, .cls-310, .cls-311 {
        stroke-width: 0px;
      }

      .cls-2 {
        fill: #f4ae44;
      }

      .cls-3 {
        fill: #f89d3d;
      }

      .cls-4 {
        fill: #f89f3e;
      }

      .cls-5 {
        fill: #f89e3e;
      }

      .cls-6 {
        fill: #f89e3d;
      }

      .cls-7 {
        fill: #f8a13e;
      }

      .cls-8 {
        fill: #f8a93f;
      }

      .cls-9 {
        fill: #f8a03f;
      }

      .cls-10 {
        fill: #f89b3d;
      }

      .cls-11 {
        fill: #f58a39;
      }

      .cls-12 {
        fill: #f58b3a;
      }

      .cls-13 {
        fill: #f58537;
      }

      .cls-14 {
        fill: #f58838;
      }

      .cls-15 {
        fill: #f58638;
      }

      .cls-16 {
        fill: #f58939;
      }

      .cls-17 {
        fill: #f3ae44;
      }

      .cls-18 {
        fill: #f7ae42;
      }

      .cls-19 {
        fill: #f9a83f;
      }

      .cls-20 {
        fill: #f9a83e;
      }

      .cls-21 {
        fill: #faac41;
      }

      .cls-22 {
        fill: #faaa3f;
      }

      .cls-23 {
        fill: #faab3f;
      }

      .cls-24 {
        fill: #f9ae42;
      }

      .cls-25 {
        fill: #f9ac42;
      }

      .cls-26 {
        fill: #f9a33e;
      }

      .cls-27 {
        fill: #f9a33f;
      }

      .cls-28 {
        fill: #f9a63e;
      }

      .cls-29 {
        fill: #f9a53f;
      }

      .cls-30 {
        fill: #f9a53e;
      }

      .cls-31 {
        fill: #4ba8c3;
      }

      .cls-32 {
        fill: #4ba8c4;
      }

      .cls-33 {
        fill: #48a8c5;
      }

      .cls-34 {
        fill: #48a8c7;
      }

      .cls-35 {
        fill: #5ca9b6;
      }

      .cls-36 {
        fill: #5ca9b5;
      }

      .cls-37 {
        fill: #5fa9b4;
      }

      .cls-38 {
        fill: #5ea9b5;
      }

      .cls-39 {
        fill: #74aaa6;
      }

      .cls-40 {
        fill: #74aaa5;
      }

      .cls-41 {
        fill: #75aaa4;
      }

      .cls-42 {
        fill: #4aa8c4;
      }

      .cls-43 {
        fill: #79aaa0;
      }

      .cls-44 {
        fill: #78a9a0;
      }

      .cls-45 {
        fill: #78aaa2;
      }

      .cls-46 {
        fill: #78aaa3;
      }

      .cls-47 {
        fill: #51a8bf;
      }

      .cls-48 {
        fill: #77aaa3;
      }

      .cls-49 {
        fill: #4fa8c1;
      }

      .cls-50 {
        fill: #4fa8c0;
      }

      .cls-51 {
        fill: #7aaaa0;
      }

      .cls-52 {
        fill: #4da8c1;
      }

      .cls-53 {
        fill: #4da8c2;
      }

      .cls-54 {
        fill: #2ba6db;
      }

      .cls-55 {
        fill: #28a6dd;
      }

      .cls-56 {
        fill: #28a6de;
      }

      .cls-57 {
        fill: #49a7c4;
      }

      .cls-58 {
        fill: #55a9bc;
      }

      .cls-59 {
        fill: #2aa6db;
      }

      .cls-60 {
        fill: #27a7df;
      }

      .cls-61 {
        fill: #5aa9b8;
      }

      .cls-62 {
        fill: #5aa9b9;
      }

      .cls-63 {
        fill: #61a9b2;
      }

      .cls-64 {
        fill: #62a9b3;
      }

      .cls-65 {
        fill: #63a9b2;
      }

      .cls-66 {
        fill: #6fa9a9;
      }

      .cls-67 {
        fill: #86a996;
      }

      .cls-68 {
        fill: #88aa95;
      }

      .cls-69 {
        fill: #9aab88;
      }

      .cls-70 {
        fill: #6da9ab;
      }

      .cls-71 {
        fill: #45a8c7;
      }

      .cls-72 {
        fill: #87a996;
      }

      .cls-73 {
        fill: #95aa8b;
      }

      .cls-74 {
        fill: #96aa8a;
      }

      .cls-75 {
        fill: #53a8bc;
      }

      .cls-76 {
        fill: #53a8be;
      }

      .cls-77 {
        fill: #89aa94;
      }

      .cls-78 {
        fill: #71a9a8;
      }

      .cls-79 {
        fill: #71a9a7;
      }

      .cls-80 {
        fill: #a2ac83;
      }

      .cls-81 {
        fill: #9bab88;
      }

      .cls-82 {
        fill: #6ea9aa;
      }

      .cls-83 {
        fill: #6ea9a9;
      }

      .cls-84 {
        fill: #a3ab81;
      }

      .cls-85 {
        fill: #a3ab83;
      }

      .cls-86 {
        fill: #94aa8b;
      }

      .cls-87 {
        fill: #2ea6d8;
      }

      .cls-88 {
        fill: #39a8d0;
      }

      .cls-89 {
        fill: #39a8d1;
      }

      .cls-90 {
        fill: #33a7d4;
      }

      .cls-91 {
        fill: #33a6d3;
      }

      .cls-92 {
        fill: #33a6d4;
      }

      .cls-93 {
        fill: #58a9ba;
      }

      .cls-94 {
        fill: #58a9b9;
      }

      .cls-95 {
        fill: #56a9bb;
      }

      .cls-96 {
        fill: #56a9bc;
      }

      .cls-97 {
        fill: #83a998;
      }

      .cls-98 {
        fill: #2ca6d9;
      }

      .cls-99 {
        fill: #3da7cd;
      }

      .cls-100 {
        fill: #3ca8ce;
      }

      .cls-101 {
        fill: #36a8d2;
      }

      .cls-102 {
        fill: #35a8d2;
      }

      .cls-103 {
        fill: #42a8ca;
      }

      .cls-104 {
        fill: #43a8c9;
      }

      .cls-105 {
        fill: #40a8cc;
      }

      .cls-106 {
        fill: #40a8ca;
      }

      .cls-107 {
        fill: #a8ab7e;
      }

      .cls-108 {
        fill: #c4ac69;
      }

      .cls-109 {
        fill: #d1ad5f;
      }

      .cls-110 {
        fill: #d2ad5e;
      }

      .cls-111 {
        fill: #cbac64;
      }

      .cls-112 {
        fill: #ddad56;
      }

      .cls-113 {
        fill: #deae55;
      }

      .cls-114 {
        fill: #c9ac66;
      }

      .cls-115 {
        fill: #d0ad60;
      }

      .cls-116 {
        fill: #caac64;
      }

      .cls-117 {
        fill: #caac65;
      }

      .cls-118 {
        fill: #c5ac68;
      }

      .cls-119 {
        fill: #ccad62;
      }

      .cls-120 {
        fill: #c3ad6a;
      }

      .cls-121 {
        fill: #c3ac6a;
      }

      .cls-122 {
        fill: #d9ae59;
      }

      .cls-123 {
        fill: #b0ac79;
      }

      .cls-124 {
        fill: #b0ac78;
      }

      .cls-125 {
        fill: #e0ae54;
      }

      .cls-126 {
        fill: #d7ae5a;
      }

      .cls-127 {
        fill: #d7ad5a;
      }

      .cls-128 {
        fill: #adab7a;
      }

      .cls-129 {
        fill: #c6ac67;
      }

      .cls-130 {
        fill: #dbae57;
      }

      .cls-131 {
        fill: #e2ad53;
      }

      .cls-132 {
        fill: #dbad57;
      }

      .cls-133 {
        fill: #e1ad53;
      }

      .cls-134 {
        fill: #c8ac67;
      }

      .cls-135 {
        fill: #dfad54;
      }

      .cls-136 {
        fill: #dfae54;
      }

      .cls-137 {
        fill: #d6ad5c;
      }

      .cls-138 {
        fill: #d4ad5d;
      }

      .cls-139 {
        fill: #d3ad5d;
      }

      .cls-140 {
        fill: #daad58;
      }

      .cls-141 {
        fill: #bdad70;
      }

      .cls-142 {
        fill: #bdac6e;
      }

      .cls-143 {
        fill: #bead6e;
      }

      .cls-144 {
        fill: #a4ab80;
      }

      .cls-145 {
        fill: #abac7d;
      }

      .cls-146 {
        fill: #bfac6e;
      }

      .cls-147 {
        fill: #aaab7d;
      }

      .cls-148 {
        fill: #a5ab80;
      }

      .cls-149 {
        fill: #b2ac76;
      }

      .cls-150 {
        fill: #aeac7a;
      }

      .cls-151 {
        fill: #b1ac77;
      }

      .cls-152 {
        fill: #a7ab7f;
      }

      .cls-153 {
        fill: #bbac70;
      }

      .cls-154 {
        fill: #cdac62;
      }

      .cls-155 {
        fill: #acab7b;
      }

      .cls-156 {
        fill: #a6ab80;
      }

      .cls-157 {
        fill: #a9ab7d;
      }

      .cls-158 {
        fill: #cfad61;
      }

      .cls-159 {
        fill: #cead61;
      }

      .cls-160 {
        fill: #b7ac73;
      }

      .cls-161 {
        fill: #92aa8c;
      }

      .cls-162 {
        fill: #b4ac74;
      }

      .cls-163 {
        fill: #b4ac75;
      }

      .cls-164 {
        fill: #85aa97;
      }

      .cls-165 {
        fill: #c1ad6d;
      }

      .cls-166 {
        fill: #8aaa94;
      }

      .cls-167 {
        fill: #b8ac72;
      }

      .cls-168 {
        fill: #9dab85;
      }

      .cls-169 {
        fill: #8baa93;
      }

      .cls-170 {
        fill: #9cab86;
      }

      .cls-171 {
        fill: #b9ac71;
      }

      .cls-172 {
        fill: #c2ad6b;
      }

      .cls-173 {
        fill: #91aa8d;
      }

      .cls-174 {
        fill: #8faa8e;
      }

      .cls-175 {
        fill: #90aa8d;
      }

      .cls-176 {
        fill: #b5ab73;
      }

      .cls-177 {
        fill: #72a9a6;
      }

      .cls-178 {
        fill: #baac70;
      }

      .cls-179 {
        fill: #32a6d6;
      }

      .cls-180 {
        fill: #32a6d5;
      }

      .cls-181 {
        fill: #2fa6d6;
      }

      .cls-182 {
        fill: #8daa91;
      }

      .cls-183 {
        fill: #8daa90;
      }

      .cls-184 {
        fill: #8da990;
      }

      .cls-185 {
        fill: #8ea88f;
      }

      .cls-186 {
        fill: #98aa87;
      }

      .cls-187 {
        fill: #7daa9d;
      }

      .cls-188 {
        fill: #97aa89;
      }

      .cls-189 {
        fill: #6ba9ac;
      }

      .cls-190 {
        fill: #7ca99e;
      }

      .cls-191 {
        fill: #7ca99d;
      }

      .cls-192 {
        fill: #9fac85;
      }

      .cls-193 {
        fill: #a0ab83;
      }

      .cls-194 {
        fill: #9eac85;
      }

      .cls-195 {
        fill: #84a997;
      }

      .cls-196 {
        fill: #93a98b;
      }

      .cls-197 {
        fill: #7faa9b;
      }

      .cls-198 {
        fill: #6aa9ad;
      }

      .cls-199 {
        fill: #80aa9a;
      }

      .cls-200 {
        fill: #80a999;
      }

      .cls-201 {
        fill: #7ea99d;
      }

      .cls-202 {
        fill: #64a8b0;
      }

      .cls-203 {
        fill: #81aa99;
      }

      .cls-204 {
        fill: #67a9ae;
      }

      .cls-205 {
        fill: #67a8ad;
      }

      .cls-206 {
        fill: #64a9b0;
      }

      .cls-207 {
        fill: #ef4d2a;
      }

      .cls-208 {
        fill: #ef502c;
      }

      .cls-209 {
        fill: #ef512c;
      }

      .cls-210 {
        fill: #ef4e2a;
      }

      .cls-211 {
        fill: #ef532b;
      }

      .cls-212 {
        fill: #ef4f2c;
      }

      .cls-213 {
        fill: #ef4928;
      }

      .cls-214 {
        fill: #ef4929;
      }

      .cls-215 {
        fill: #f37937;
      }

      .cls-216 {
        fill: #f26c36;
      }

      .cls-217 {
        fill: #f37a37;
      }

      .cls-218 {
        fill: #f37b36;
      }

      .cls-219 {
        fill: #f37736;
      }

      .cls-220 {
        fill: #f2ae45;
      }

      .cls-221 {
        fill: #f37536;
      }

      .cls-222 {
        fill: #f37636;
      }

      .cls-223 {
        fill: #f37837;
      }

      .cls-224 {
        fill: #f37d37;
      }

      .cls-225 {
        fill: #f37c36;
      }

      .cls-226 {
        fill: #f48137;
      }

      .cls-227 {
        fill: #f48437;
      }

      .cls-228 {
        fill: #f47f36;
      }

      .cls-229 {
        fill: #f47e37;
      }

      .cls-230 {
        fill: #eeae4a;
      }

      .cls-231 {
        fill: #f0592d;
      }

      .cls-232 {
        fill: #f0592e;
      }

      .cls-233 {
        fill: #f05c2f;
      }

      .cls-234 {
        fill: #f05b2f;
      }

      .cls-235 {
        fill: #f6923c;
      }

      .cls-236 {
        fill: #f6913c;
      }

      .cls-237 {
        fill: #e7ad4f;
      }

      .cls-238 {
        fill: #e9ae4c;
      }

      .cls-239 {
        fill: #f0562d;
      }

      .cls-240 {
        fill: #f05a2f;
      }

      .cls-241 {
        fill: #f0552d;
      }

      .cls-242 {
        fill: #f0582d;
      }

      .cls-243 {
        fill: #f0572d;
      }

      .cls-244 {
        fill: #e3ae52;
      }

      .cls-245 {
        fill: #e5ad50;
      }

      .cls-246 {
        fill: #f16933;
      }

      .cls-247 {
        fill: #f0ae48;
      }

      .cls-248 {
        fill: #f16632;
      }

      .cls-249 {
        fill: #f16b34;
      }

      .cls-250 {
        fill: #f16631;
      }

      .cls-251 {
        fill: #f16131;
      }

      .cls-252 {
        fill: #f16231;
      }

      .cls-253 {
        fill: #f16331;
      }

      .cls-254 {
        fill: #f16a34;
      }

      .cls-255 {
        fill: #f16531;
      }

      .cls-256 {
        fill: #f16833;
      }

      .cls-257 {
        fill: #ed4328;
      }

      .cls-258 {
        fill: #e3ad51;
      }

      .cls-259 {
        fill: #e6ae4f;
      }

      .cls-260 {
        fill: #edae4a;
      }

      .cls-261 {
        fill: #ef522b;
      }

      .cls-262 {
        fill: #ef4b2a;
      }

      .cls-263 {
        fill: #ef4a2a;
      }

      .cls-264 {
        fill: #ebae4a;
      }

      .cls-265 {
        fill: #f05e2f;
      }

      .cls-266 {
        fill: #f06031;
      }

      .cls-267 {
        fill: #f05d2f;
      }

      .cls-268 {
        fill: #f05f30;
      }

      .cls-269 {
        fill: #ee4427;
      }

      .cls-270 {
        fill: #efae49;
      }

      .cls-271 {
        fill: #ee3f27;
      }

      .cls-272 {
        fill: #ee4628;
      }

      .cls-273 {
        fill: #ee4828;
      }

      .cls-274 {
        fill: #ee4527;
      }

      .cls-275 {
        fill: #ee3e28;
      }

      .cls-276 {
        fill: #ee3f28;
      }

      .cls-277 {
        fill: #ee4028;
      }

      .cls-278 {
        fill: #ee4728;
      }

      .cls-279 {
        fill: #ee4328;
      }

      .cls-280 {
        fill: #f26b35;
      }

      .cls-281 {
        fill: #ecaf4a;
      }

      .cls-282 {
        fill: #f27436;
      }

      .cls-283 {
        fill: #f27136;
      }

      .cls-284 {
        fill: #f1ae45;
      }

      .cls-285 {
        fill: #f1ae46;
      }

      .cls-286 {
        fill: #f27036;
      }

      .cls-287 {
        fill: #f27336;
      }

      .cls-288 {
        fill: #f26d35;
      }

      .cls-289 {
        fill: #f26e35;
      }

      .cls-290 {
        fill: #f27236;
      }

      .cls-291 {
        fill: #f26f35;
      }

      .cls-292 {
        fill: #f6ae42;
      }

      .cls-293 {
        fill: #f48036;
      }

      .cls-294 {
        fill: #f48237;
      }

      .cls-295 {
        fill: #f48337;
      }

      .cls-296 {
        fill: #e8ae4d;
      }

      .cls-297 {
        fill: #f5ae42;
      }

      .cls-298 {
        fill: #f7993e;
      }

      .cls-299 {
        fill: #f7963d;
      }

      .cls-300 {
        fill: #f79a3e;
      }

      .cls-301 {
        fill: #f7953e;
      }

      .cls-302 {
        fill: #f7983d;
      }

      .cls-303 {
        fill: #f7973e;
      }

      .cls-304 {
        fill: #eaae4a;
      }

      .cls-305 {
        fill: #f6943e;
      }

      .cls-306 {
        fill: #f6943c;
      }

      .cls-307 {
        fill: #f68d3a;
      }

      .cls-308 {
        fill: #f68e3b;
      }

      .cls-309 {
        fill: #f68f3b;
      }

      .cls-310 {
        fill: #66a9b0;
      }

      .cls-311 {
        fill: #69a8ad;
      }
    </style>
  </defs>
  <g id="Layer_1-2" data-name="Layer 1">
    <g>
      <path class="cls-24" d="M46.79,175.85c0,12.85-10.41,23.26-23.26,23.26S.27,188.69.27,175.85s10.41-23.26,23.26-23.26,23.26,10.41,23.26,23.26"/>
      <path class="cls-18" d="M46.56,173.82c0,12.85-10.41,23.26-23.26,23.26S.05,186.66.05,173.82s10.41-23.26,23.26-23.26,23.26,10.41,23.26,23.26"/>
      <path class="cls-292" d="M46.51,172.53c0,12.85-10.41,23.26-23.26,23.26S0,185.38,0,172.53s10.41-23.26,23.26-23.26,23.26,10.41,23.26,23.26"/>
      <path class="cls-297" d="M46.55,171.26c0,12.85-10.41,23.26-23.26,23.26S.03,184.11.03,171.26s10.41-23.26,23.26-23.26,23.26,10.41,23.26,23.26"/>
      <path class="cls-2" d="M46.65,170.02c0,12.85-10.41,23.26-23.26,23.26S.14,182.86.14,170.02s10.41-23.26,23.26-23.26,23.26,10.41,23.26,23.26"/>
      <path class="cls-17" d="M46.83,168.8c0,12.85-10.41,23.26-23.26,23.26S.32,181.64.32,168.8s10.41-23.26,23.26-23.26,23.26,10.41,23.26,23.26"/>
      <path class="cls-275" d="M258.64,23.26c0,12.85-10.41,23.26-23.26,23.26s-23.26-10.41-23.26-23.26S222.54,0,235.38,0s23.26,10.41,23.26,23.26"/>
      <path class="cls-276" d="M257.9,25.25c0,12.85-10.41,23.26-23.26,23.26s-23.26-10.41-23.26-23.26S221.8,2,234.64,2s23.26,10.41,23.26,23.26"/>
      <path class="cls-271" d="M257.14,27.27c0,12.85-10.41,23.26-23.26,23.26s-23.26-10.41-23.26-23.26,10.41-23.26,23.26-23.26,23.26,10.41,23.26,23.26"/>
      <path class="cls-277" d="M256.35,29.3c0,12.85-10.41,23.26-23.26,23.26s-23.26-10.41-23.26-23.26,10.41-23.26,23.26-23.26,23.26,10.41,23.26,23.26"/>
      <path class="cls-257" d="M255.53,31.35c0,12.85-10.41,23.26-23.26,23.26s-23.26-10.41-23.26-23.26,10.41-23.26,23.26-23.26,23.26,10.41,23.26,23.26"/>
      <path class="cls-279" d="M254.69,33.41c0,12.85-10.41,23.26-23.26,23.26s-23.26-10.41-23.26-23.26,10.41-23.26,23.26-23.26,23.26,10.41,23.26,23.26"/>
      <path class="cls-269" d="M253.82,35.5c0,12.85-10.41,23.26-23.26,23.26s-23.26-10.41-23.26-23.26,10.41-23.26,23.26-23.26,23.26,10.41,23.26,23.26"/>
      <path class="cls-274" d="M252.93,37.59c0,12.85-10.41,23.26-23.26,23.26s-23.26-10.41-23.26-23.26,10.41-23.26,23.26-23.26,23.26,10.41,23.26,23.26"/>
      <path class="cls-272" d="M252.02,39.7c0,12.85-10.41,23.26-23.26,23.26s-23.26-10.41-23.26-23.26,10.41-23.26,23.26-23.26,23.26,10.41,23.26,23.26"/>
      <path class="cls-278" d="M251.08,41.83c0,12.85-10.41,23.26-23.26,23.26s-23.26-10.41-23.26-23.26,10.41-23.26,23.26-23.26,23.26,10.41,23.26,23.26"/>
      <path class="cls-273" d="M250.11,43.96c0,12.85-10.41,23.26-23.26,23.26s-23.26-10.41-23.26-23.26,10.41-23.26,23.26-23.26,23.26,10.41,23.26,23.26"/>
      <path class="cls-213" d="M249.12,46.11c0,12.85-10.41,23.26-23.26,23.26s-23.26-10.41-23.26-23.26,10.41-23.26,23.26-23.26,23.26,10.41,23.26,23.26"/>
      <path class="cls-214" d="M248.11,48.27c0,12.85-10.41,23.26-23.26,23.26s-23.26-10.41-23.26-23.26,10.41-23.26,23.26-23.26,23.26,10.41,23.26,23.26"/>
      <path class="cls-263" d="M247.07,50.44c0,12.85-10.41,23.26-23.26,23.26s-23.26-10.41-23.26-23.26,10.41-23.26,23.26-23.26,23.26,10.41,23.26,23.26"/>
      <path class="cls-262" d="M246.01,52.63c0,12.85-10.41,23.26-23.26,23.26s-23.26-10.41-23.26-23.26,10.41-23.26,23.26-23.26,23.26,10.41,23.26,23.26"/>
      <path class="cls-207" d="M244.92,54.82c0,12.85-10.41,23.26-23.26,23.26s-23.26-10.41-23.26-23.26,10.41-23.26,23.26-23.26,23.26,10.41,23.26,23.26"/>
      <path class="cls-210" d="M243.81,57.02c0,12.85-10.41,23.26-23.26,23.26s-23.26-10.41-23.26-23.26,10.41-23.26,23.26-23.26,23.26,10.41,23.26,23.26"/>
      <path class="cls-212" d="M242.68,59.23c0,12.85-10.41,23.26-23.26,23.26s-23.26-10.41-23.26-23.26,10.41-23.26,23.26-23.26,23.26,10.41,23.26,23.26"/>
      <path class="cls-208" d="M241.52,61.45c0,12.85-10.41,23.26-23.26,23.26s-23.26-10.41-23.26-23.26,10.41-23.26,23.26-23.26,23.26,10.41,23.26,23.26"/>
      <path class="cls-209" d="M240.34,63.67c0,12.85-10.41,23.26-23.26,23.26s-23.26-10.41-23.26-23.26,10.41-23.26,23.26-23.26,23.26,10.41,23.26,23.26"/>
      <path class="cls-261" d="M239.13,65.9c0,12.85-10.41,23.26-23.26,23.26s-23.26-10.41-23.26-23.26,10.41-23.26,23.26-23.26,23.26,10.41,23.26,23.26"/>
      <path class="cls-211" d="M237.9,68.14c0,12.85-10.41,23.26-23.26,23.26s-23.26-10.41-23.26-23.26,10.41-23.26,23.26-23.26,23.26,10.41,23.26,23.26"/>
      <path class="cls-241" d="M236.65,70.38c0,12.85-10.41,23.26-23.26,23.26s-23.26-10.41-23.26-23.26,10.41-23.26,23.26-23.26,23.26,10.41,23.26,23.26"/>
      <path class="cls-239" d="M235.37,72.62c0,12.85-10.41,23.26-23.26,23.26s-23.26-10.41-23.26-23.26,10.41-23.26,23.26-23.26,23.26,10.41,23.26,23.26"/>
      <path class="cls-243" d="M234.07,74.87c0,12.85-10.41,23.26-23.26,23.26s-23.26-10.41-23.26-23.26,10.41-23.26,23.26-23.26,23.26,10.41,23.26,23.26"/>
      <path class="cls-242" d="M232.75,77.13c0,12.85-10.41,23.26-23.26,23.26s-23.26-10.41-23.26-23.26,10.41-23.26,23.26-23.26,23.26,10.41,23.26,23.26"/>
      <path class="cls-231" d="M231.41,79.38c0,12.85-10.41,23.26-23.26,23.26s-23.26-10.41-23.26-23.26,10.41-23.26,23.26-23.26,23.26,10.41,23.26,23.26"/>
      <path class="cls-232" d="M230.04,81.64c0,12.85-10.41,23.26-23.26,23.26s-23.26-10.41-23.26-23.26,10.41-23.26,23.26-23.26,23.26,10.41,23.26,23.26"/>
      <path class="cls-240" d="M228.65,83.9c0,12.85-10.41,23.26-23.26,23.26s-23.26-10.41-23.26-23.26,10.41-23.26,23.26-23.26,23.26,10.41,23.26,23.26"/>
      <path class="cls-240" d="M227.23,86.16c0,12.85-10.41,23.26-23.26,23.26s-23.26-10.41-23.26-23.26,10.41-23.26,23.26-23.26,23.26,10.41,23.26,23.26"/>
      <path class="cls-234" d="M225.8,88.42c0,12.85-10.41,23.26-23.26,23.26s-23.26-10.41-23.26-23.26,10.41-23.26,23.26-23.26,23.26,10.41,23.26,23.26"/>
      <path class="cls-233" d="M224.34,90.68c0,12.85-10.41,23.26-23.26,23.26s-23.26-10.41-23.26-23.26,10.41-23.26,23.26-23.26,23.26,10.41,23.26,23.26"/>
      <path class="cls-267" d="M222.86,92.93c0,12.85-10.41,23.26-23.26,23.26s-23.26-10.41-23.26-23.26,10.41-23.26,23.26-23.26,23.26,10.41,23.26,23.26"/>
      <path class="cls-265" d="M221.35,95.19c0,12.85-10.41,23.26-23.26,23.26s-23.26-10.41-23.26-23.26,10.41-23.26,23.26-23.26,23.26,10.41,23.26,23.26"/>
      <path class="cls-268" d="M219.83,97.44c0,12.85-10.41,23.26-23.26,23.26s-23.26-10.41-23.26-23.26,10.41-23.26,23.26-23.26,23.26,10.41,23.26,23.26"/>
      <path class="cls-266" d="M218.28,99.69c0,12.85-10.41,23.26-23.26,23.26s-23.26-10.41-23.26-23.26,10.41-23.26,23.26-23.26,23.26,10.41,23.26,23.26"/>
      <path class="cls-251" d="M216.71,101.93c0,12.85-10.41,23.26-23.26,23.26s-23.26-10.41-23.26-23.26,10.41-23.26,23.26-23.26,23.26,10.41,23.26,23.26"/>
      <path class="cls-252" d="M215.12,104.18c0,12.85-10.41,23.26-23.26,23.26s-23.26-10.41-23.26-23.26,10.41-23.26,23.26-23.26,23.26,10.41,23.26,23.26"/>
      <path class="cls-253" d="M213.51,106.41c0,12.85-10.41,23.26-23.26,23.26s-23.26-10.41-23.26-23.26,10.41-23.26,23.26-23.26,23.26,10.41,23.26,23.26"/>
      <path class="cls-255" d="M211.87,108.64c0,12.85-10.41,23.26-23.26,23.26s-23.26-10.41-23.26-23.26,10.41-23.26,23.26-23.26,23.26,10.41,23.26,23.26"/>
      <path class="cls-250" d="M210.21,110.86c0,12.85-10.41,23.26-23.26,23.26s-23.26-10.41-23.26-23.26,10.41-23.26,23.26-23.26,23.26,10.41,23.26,23.26"/>
      <path class="cls-248" d="M208.53,113.08c0,12.85-10.41,23.26-23.26,23.26s-23.26-10.41-23.26-23.26,10.41-23.26,23.26-23.26,23.26,10.41,23.26,23.26"/>
      <path class="cls-256" d="M206.83,115.28c0,12.85-10.41,23.26-23.26,23.26s-23.26-10.41-23.26-23.26,10.41-23.26,23.26-23.26,23.26,10.41,23.26,23.26"/>
      <path class="cls-246" d="M205.11,117.48c0,12.85-10.41,23.26-23.26,23.26s-23.26-10.41-23.26-23.26,10.41-23.26,23.26-23.26,23.26,10.41,23.26,23.26"/>
      <path class="cls-254" d="M203.37,119.67c0,12.85-10.41,23.26-23.26,23.26s-23.26-10.41-23.26-23.26,10.41-23.26,23.26-23.26,23.26,10.41,23.26,23.26"/>
      <path class="cls-249" d="M201.61,121.85c0,12.85-10.41,23.26-23.26,23.26s-23.26-10.41-23.26-23.26,10.41-23.26,23.26-23.26,23.26,10.41,23.26,23.26"/>
      <path class="cls-280" d="M199.82,124.02c0,12.85-10.41,23.26-23.26,23.26s-23.26-10.41-23.26-23.26,10.41-23.26,23.26-23.26,23.26,10.41,23.26,23.26"/>
      <path class="cls-216" d="M198.02,126.18c0,12.85-10.41,23.26-23.26,23.26s-23.26-10.41-23.26-23.26,10.41-23.26,23.26-23.26,23.26,10.41,23.26,23.26"/>
      <path class="cls-288" d="M196.19,128.33c0,12.85-10.41,23.26-23.26,23.26s-23.26-10.41-23.26-23.26,10.41-23.26,23.26-23.26,23.26,10.41,23.26,23.26"/>
      <path class="cls-289" d="M194.34,130.46c0,12.85-10.41,23.26-23.26,23.26s-23.26-10.41-23.26-23.26,10.41-23.26,23.26-23.26,23.26,10.41,23.26,23.26"/>
      <path class="cls-291" d="M192.48,132.58c0,12.85-10.41,23.26-23.26,23.26s-23.26-10.41-23.26-23.26,10.41-23.26,23.26-23.26,23.26,10.41,23.26,23.26"/>
      <path class="cls-286" d="M190.59,134.69c0,12.85-10.41,23.26-23.26,23.26s-23.26-10.41-23.26-23.26,10.41-23.26,23.26-23.26,23.26,10.41,23.26,23.26"/>
      <path class="cls-283" d="M188.68,136.78c0,12.85-10.41,23.26-23.26,23.26s-23.26-10.41-23.26-23.26,10.41-23.26,23.26-23.26,23.26,10.41,23.26,23.26"/>
      <path class="cls-290" d="M186.75,138.86c0,12.85-10.41,23.26-23.26,23.26s-23.26-10.41-23.26-23.26,10.41-23.26,23.26-23.26,23.26,10.41,23.26,23.26"/>
      <path class="cls-287" d="M184.8,140.92c0,12.85-10.41,23.26-23.26,23.26s-23.26-10.41-23.26-23.26,10.41-23.26,23.26-23.26,23.26,10.41,23.26,23.26"/>
      <path class="cls-282" d="M182.83,142.97c0,12.85-10.41,23.26-23.26,23.26s-23.26-10.41-23.26-23.26,10.41-23.26,23.26-23.26,23.26,10.41,23.26,23.26"/>
      <path class="cls-221" d="M180.85,144.99c0,12.85-10.41,23.26-23.26,23.26s-23.26-10.41-23.26-23.26,10.41-23.26,23.26-23.26,23.26,10.41,23.26,23.26"/>
      <path class="cls-222" d="M178.84,147c0,12.85-10.41,23.26-23.26,23.26s-23.26-10.41-23.26-23.26,10.41-23.26,23.26-23.26,23.26,10.41,23.26,23.26"/>
      <path class="cls-222" d="M176.81,149c0,12.85-10.41,23.26-23.26,23.26s-23.26-10.41-23.26-23.26,10.41-23.26,23.26-23.26,23.26,10.41,23.26,23.26"/>
      <path class="cls-219" d="M174.76,150.97c0,12.85-10.41,23.26-23.26,23.26s-23.26-10.41-23.26-23.26,10.41-23.26,23.26-23.26,23.26,10.41,23.26,23.26"/>
      <path class="cls-223" d="M172.69,152.92c0,12.85-10.41,23.26-23.26,23.26s-23.26-10.41-23.26-23.26,10.41-23.26,23.26-23.26,23.26,10.41,23.26,23.26"/>
      <path class="cls-215" d="M170.6,154.86c0,12.85-10.41,23.26-23.26,23.26s-23.26-10.41-23.26-23.26,10.41-23.26,23.26-23.26,23.26,10.41,23.26,23.26"/>
      <path class="cls-217" d="M168.5,156.77c0,12.85-10.41,23.26-23.26,23.26s-23.26-10.41-23.26-23.26,10.41-23.26,23.26-23.26,23.26,10.41,23.26,23.26"/>
      <path class="cls-218" d="M166.37,158.66c0,12.85-10.41,23.26-23.26,23.26s-23.26-10.41-23.26-23.26,10.41-23.26,23.26-23.26,23.26,10.41,23.26,23.26"/>
      <path class="cls-225" d="M164.23,160.53c0,12.85-10.41,23.26-23.26,23.26s-23.26-10.41-23.26-23.26,10.41-23.26,23.26-23.26,23.26,10.41,23.26,23.26"/>
      <path class="cls-224" d="M162.06,162.37c0,12.85-10.41,23.26-23.26,23.26s-23.26-10.41-23.26-23.26,10.41-23.26,23.26-23.26,23.26,10.41,23.26,23.26"/>
      <path class="cls-229" d="M159.88,164.2c0,12.85-10.41,23.26-23.26,23.26s-23.26-10.41-23.26-23.26,10.41-23.26,23.26-23.26,23.26,10.41,23.26,23.26"/>
      <path class="cls-228" d="M157.67,165.99c0,12.85-10.41,23.26-23.26,23.26s-23.26-10.41-23.26-23.26,10.41-23.26,23.26-23.26,23.26,10.41,23.26,23.26"/>
      <path class="cls-293" d="M155.45,167.77c0,12.85-10.41,23.26-23.26,23.26s-23.26-10.41-23.26-23.26,10.41-23.26,23.26-23.26,23.26,10.41,23.26,23.26"/>
      <path class="cls-293" d="M153.21,169.51c0,12.85-10.41,23.26-23.26,23.26s-23.26-10.41-23.26-23.26,10.41-23.26,23.26-23.26,23.26,10.41,23.26,23.26"/>
      <path class="cls-226" d="M150.95,171.23c0,12.85-10.41,23.26-23.26,23.26s-23.26-10.41-23.26-23.26,10.41-23.26,23.26-23.26,23.26,10.41,23.26,23.26"/>
      <path class="cls-294" d="M148.68,172.93c0,12.85-10.41,23.26-23.26,23.26s-23.26-10.41-23.26-23.26,10.41-23.26,23.26-23.26,23.26,10.41,23.26,23.26"/>
      <path class="cls-295" d="M146.38,174.6c0,12.85-10.41,23.26-23.26,23.26s-23.26-10.41-23.26-23.26,10.41-23.26,23.26-23.26,23.26,10.41,23.26,23.26"/>
      <path class="cls-227" d="M144.07,176.23c0,12.85-10.41,23.26-23.26,23.26s-23.26-10.41-23.26-23.26,10.41-23.26,23.26-23.26,23.26,10.41,23.26,23.26"/>
      <path class="cls-13" d="M141.74,177.84c0,12.85-10.41,23.26-23.26,23.26s-23.26-10.41-23.26-23.26,10.41-23.26,23.26-23.26,23.26,10.41,23.26,23.26"/>
      <path class="cls-15" d="M139.39,179.42c0,12.85-10.41,23.26-23.26,23.26s-23.26-10.41-23.26-23.26,10.41-23.26,23.26-23.26,23.26,10.41,23.26,23.26"/>
      <path class="cls-15" d="M137.02,180.98c0,12.85-10.41,23.26-23.26,23.26s-23.26-10.41-23.26-23.26,10.41-23.26,23.26-23.26,23.26,10.41,23.26,23.26"/>
      <path class="cls-14" d="M134.63,182.5c0,12.85-10.41,23.26-23.26,23.26s-23.26-10.41-23.26-23.26,10.41-23.26,23.26-23.26,23.26,10.41,23.26,23.26"/>
      <path class="cls-16" d="M132.23,183.98c0,12.85-10.41,23.26-23.26,23.26s-23.26-10.41-23.26-23.26,10.41-23.26,23.26-23.26,23.26,10.41,23.26,23.26"/>
      <path class="cls-11" d="M129.81,185.44c0,12.85-10.41,23.26-23.26,23.26s-23.26-10.41-23.26-23.26,10.41-23.26,23.26-23.26,23.26,10.41,23.26,23.26"/>
      <path class="cls-12" d="M127.37,186.86c0,12.85-10.41,23.26-23.26,23.26s-23.26-10.41-23.26-23.26,10.41-23.26,23.26-23.26,23.26,10.41,23.26,23.26"/>
      <path class="cls-1" d="M124.91,188.25c0,12.85-10.41,23.26-23.26,23.26s-23.26-10.41-23.26-23.26,10.41-23.26,23.26-23.26,23.26,10.41,23.26,23.26"/>
      <path class="cls-307" d="M122.44,189.61c0,12.85-10.41,23.26-23.26,23.26s-23.26-10.41-23.26-23.26,10.41-23.26,23.26-23.26,23.26,10.41,23.26,23.26"/>
      <path class="cls-308" d="M119.95,190.93c0,12.85-10.41,23.26-23.26,23.26s-23.26-10.41-23.26-23.26,10.41-23.26,23.26-23.26,23.26,10.41,23.26,23.26"/>
      <path class="cls-309" d="M117.51,192.16c0,12.85-10.41,23.26-23.26,23.26s-23.26-10.41-23.26-23.26,10.41-23.26,23.26-23.26,23.26,10.41,23.26,23.26"/>
      <path class="cls-236" d="M115.17,193.19c0,12.85-10.41,23.26-23.26,23.26s-23.26-10.41-23.26-23.26,10.41-23.26,23.26-23.26,23.26,10.41,23.26,23.26"/>
      <path class="cls-235" d="M112.76,194.18c0,12.85-10.41,23.26-23.26,23.26s-23.26-10.41-23.26-23.26,10.41-23.26,23.26-23.26,23.26,10.41,23.26,23.26"/>
      <path class="cls-235" d="M110.27,195.1c0,12.85-10.41,23.26-23.26,23.26s-23.26-10.41-23.26-23.26,10.41-23.26,23.26-23.26,23.26,10.41,23.26,23.26"/>
      <path class="cls-306" d="M107.71,195.96c0,12.85-10.41,23.26-23.26,23.26s-23.26-10.41-23.26-23.26,10.41-23.26,23.26-23.26,23.26,10.41,23.26,23.26"/>
      <path class="cls-305" d="M105.1,196.76c0,12.85-10.41,23.26-23.26,23.26s-23.26-10.41-23.26-23.26,10.41-23.26,23.26-23.26,23.26,10.41,23.26,23.26"/>
      <path class="cls-301" d="M102.44,197.48c0,12.85-10.41,23.26-23.26,23.26s-23.26-10.41-23.26-23.26,10.41-23.26,23.26-23.26,23.26,10.41,23.26,23.26"/>
      <path class="cls-299" d="M99.73,198.12c0,12.85-10.41,23.26-23.26,23.26s-23.26-10.41-23.26-23.26,10.41-23.26,23.26-23.26,23.26,10.41,23.26,23.26"/>
      <path class="cls-303" d="M97,198.68c0,12.85-10.41,23.26-23.26,23.26s-23.26-10.41-23.26-23.26,10.41-23.26,23.26-23.26,23.26,10.41,23.26,23.26"/>
      <path class="cls-302" d="M94.25,199.14c0,12.85-10.41,23.26-23.26,23.26s-23.26-10.41-23.26-23.26,10.41-23.26,23.26-23.26,23.26,10.41,23.26,23.26"/>
      <path class="cls-298" d="M91.48,199.51c0,12.85-10.41,23.26-23.26,23.26s-23.26-10.41-23.26-23.26,10.41-23.26,23.26-23.26,23.26,10.41,23.26,23.26"/>
      <path class="cls-300" d="M88.71,199.78c0,12.85-10.41,23.26-23.26,23.26s-23.26-10.41-23.26-23.26,10.41-23.26,23.26-23.26,23.26,10.41,23.26,23.26"/>
      <path class="cls-10" d="M85.94,199.94c0,12.85-10.41,23.26-23.26,23.26s-23.26-10.41-23.26-23.26,10.41-23.26,23.26-23.26,23.26,10.41,23.26,23.26"/>
      <path class="cls-3" d="M83.18,199.99c0,12.85-10.41,23.26-23.26,23.26s-23.26-10.41-23.26-23.26,10.41-23.26,23.26-23.26,23.26,10.41,23.26,23.26"/>
      <path class="cls-6" d="M80.45,199.92c0,12.85-10.41,23.26-23.26,23.26s-23.26-10.41-23.26-23.26,10.41-23.26,23.26-23.26,23.26,10.41,23.26,23.26"/>
      <path class="cls-5" d="M77.74,199.73c0,12.85-10.41,23.26-23.26,23.26s-23.26-10.41-23.26-23.26,10.41-23.26,23.26-23.26,23.26,10.41,23.26,23.26"/>
      <path class="cls-4" d="M75.08,199.4c0,12.85-10.41,23.26-23.26,23.26s-23.26-10.41-23.26-23.26,10.41-23.26,23.26-23.26,23.26,10.41,23.26,23.26"/>
      <path class="cls-9" d="M72.46,198.95c0,12.85-10.41,23.26-23.26,23.26s-23.26-10.41-23.26-23.26,10.41-23.26,23.26-23.26,23.26,10.41,23.26,23.26"/>
      <path class="cls-7" d="M69.9,198.35c0,12.85-10.41,23.26-23.26,23.26s-23.26-10.41-23.26-23.26,10.41-23.26,23.26-23.26,23.26,10.41,23.26,23.26"/>
      <path class="cls-26" d="M67.4,197.61c0,12.85-10.41,23.26-23.26,23.26s-23.26-10.41-23.26-23.26,10.41-23.26,23.26-23.26,23.26,10.41,23.26,23.26"/>
      <path class="cls-27" d="M64.98,196.72c0,12.85-10.41,23.26-23.26,23.26s-23.26-10.41-23.26-23.26,10.41-23.26,23.26-23.26,23.26,10.41,23.26,23.26"/>
      <path class="cls-29" d="M62.64,195.67c0,12.85-10.41,23.26-23.26,23.26s-23.26-10.41-23.26-23.26,10.41-23.26,23.26-23.26,23.26,10.41,23.26,23.26"/>
      <path class="cls-30" d="M60.39,194.45c0,12.85-10.41,23.26-23.26,23.26s-23.26-10.41-23.26-23.26,10.41-23.26,23.26-23.26,23.26,10.41,23.26,23.26"/>
      <path class="cls-28" d="M58.25,193.07c0,12.85-10.41,23.26-23.26,23.26s-23.26-10.41-23.26-23.26,10.41-23.26,23.26-23.26,23.26,10.41,23.26,23.26"/>
      <path class="cls-19" d="M56.21,191.52c0,12.85-10.41,23.26-23.26,23.26s-23.26-10.41-23.26-23.26,10.41-23.26,23.26-23.26,23.26,10.41,23.26,23.26"/>
      <path class="cls-20" d="M54.29,189.79c0,12.85-10.41,23.26-23.26,23.26s-23.26-10.41-23.26-23.26,10.41-23.26,23.26-23.26,23.26,10.41,23.26,23.26"/>
      <path class="cls-8" d="M52.49,187.87c0,12.85-10.41,23.26-23.26,23.26s-23.26-10.41-23.26-23.26,10.41-23.26,23.26-23.26,23.26,10.41,23.26,23.26"/>
      <path class="cls-22" d="M50.83,185.76c0,12.85-10.41,23.26-23.26,23.26s-23.26-10.41-23.26-23.26,10.41-23.26,23.26-23.26,23.26,10.41,23.26,23.26"/>
      <path class="cls-23" d="M49.32,183.46c0,12.85-10.41,23.26-23.26,23.26s-23.26-10.41-23.26-23.26,10.41-23.26,23.26-23.26,23.26,10.41,23.26,23.26"/>
      <path class="cls-21" d="M48.06,180.69c0,12.85-10.41,23.26-23.26,23.26S1.55,193.53,1.55,180.69s10.41-23.26,23.26-23.26,23.26,10.41,23.26,23.26"/>
      <path class="cls-25" d="M47.19,177.87c0,12.85-10.41,23.26-23.26,23.26S.68,190.71.68,177.87s10.41-23.26,23.26-23.26,23.26,10.41,23.26,23.26"/>
      <path class="cls-220" d="M47.08,167.6c0,12.85-10.41,23.26-23.26,23.26S.56,180.44.56,167.6s10.41-23.26,23.26-23.26,23.26,10.41,23.26,23.26"/>
      <path class="cls-284" d="M47.4,166.42c0,12.85-10.41,23.26-23.26,23.26S.88,179.26.88,166.42s10.41-23.26,23.26-23.26,23.26,10.41,23.26,23.26"/>
      <path class="cls-285" d="M47.78,165.27c0,12.85-10.41,23.26-23.26,23.26S1.26,178.11,1.26,165.27s10.41-23.26,23.26-23.26,23.26,10.41,23.26,23.26"/>
      <path class="cls-247" d="M48.23,164.14c0,12.85-10.41,23.26-23.26,23.26S1.71,176.99,1.71,164.14s10.41-23.26,23.26-23.26,23.26,10.41,23.26,23.26"/>
      <path class="cls-270" d="M48.73,163.04c0,12.85-10.41,23.26-23.26,23.26s-23.26-10.41-23.26-23.26,10.41-23.26,23.26-23.26,23.26,10.41,23.26,23.26"/>
      <path class="cls-230" d="M49.3,161.96c0,12.85-10.41,23.26-23.26,23.26s-23.26-10.41-23.26-23.26,10.41-23.26,23.26-23.26,23.26,10.41,23.26,23.26"/>
      <path class="cls-260" d="M49.92,160.91c0,12.85-10.41,23.26-23.26,23.26s-23.26-10.41-23.26-23.26,10.41-23.26,23.26-23.26,23.26,10.41,23.26,23.26"/>
      <path class="cls-281" d="M50.6,159.89c0,12.85-10.41,23.26-23.26,23.26s-23.26-10.41-23.26-23.26,10.41-23.26,23.26-23.26,23.26,10.41,23.26,23.26"/>
      <path class="cls-264" d="M51.33,158.89c0,12.85-10.41,23.26-23.26,23.26s-23.26-10.41-23.26-23.26,10.41-23.26,23.26-23.26,23.26,10.41,23.26,23.26"/>
      <path class="cls-304" d="M52.11,157.92c0,12.85-10.41,23.26-23.26,23.26s-23.26-10.41-23.26-23.26,10.41-23.26,23.26-23.26,23.26,10.41,23.26,23.26"/>
      <path class="cls-238" d="M52.94,156.98c0,12.85-10.41,23.26-23.26,23.26s-23.26-10.41-23.26-23.26,10.41-23.26,23.26-23.26,23.26,10.41,23.26,23.26"/>
      <path class="cls-296" d="M53.82,156.07c0,12.85-10.41,23.26-23.26,23.26s-23.26-10.41-23.26-23.26,10.41-23.26,23.26-23.26,23.26,10.41,23.26,23.26"/>
      <path class="cls-237" d="M54.74,155.19c0,12.85-10.41,23.26-23.26,23.26s-23.26-10.41-23.26-23.26,10.41-23.26,23.26-23.26,23.26,10.41,23.26,23.26"/>
      <path class="cls-259" d="M55.7,154.34c0,12.85-10.41,23.26-23.26,23.26s-23.26-10.41-23.26-23.26,10.41-23.26,23.26-23.26,23.26,10.41,23.26,23.26"/>
      <path class="cls-245" d="M56.7,153.52c0,12.85-10.41,23.26-23.26,23.26s-23.26-10.41-23.26-23.26,10.41-23.26,23.26-23.26,23.26,10.41,23.26,23.26"/>
      <path class="cls-258" d="M57.73,152.73c0,12.85-10.41,23.26-23.26,23.26s-23.26-10.41-23.26-23.26,10.41-23.26,23.26-23.26,23.26,10.41,23.26,23.26"/>
      <path class="cls-244" d="M58.8,151.97c0,12.85-10.41,23.26-23.26,23.26s-23.26-10.41-23.26-23.26,10.41-23.26,23.26-23.26,23.26,10.41,23.26,23.26"/>
      <path class="cls-131" d="M59.91,151.24c0,12.85-10.41,23.26-23.26,23.26s-23.26-10.41-23.26-23.26,10.41-23.26,23.26-23.26,23.26,10.41,23.26,23.26"/>
      <path class="cls-133" d="M61.04,150.55c0,12.85-10.41,23.26-23.26,23.26s-23.26-10.41-23.26-23.26,10.41-23.26,23.26-23.26,23.26,10.41,23.26,23.26"/>
      <path class="cls-125" d="M62.2,149.88c0,12.85-10.41,23.26-23.26,23.26s-23.26-10.41-23.26-23.26,10.41-23.26,23.26-23.26,23.26,10.41,23.26,23.26"/>
      <path class="cls-135" d="M63.39,149.26c0,12.85-10.41,23.26-23.26,23.26s-23.26-10.41-23.26-23.26,10.41-23.26,23.26-23.26,23.26,10.41,23.26,23.26"/>
      <path class="cls-136" d="M64.6,148.66c0,12.85-10.41,23.26-23.26,23.26s-23.26-10.41-23.26-23.26,10.41-23.26,23.26-23.26,23.26,10.41,23.26,23.26"/>
      <path class="cls-113" d="M65.83,148.1c0,12.85-10.41,23.26-23.26,23.26s-23.26-10.41-23.26-23.26,10.41-23.26,23.26-23.26,23.26,10.41,23.26,23.26"/>
      <path class="cls-112" d="M67.08,147.58c0,12.85-10.41,23.26-23.26,23.26s-23.26-10.41-23.26-23.26,10.41-23.26,23.26-23.26,23.26,10.41,23.26,23.26"/>
      <path class="cls-130" d="M68.35,147.09c0,12.85-10.41,23.26-23.26,23.26s-23.26-10.41-23.26-23.26,10.41-23.26,23.26-23.26,23.26,10.41,23.26,23.26"/>
      <path class="cls-132" d="M69.64,146.63c0,12.85-10.41,23.26-23.26,23.26s-23.26-10.41-23.26-23.26,10.41-23.26,23.26-23.26,23.26,10.41,23.26,23.26"/>
      <path class="cls-140" d="M70.93,146.22c0,12.85-10.41,23.26-23.26,23.26s-23.26-10.41-23.26-23.26,10.41-23.26,23.26-23.26,23.26,10.41,23.26,23.26"/>
      <path class="cls-122" d="M72.24,145.84c0,12.85-10.41,23.26-23.26,23.26s-23.26-10.41-23.26-23.26,10.41-23.26,23.26-23.26,23.26,10.41,23.26,23.26"/>
      <path class="cls-127" d="M73.55,145.5c0,12.85-10.41,23.26-23.26,23.26s-23.26-10.41-23.26-23.26,10.41-23.26,23.26-23.26,23.26,10.41,23.26,23.26"/>
      <path class="cls-126" d="M74.88,145.19c0,12.85-10.41,23.26-23.26,23.26s-23.26-10.41-23.26-23.26,10.41-23.26,23.26-23.26,23.26,10.41,23.26,23.26"/>
      <path class="cls-137" d="M76.2,144.93c0,12.85-10.41,23.26-23.26,23.26s-23.26-10.41-23.26-23.26,10.41-23.26,23.26-23.26,23.26,10.41,23.26,23.26"/>
      <path class="cls-138" d="M77.53,144.7c0,12.85-10.41,23.26-23.26,23.26s-23.26-10.41-23.26-23.26,10.41-23.26,23.26-23.26,23.26,10.41,23.26,23.26"/>
      <path class="cls-139" d="M78.85,144.52c0,12.85-10.41,23.26-23.26,23.26s-23.26-10.41-23.26-23.26,10.41-23.26,23.26-23.26,23.26,10.41,23.26,23.26"/>
      <path class="cls-110" d="M80.17,144.37c0,12.85-10.41,23.26-23.26,23.26s-23.26-10.41-23.26-23.26,10.41-23.26,23.26-23.26,23.26,10.41,23.26,23.26"/>
      <path class="cls-109" d="M81.49,144.27c0,12.85-10.41,23.26-23.26,23.26s-23.26-10.41-23.26-23.26,10.41-23.26,23.26-23.26,23.26,10.41,23.26,23.26"/>
      <path class="cls-115" d="M82.8,144.2c0,12.85-10.41,23.26-23.26,23.26s-23.26-10.41-23.26-23.26,10.41-23.26,23.26-23.26,23.26,10.41,23.26,23.26"/>
      <path class="cls-158" d="M84.1,144.18c0,12.85-10.41,23.26-23.26,23.26s-23.26-10.41-23.26-23.26,10.41-23.26,23.26-23.26,23.26,10.41,23.26,23.26"/>
      <path class="cls-159" d="M85.39,144.2c0,12.85-10.41,23.26-23.26,23.26s-23.26-10.41-23.26-23.26,10.41-23.26,23.26-23.26,23.26,10.41,23.26,23.26"/>
      <path class="cls-154" d="M86.66,144.26c0,12.85-10.41,23.26-23.26,23.26s-23.26-10.41-23.26-23.26,10.41-23.26,23.26-23.26,23.26,10.41,23.26,23.26"/>
      <path class="cls-119" d="M87.92,144.37c0,12.85-10.41,23.26-23.26,23.26s-23.26-10.41-23.26-23.26,10.41-23.26,23.26-23.26,23.26,10.41,23.26,23.26"/>
      <path class="cls-111" d="M89.17,144.51c0,12.85-10.41,23.26-23.26,23.26s-23.26-10.41-23.26-23.26,10.41-23.26,23.26-23.26,23.26,10.41,23.26,23.26"/>
      <path class="cls-116" d="M90.42,144.67c0,12.85-10.41,23.26-23.26,23.26s-23.26-10.41-23.26-23.26,10.41-23.26,23.26-23.26,23.26,10.41,23.26,23.26"/>
      <path class="cls-117" d="M91.67,144.85c0,12.85-10.41,23.26-23.26,23.26s-23.26-10.41-23.26-23.26,10.41-23.26,23.26-23.26,23.26,10.41,23.26,23.26"/>
      <path class="cls-114" d="M92.92,145.04c0,12.85-10.41,23.26-23.26,23.26s-23.26-10.41-23.26-23.26,10.41-23.26,23.26-23.26,23.26,10.41,23.26,23.26"/>
      <path class="cls-134" d="M94.16,145.24c0,12.85-10.41,23.26-23.26,23.26s-23.26-10.41-23.26-23.26,10.41-23.26,23.26-23.26,23.26,10.41,23.26,23.26"/>
      <path class="cls-129" d="M95.4,145.46c0,12.85-10.41,23.26-23.26,23.26s-23.26-10.41-23.26-23.26,10.41-23.26,23.26-23.26,23.26,10.41,23.26,23.26"/>
      <path class="cls-118" d="M96.63,145.7c0,12.85-10.41,23.26-23.26,23.26s-23.26-10.41-23.26-23.26,10.41-23.26,23.26-23.26,23.26,10.41,23.26,23.26"/>
      <path class="cls-108" d="M97.87,145.95c0,12.85-10.41,23.26-23.26,23.26s-23.26-10.41-23.26-23.26,10.41-23.26,23.26-23.26,23.26,10.41,23.26,23.26"/>
      <path class="cls-120" d="M99.09,146.21c0,12.85-10.41,23.26-23.26,23.26s-23.26-10.41-23.26-23.26,10.41-23.26,23.26-23.26,23.26,10.41,23.26,23.26"/>
      <path class="cls-121" d="M100.32,146.49c0,12.85-10.41,23.26-23.26,23.26s-23.26-10.41-23.26-23.26,10.41-23.26,23.26-23.26,23.26,10.41,23.26,23.26"/>
      <path class="cls-172" d="M101.54,146.78c0,12.85-10.41,23.26-23.26,23.26s-23.26-10.41-23.26-23.26,10.41-23.26,23.26-23.26,23.26,10.41,23.26,23.26"/>
      <path class="cls-165" d="M102.76,147.09c0,12.85-10.41,23.26-23.26,23.26s-23.26-10.41-23.26-23.26,10.41-23.26,23.26-23.26,23.26,10.41,23.26,23.26"/>
      <path class="cls-146" d="M103.97,147.41c0,12.85-10.41,23.26-23.26,23.26s-23.26-10.41-23.26-23.26,10.41-23.26,23.26-23.26,23.26,10.41,23.26,23.26"/>
      <path class="cls-143" d="M105.18,147.74c0,12.85-10.41,23.26-23.26,23.26s-23.26-10.41-23.26-23.26,10.41-23.26,23.26-23.26,23.26,10.41,23.26,23.26"/>
      <path class="cls-142" d="M106.39,148.09c0,12.85-10.41,23.26-23.26,23.26s-23.26-10.41-23.26-23.26,10.41-23.26,23.26-23.26,23.26,10.41,23.26,23.26"/>
      <path class="cls-141" d="M107.59,148.45c0,12.85-10.41,23.26-23.26,23.26s-23.26-10.41-23.26-23.26,10.41-23.26,23.26-23.26,23.26,10.41,23.26,23.26"/>
      <path class="cls-153" d="M108.79,148.83c0,12.85-10.41,23.26-23.26,23.26s-23.26-10.41-23.26-23.26,10.41-23.26,23.26-23.26,23.26,10.41,23.26,23.26"/>
      <path class="cls-178" d="M109.99,149.22c0,12.85-10.41,23.26-23.26,23.26s-23.26-10.41-23.26-23.26,10.41-23.26,23.26-23.26,23.26,10.41,23.26,23.26"/>
      <path class="cls-171" d="M111.18,149.62c0,12.85-10.41,23.26-23.26,23.26s-23.26-10.41-23.26-23.26,10.41-23.26,23.26-23.26,23.26,10.41,23.26,23.26"/>
      <path class="cls-167" d="M112.37,150.03c0,12.85-10.41,23.26-23.26,23.26s-23.26-10.41-23.26-23.26,10.41-23.26,23.26-23.26,23.26,10.41,23.26,23.26"/>
      <path class="cls-160" d="M113.56,150.46c0,12.85-10.41,23.26-23.26,23.26s-23.26-10.41-23.26-23.26,10.41-23.26,23.26-23.26,23.26,10.41,23.26,23.26"/>
      <path class="cls-176" d="M114.74,150.9c0,12.85-10.41,23.26-23.26,23.26s-23.26-10.41-23.26-23.26,10.41-23.26,23.26-23.26,23.26,10.41,23.26,23.26"/>
      <path class="cls-162" d="M115.92,151.35c0,12.85-10.41,23.26-23.26,23.26s-23.26-10.41-23.26-23.26,10.41-23.26,23.26-23.26,23.26,10.41,23.26,23.26"/>
      <path class="cls-163" d="M117.09,151.82c0,12.85-10.41,23.26-23.26,23.26s-23.26-10.41-23.26-23.26,10.41-23.26,23.26-23.26,23.26,10.41,23.26,23.26"/>
      <path class="cls-149" d="M118.27,152.3c0,12.85-10.41,23.26-23.26,23.26s-23.26-10.41-23.26-23.26,10.41-23.26,23.26-23.26,23.26,10.41,23.26,23.26"/>
      <path class="cls-151" d="M119.43,152.79c0,12.85-10.41,23.26-23.26,23.26s-23.26-10.41-23.26-23.26,10.41-23.26,23.26-23.26,23.26,10.41,23.26,23.26"/>
      <path class="cls-151" d="M120.6,153.29c0,12.85-10.41,23.26-23.26,23.26s-23.26-10.41-23.26-23.26,10.41-23.26,23.26-23.26,23.26,10.41,23.26,23.26"/>
      <path class="cls-124" d="M121.76,153.81c0,12.85-10.41,23.26-23.26,23.26s-23.26-10.41-23.26-23.26,10.41-23.26,23.26-23.26,23.26,10.41,23.26,23.26"/>
      <path class="cls-123" d="M122.92,154.33c0,12.85-10.41,23.26-23.26,23.26s-23.26-10.41-23.26-23.26,10.41-23.26,23.26-23.26,23.26,10.41,23.26,23.26"/>
      <path class="cls-150" d="M124.07,154.87c0,12.85-10.41,23.26-23.26,23.26s-23.26-10.41-23.26-23.26,10.41-23.26,23.26-23.26,23.26,10.41,23.26,23.26"/>
      <path class="cls-128" d="M125.22,155.42c0,12.85-10.41,23.26-23.26,23.26s-23.26-10.41-23.26-23.26,10.41-23.26,23.26-23.26,23.26,10.41,23.26,23.26"/>
      <path class="cls-155" d="M126.37,155.98c0,12.85-10.41,23.26-23.26,23.26s-23.26-10.41-23.26-23.26,10.41-23.26,23.26-23.26,23.26,10.41,23.26,23.26"/>
      <path class="cls-145" d="M127.51,156.56c0,12.85-10.41,23.26-23.26,23.26s-23.26-10.41-23.26-23.26,10.41-23.26,23.26-23.26,23.26,10.41,23.26,23.26"/>
      <path class="cls-147" d="M128.65,157.14c0,12.85-10.41,23.26-23.26,23.26s-23.26-10.41-23.26-23.26,10.41-23.26,23.26-23.26,23.26,10.41,23.26,23.26"/>
      <path class="cls-157" d="M129.79,157.73c0,12.85-10.41,23.26-23.26,23.26s-23.26-10.41-23.26-23.26,10.41-23.26,23.26-23.26,23.26,10.41,23.26,23.26"/>
      <path class="cls-107" d="M130.92,158.34c0,12.85-10.41,23.26-23.26,23.26s-23.26-10.41-23.26-23.26,10.41-23.26,23.26-23.26,23.26,10.41,23.26,23.26"/>
      <path class="cls-152" d="M132.05,158.96c0,12.85-10.41,23.26-23.26,23.26s-23.26-10.41-23.26-23.26,10.41-23.26,23.26-23.26,23.26,10.41,23.26,23.26"/>
      <path class="cls-156" d="M133.18,159.59c0,12.85-10.41,23.26-23.26,23.26s-23.26-10.41-23.26-23.26,10.41-23.26,23.26-23.26,23.26,10.41,23.26,23.26"/>
      <path class="cls-148" d="M134.3,160.23c0,12.85-10.41,23.26-23.26,23.26s-23.26-10.41-23.26-23.26,10.41-23.26,23.26-23.26,23.26,10.41,23.26,23.26"/>
      <path class="cls-144" d="M135.42,160.87c0,12.85-10.41,23.26-23.26,23.26s-23.26-10.41-23.26-23.26,10.41-23.26,23.26-23.26,23.26,10.41,23.26,23.26"/>
      <path class="cls-84" d="M136.53,161.53c0,12.85-10.41,23.26-23.26,23.26s-23.26-10.41-23.26-23.26,10.41-23.26,23.26-23.26,23.26,10.41,23.26,23.26"/>
      <path class="cls-85" d="M137.64,162.2c0,12.85-10.41,23.26-23.26,23.26s-23.26-10.41-23.26-23.26,10.41-23.26,23.26-23.26,23.26,10.41,23.26,23.26"/>
      <path class="cls-80" d="M138.75,162.88c0,12.85-10.41,23.26-23.26,23.26s-23.26-10.41-23.26-23.26,10.41-23.26,23.26-23.26,23.26,10.41,23.26,23.26"/>
      <path class="cls-193" d="M139.86,163.57c0,12.85-10.41,23.26-23.26,23.26s-23.26-10.41-23.26-23.26,10.41-23.26,23.26-23.26,23.26,10.41,23.26,23.26"/>
      <path class="cls-192" d="M140.96,164.27c0,12.85-10.41,23.26-23.26,23.26s-23.26-10.41-23.26-23.26,10.41-23.26,23.26-23.26,23.26,10.41,23.26,23.26"/>
      <path class="cls-194" d="M142.05,164.98c0,12.85-10.41,23.26-23.26,23.26s-23.26-10.41-23.26-23.26,10.41-23.26,23.26-23.26,23.26,10.41,23.26,23.26"/>
      <path class="cls-168" d="M143.15,165.7c0,12.85-10.41,23.26-23.26,23.26s-23.26-10.41-23.26-23.26,10.41-23.26,23.26-23.26,23.26,10.41,23.26,23.26"/>
      <path class="cls-170" d="M144.24,166.43c0,12.85-10.41,23.26-23.26,23.26s-23.26-10.41-23.26-23.26,10.41-23.26,23.26-23.26,23.26,10.41,23.26,23.26"/>
      <path class="cls-81" d="M145.32,167.17c0,12.85-10.41,23.26-23.26,23.26s-23.26-10.41-23.26-23.26,10.41-23.26,23.26-23.26,23.26,10.41,23.26,23.26"/>
      <path class="cls-69" d="M146.41,167.92c0,12.85-10.41,23.26-23.26,23.26s-23.26-10.41-23.26-23.26,10.41-23.26,23.26-23.26,23.26,10.41,23.26,23.26"/>
      <path class="cls-186" d="M147.49,168.67c0,12.85-10.41,23.26-23.26,23.26s-23.26-10.41-23.26-23.26,10.41-23.26,23.26-23.26,23.26,10.41,23.26,23.26"/>
      <path class="cls-188" d="M148.56,169.44c0,12.85-10.41,23.26-23.26,23.26s-23.26-10.41-23.26-23.26,10.41-23.26,23.26-23.26,23.26,10.41,23.26,23.26"/>
      <path class="cls-74" d="M149.63,170.21c0,12.85-10.41,23.26-23.26,23.26s-23.26-10.41-23.26-23.26,10.41-23.26,23.26-23.26,23.26,10.41,23.26,23.26"/>
      <path class="cls-73" d="M150.7,170.99c0,12.85-10.41,23.26-23.26,23.26s-23.26-10.41-23.26-23.26,10.41-23.26,23.26-23.26,23.26,10.41,23.26,23.26"/>
      <path class="cls-86" d="M151.77,171.78c0,12.85-10.41,23.26-23.26,23.26s-23.26-10.41-23.26-23.26,10.41-23.26,23.26-23.26,23.26,10.41,23.26,23.26"/>
      <path class="cls-196" d="M152.83,172.58c0,12.85-10.41,23.26-23.26,23.26s-23.26-10.41-23.26-23.26,10.41-23.26,23.26-23.26,23.26,10.41,23.26,23.26"/>
      <path class="cls-161" d="M153.89,173.39c0,12.85-10.41,23.26-23.26,23.26s-23.26-10.41-23.26-23.26,10.41-23.26,23.26-23.26,23.26,10.41,23.26,23.26"/>
      <path class="cls-173" d="M154.94,174.21c0,12.85-10.41,23.26-23.26,23.26s-23.26-10.41-23.26-23.26,10.41-23.26,23.26-23.26,23.26,10.41,23.26,23.26"/>
      <path class="cls-175" d="M155.99,175.03c0,12.85-10.41,23.26-23.26,23.26s-23.26-10.41-23.26-23.26,10.41-23.26,23.26-23.26,23.26,10.41,23.26,23.26"/>
      <path class="cls-174" d="M157.04,175.86c0,12.85-10.41,23.26-23.26,23.26s-23.26-10.41-23.26-23.26,10.41-23.26,23.26-23.26,23.26,10.41,23.26,23.26"/>
      <path class="cls-185" d="M158.08,176.7c0,12.85-10.41,23.26-23.26,23.26s-23.26-10.41-23.26-23.26,10.41-23.26,23.26-23.26,23.26,10.41,23.26,23.26"/>
      <path class="cls-184" d="M159.12,177.55c0,12.85-10.41,23.26-23.26,23.26s-23.26-10.41-23.26-23.26,10.41-23.26,23.26-23.26,23.26,10.41,23.26,23.26"/>
      <path class="cls-183" d="M160.16,178.41c0,12.85-10.41,23.26-23.26,23.26s-23.26-10.41-23.26-23.26,10.41-23.26,23.26-23.26,23.26,10.41,23.26,23.26"/>
      <path class="cls-182" d="M161.19,179.27c0,12.85-10.41,23.26-23.26,23.26s-23.26-10.41-23.26-23.26,10.41-23.26,23.26-23.26,23.26,10.41,23.26,23.26"/>
      <path class="cls-169" d="M162.22,180.14c0,12.85-10.41,23.26-23.26,23.26s-23.26-10.41-23.26-23.26,10.41-23.26,23.26-23.26,23.26,10.41,23.26,23.26"/>
      <path class="cls-166" d="M163.25,181.02c0,12.85-10.41,23.26-23.26,23.26s-23.26-10.41-23.26-23.26,10.41-23.26,23.26-23.26,23.26,10.41,23.26,23.26"/>
      <path class="cls-77" d="M164.27,181.9c0,12.85-10.41,23.26-23.26,23.26s-23.26-10.41-23.26-23.26,10.41-23.26,23.26-23.26,23.26,10.41,23.26,23.26"/>
      <path class="cls-68" d="M165.29,182.79c0,12.85-10.41,23.26-23.26,23.26s-23.26-10.41-23.26-23.26,10.41-23.26,23.26-23.26,23.26,10.41,23.26,23.26"/>
      <path class="cls-72" d="M166.3,183.69c0,12.85-10.41,23.26-23.26,23.26s-23.26-10.41-23.26-23.26,10.41-23.26,23.26-23.26,23.26,10.41,23.26,23.26"/>
      <path class="cls-67" d="M167.31,184.59c0,12.85-10.41,23.26-23.26,23.26s-23.26-10.41-23.26-23.26,10.41-23.26,23.26-23.26,23.26,10.41,23.26,23.26"/>
      <path class="cls-164" d="M168.32,185.5c0,12.85-10.41,23.26-23.26,23.26s-23.26-10.41-23.26-23.26,10.41-23.26,23.26-23.26,23.26,10.41,23.26,23.26"/>
      <path class="cls-195" d="M169.33,186.42c0,12.85-10.41,23.26-23.26,23.26s-23.26-10.41-23.26-23.26,10.41-23.26,23.26-23.26,23.26,10.41,23.26,23.26"/>
      <path class="cls-97" d="M170.33,187.35c0,12.85-10.41,23.26-23.26,23.26s-23.26-10.41-23.26-23.26,10.41-23.26,23.26-23.26,23.26,10.41,23.26,23.26"/>
      <path class="cls-203" d="M171.32,188.27c0,12.85-10.41,23.26-23.26,23.26s-23.26-10.41-23.26-23.26,10.41-23.26,23.26-23.26,23.26,10.41,23.26,23.26"/>
      <path class="cls-200" d="M172.32,189.21c0,12.85-10.41,23.26-23.26,23.26s-23.26-10.41-23.26-23.26,10.41-23.26,23.26-23.26,23.26,10.41,23.26,23.26"/>
      <path class="cls-199" d="M173.31,190.15c0,12.85-10.41,23.26-23.26,23.26s-23.26-10.41-23.26-23.26,10.41-23.26,23.26-23.26,23.26,10.41,23.26,23.26"/>
      <path class="cls-197" d="M174.29,191.1c0,12.85-10.41,23.26-23.26,23.26s-23.26-10.41-23.26-23.26,10.41-23.26,23.26-23.26,23.26,10.41,23.26,23.26"/>
      <path class="cls-201" d="M175.28,192.05c0,12.85-10.41,23.26-23.26,23.26s-23.26-10.41-23.26-23.26,10.41-23.26,23.26-23.26,23.26,10.41,23.26,23.26"/>
      <path class="cls-187" d="M176.25,193.01c0,12.85-10.41,23.26-23.26,23.26s-23.26-10.41-23.26-23.26,10.41-23.26,23.26-23.26,23.26,10.41,23.26,23.26"/>
      <path class="cls-191" d="M177.23,193.97c0,12.85-10.41,23.26-23.26,23.26s-23.26-10.41-23.26-23.26,10.41-23.26,23.26-23.26,23.26,10.41,23.26,23.26"/>
      <path class="cls-190" d="M178.2,194.94c0,12.85-10.41,23.26-23.26,23.26s-23.26-10.41-23.26-23.26,10.41-23.26,23.26-23.26,23.26,10.41,23.26,23.26"/>
      <path class="cls-51" d="M179.17,195.92c0,12.85-10.41,23.26-23.26,23.26s-23.26-10.41-23.26-23.26,10.41-23.26,23.26-23.26,23.26,10.41,23.26,23.26"/>
      <path class="cls-43" d="M180.13,196.9c0,12.85-10.41,23.26-23.26,23.26s-23.26-10.41-23.26-23.26,10.41-23.26,23.26-23.26,23.26,10.41,23.26,23.26"/>
      <path class="cls-44" d="M181.09,197.88c0,12.85-10.41,23.26-23.26,23.26s-23.26-10.41-23.26-23.26,10.41-23.26,23.26-23.26,23.26,10.41,23.26,23.26"/>
      <path class="cls-45" d="M182.05,198.87c0,12.85-10.41,23.26-23.26,23.26s-23.26-10.41-23.26-23.26,10.41-23.26,23.26-23.26,23.26,10.41,23.26,23.26"/>
      <path class="cls-46" d="M183,199.86c0,12.85-10.41,23.26-23.26,23.26s-23.26-10.41-23.26-23.26,10.41-23.26,23.26-23.26,23.26,10.41,23.26,23.26"/>
      <path class="cls-48" d="M183.95,200.86c0,12.85-10.41,23.26-23.26,23.26s-23.26-10.41-23.26-23.26,10.41-23.26,23.26-23.26,23.26,10.41,23.26,23.26"/>
      <path class="cls-41" d="M184.9,201.86c0,12.85-10.41,23.26-23.26,23.26s-23.26-10.41-23.26-23.26,10.41-23.26,23.26-23.26,23.26,10.41,23.26,23.26"/>
      <path class="cls-40" d="M185.84,202.87c0,12.85-10.41,23.26-23.26,23.26s-23.26-10.41-23.26-23.26,10.41-23.26,23.26-23.26,23.26,10.41,23.26,23.26"/>
      <path class="cls-39" d="M186.78,203.88c0,12.85-10.41,23.26-23.26,23.26s-23.26-10.41-23.26-23.26,10.41-23.26,23.26-23.26,23.26,10.41,23.26,23.26"/>
      <path class="cls-177" d="M187.72,204.89c0,12.85-10.41,23.26-23.26,23.26s-23.26-10.41-23.26-23.26,10.41-23.26,23.26-23.26,23.26,10.41,23.26,23.26"/>
      <path class="cls-79" d="M188.65,205.91c0,12.85-10.41,23.26-23.26,23.26s-23.26-10.41-23.26-23.26,10.41-23.26,23.26-23.26,23.26,10.41,23.26,23.26"/>
      <path class="cls-78" d="M189.58,206.93c0,12.85-10.41,23.26-23.26,23.26s-23.26-10.41-23.26-23.26,10.41-23.26,23.26-23.26,23.26,10.41,23.26,23.26"/>
      <path class="cls-66" d="M190.5,207.95c0,12.85-10.41,23.26-23.26,23.26s-23.26-10.41-23.26-23.26,10.41-23.26,23.26-23.26,23.26,10.41,23.26,23.26"/>
      <path class="cls-83" d="M191.42,208.98c0,12.85-10.41,23.26-23.26,23.26s-23.26-10.41-23.26-23.26,10.41-23.26,23.26-23.26,23.26,10.41,23.26,23.26"/>
      <path class="cls-82" d="M192.34,210.01c0,12.85-10.41,23.26-23.26,23.26s-23.26-10.41-23.26-23.26,10.41-23.26,23.26-23.26,23.26,10.41,23.26,23.26"/>
      <path class="cls-70" d="M193.25,211.05c0,12.85-10.41,23.26-23.26,23.26s-23.26-10.41-23.26-23.26,10.41-23.26,23.26-23.26,23.26,10.41,23.26,23.26"/>
      <path class="cls-189" d="M194.16,212.09c0,12.85-10.41,23.26-23.26,23.26s-23.26-10.41-23.26-23.26,10.41-23.26,23.26-23.26,23.26,10.41,23.26,23.26"/>
      <path class="cls-198" d="M195.07,213.13c0,12.85-10.41,23.26-23.26,23.26s-23.26-10.41-23.26-23.26,10.41-23.26,23.26-23.26,23.26,10.41,23.26,23.26"/>
      <path class="cls-311" d="M195.97,214.17c0,12.85-10.41,23.26-23.26,23.26s-23.26-10.41-23.26-23.26,10.41-23.26,23.26-23.26,23.26,10.41,23.26,23.26"/>
      <path class="cls-205" d="M196.87,215.22c0,12.85-10.41,23.26-23.26,23.26s-23.26-10.41-23.26-23.26,10.41-23.26,23.26-23.26,23.26,10.41,23.26,23.26"/>
      <path class="cls-204" d="M197.77,216.27c0,12.85-10.41,23.26-23.26,23.26s-23.26-10.41-23.26-23.26,10.41-23.26,23.26-23.26,23.26,10.41,23.26,23.26"/>
      <path class="cls-310" d="M198.66,217.32c0,12.85-10.41,23.26-23.26,23.26s-23.26-10.41-23.26-23.26,10.41-23.26,23.26-23.26,23.26,10.41,23.26,23.26"/>
      <path class="cls-202" d="M199.55,218.37c0,12.85-10.41,23.26-23.26,23.26s-23.26-10.41-23.26-23.26,10.41-23.26,23.26-23.26,23.26,10.41,23.26,23.26"/>
      <path class="cls-206" d="M200.43,219.43c0,12.85-10.41,23.26-23.26,23.26s-23.26-10.41-23.26-23.26,10.41-23.26,23.26-23.26,23.26,10.41,23.26,23.26"/>
      <path class="cls-65" d="M201.31,220.48c0,12.85-10.41,23.26-23.26,23.26s-23.26-10.41-23.26-23.26,10.41-23.26,23.26-23.26,23.26,10.41,23.26,23.26"/>
      <path class="cls-64" d="M202.19,221.54c0,12.85-10.41,23.26-23.26,23.26s-23.26-10.41-23.26-23.26,10.41-23.26,23.26-23.26,23.26,10.41,23.26,23.26"/>
      <path class="cls-63" d="M203.06,222.6c0,12.85-10.41,23.26-23.26,23.26s-23.26-10.41-23.26-23.26,10.41-23.26,23.26-23.26,23.26,10.41,23.26,23.26"/>
      <path class="cls-37" d="M203.93,223.67c0,12.85-10.41,23.26-23.26,23.26s-23.26-10.41-23.26-23.26,10.41-23.26,23.26-23.26,23.26,10.41,23.26,23.26"/>
      <path class="cls-37" d="M204.8,224.73c0,12.85-10.41,23.26-23.26,23.26s-23.26-10.41-23.26-23.26,10.41-23.26,23.26-23.26,23.26,10.41,23.26,23.26"/>
      <path class="cls-38" d="M205.66,225.8c0,12.85-10.41,23.26-23.26,23.26s-23.26-10.41-23.26-23.26,10.41-23.26,23.26-23.26,23.26,10.41,23.26,23.26"/>
      <path class="cls-36" d="M206.52,226.86c0,12.85-10.41,23.26-23.26,23.26s-23.26-10.41-23.26-23.26,10.41-23.26,23.26-23.26,23.26,10.41,23.26,23.26"/>
      <path class="cls-35" d="M207.38,227.93c0,12.85-10.41,23.26-23.26,23.26s-23.26-10.41-23.26-23.26,10.41-23.26,23.26-23.26,23.26,10.41,23.26,23.26"/>
      <path class="cls-61" d="M208.23,229c0,12.85-10.41,23.26-23.26,23.26s-23.26-10.41-23.26-23.26,10.41-23.26,23.26-23.26,23.26,10.41,23.26,23.26"/>
      <path class="cls-62" d="M209.07,230.07c0,12.85-10.41,23.26-23.26,23.26s-23.26-10.41-23.26-23.26,10.41-23.26,23.26-23.26,23.26,10.41,23.26,23.26"/>
      <path class="cls-94" d="M209.92,231.14c0,12.85-10.41,23.26-23.26,23.26s-23.26-10.41-23.26-23.26,10.41-23.26,23.26-23.26,23.26,10.41,23.26,23.26"/>
      <path class="cls-93" d="M210.76,232.21c0,12.85-10.41,23.26-23.26,23.26s-23.26-10.41-23.26-23.26,10.41-23.26,23.26-23.26,23.26,10.41,23.26,23.26"/>
      <path class="cls-95" d="M211.6,233.28c0,12.85-10.41,23.26-23.26,23.26s-23.26-10.41-23.26-23.26,10.41-23.26,23.26-23.26,23.26,10.41,23.26,23.26"/>
      <path class="cls-96" d="M212.43,234.35c0,12.85-10.41,23.26-23.26,23.26s-23.26-10.41-23.26-23.26,10.41-23.26,23.26-23.26,23.26,10.41,23.26,23.26"/>
      <path class="cls-58" d="M213.26,235.43c0,12.85-10.41,23.26-23.26,23.26s-23.26-10.41-23.26-23.26,10.41-23.26,23.26-23.26,23.26,10.41,23.26,23.26"/>
      <path class="cls-75" d="M214.08,236.5c0,12.85-10.41,23.26-23.26,23.26s-23.26-10.41-23.26-23.26,10.41-23.26,23.26-23.26,23.26,10.41,23.26,23.26"/>
      <path class="cls-76" d="M214.91,237.57c0,12.85-10.41,23.26-23.26,23.26s-23.26-10.41-23.26-23.26,10.41-23.26,23.26-23.26,23.26,10.41,23.26,23.26"/>
      <path class="cls-47" d="M215.73,238.64c0,12.85-10.41,23.26-23.26,23.26s-23.26-10.41-23.26-23.26,10.41-23.26,23.26-23.26,23.26,10.41,23.26,23.26"/>
      <path class="cls-47" d="M216.54,239.71c0,12.85-10.41,23.26-23.26,23.26s-23.26-10.41-23.26-23.26,10.41-23.26,23.26-23.26,23.26,10.41,23.26,23.26"/>
      <path class="cls-50" d="M217.35,240.78c0,12.85-10.41,23.26-23.26,23.26s-23.26-10.41-23.26-23.26,10.41-23.26,23.26-23.26,23.26,10.41,23.26,23.26"/>
      <path class="cls-49" d="M218.16,241.85c0,12.85-10.41,23.26-23.26,23.26s-23.26-10.41-23.26-23.26,10.41-23.26,23.26-23.26,23.26,10.41,23.26,23.26"/>
      <path class="cls-53" d="M218.96,242.92c0,12.85-10.41,23.26-23.26,23.26s-23.26-10.41-23.26-23.26,10.41-23.26,23.26-23.26,23.26,10.41,23.26,23.26"/>
      <path class="cls-52" d="M219.76,243.99c0,12.85-10.41,23.26-23.26,23.26s-23.26-10.41-23.26-23.26,10.41-23.26,23.26-23.26,23.26,10.41,23.26,23.26"/>
      <path class="cls-31" d="M220.56,245.06c0,12.85-10.41,23.26-23.26,23.26s-23.26-10.41-23.26-23.26,10.41-23.26,23.26-23.26,23.26,10.41,23.26,23.26"/>
      <path class="cls-32" d="M221.35,246.13c0,12.85-10.41,23.26-23.26,23.26s-23.26-10.41-23.26-23.26,10.41-23.26,23.26-23.26,23.26,10.41,23.26,23.26"/>
      <path class="cls-42" d="M222.14,247.19c0,12.85-10.41,23.26-23.26,23.26s-23.26-10.41-23.26-23.26,10.41-23.26,23.26-23.26,23.26,10.41,23.26,23.26"/>
      <path class="cls-57" d="M222.93,248.26c0,12.85-10.41,23.26-23.26,23.26s-23.26-10.41-23.26-23.26,10.41-23.26,23.26-23.26,23.26,10.41,23.26,23.26"/>
      <path class="cls-33" d="M223.71,249.32c0,12.85-10.41,23.26-23.26,23.26s-23.26-10.41-23.26-23.26,10.41-23.26,23.26-23.26,23.26,10.41,23.26,23.26"/>
      <path class="cls-34" d="M224.49,250.38c0,12.85-10.41,23.26-23.26,23.26s-23.26-10.41-23.26-23.26,10.41-23.26,23.26-23.26,23.26,10.41,23.26,23.26"/>
      <path class="cls-71" d="M225.26,251.44c0,12.85-10.41,23.26-23.26,23.26s-23.26-10.41-23.26-23.26,10.41-23.26,23.26-23.26,23.26,10.41,23.26,23.26"/>
      <path class="cls-71" d="M226.03,252.5c0,12.85-10.41,23.26-23.26,23.26s-23.26-10.41-23.26-23.26,10.41-23.26,23.26-23.26,23.26,10.41,23.26,23.26"/>
      <path class="cls-104" d="M226.8,253.56c0,12.85-10.41,23.26-23.26,23.26s-23.26-10.41-23.26-23.26,10.41-23.26,23.26-23.26,23.26,10.41,23.26,23.26"/>
      <path class="cls-103" d="M227.56,254.61c0,12.85-10.41,23.26-23.26,23.26s-23.26-10.41-23.26-23.26,10.41-23.26,23.26-23.26,23.26,10.41,23.26,23.26"/>
      <path class="cls-106" d="M228.32,255.66c0,12.85-10.41,23.26-23.26,23.26s-23.26-10.41-23.26-23.26,10.41-23.26,23.26-23.26,23.26,10.41,23.26,23.26"/>
      <path class="cls-106" d="M229.08,256.71c0,12.85-10.41,23.26-23.26,23.26s-23.26-10.41-23.26-23.26,10.41-23.26,23.26-23.26,23.26,10.41,23.26,23.26"/>
      <path class="cls-105" d="M229.83,257.76c0,12.85-10.41,23.26-23.26,23.26s-23.26-10.41-23.26-23.26,10.41-23.26,23.26-23.26,23.26,10.41,23.26,23.26"/>
      <path class="cls-99" d="M230.58,258.8c0,12.85-10.41,23.26-23.26,23.26s-23.26-10.41-23.26-23.26,10.41-23.26,23.26-23.26,23.26,10.41,23.26,23.26"/>
      <path class="cls-99" d="M231.32,259.84c0,12.85-10.41,23.26-23.26,23.26s-23.26-10.41-23.26-23.26,10.41-23.26,23.26-23.26,23.26,10.41,23.26,23.26"/>
      <path class="cls-99" d="M232.06,260.88c0,12.85-10.41,23.26-23.26,23.26s-23.26-10.41-23.26-23.26,10.41-23.26,23.26-23.26,23.26,10.41,23.26,23.26"/>
      <path class="cls-100" d="M232.8,261.91c0,12.85-10.41,23.26-23.26,23.26s-23.26-10.41-23.26-23.26,10.41-23.26,23.26-23.26,23.26,10.41,23.26,23.26"/>
      <path class="cls-88" d="M233.53,262.95c0,12.85-10.41,23.26-23.26,23.26s-23.26-10.41-23.26-23.26,10.41-23.26,23.26-23.26,23.26,10.41,23.26,23.26"/>
      <path class="cls-89" d="M234.26,263.97c0,12.85-10.41,23.26-23.26,23.26s-23.26-10.41-23.26-23.26,10.41-23.26,23.26-23.26,23.26,10.41,23.26,23.26"/>
      <path class="cls-89" d="M234.99,265c0,12.85-10.41,23.26-23.26,23.26s-23.26-10.41-23.26-23.26,10.41-23.26,23.26-23.26,23.26,10.41,23.26,23.26"/>
      <path class="cls-101" d="M235.71,266.02c0,12.85-10.41,23.26-23.26,23.26s-23.26-10.41-23.26-23.26,10.41-23.26,23.26-23.26,23.26,10.41,23.26,23.26"/>
      <path class="cls-102" d="M236.43,267.04c0,12.85-10.41,23.26-23.26,23.26s-23.26-10.41-23.26-23.26,10.41-23.26,23.26-23.26,23.26,10.41,23.26,23.26"/>
      <path class="cls-91" d="M237.15,268.05c0,12.85-10.41,23.26-23.26,23.26s-23.26-10.41-23.26-23.26,10.41-23.26,23.26-23.26,23.26,10.41,23.26,23.26"/>
      <path class="cls-90" d="M237.86,269.06c0,12.85-10.41,23.26-23.26,23.26s-23.26-10.41-23.26-23.26,10.41-23.26,23.26-23.26,23.26,10.41,23.26,23.26"/>
      <path class="cls-92" d="M238.57,270.07c0,12.85-10.41,23.26-23.26,23.26s-23.26-10.41-23.26-23.26,10.41-23.26,23.26-23.26,23.26,10.41,23.26,23.26"/>
      <path class="cls-180" d="M239.27,271.07c0,12.85-10.41,23.26-23.26,23.26s-23.26-10.41-23.26-23.26,10.41-23.26,23.26-23.26,23.26,10.41,23.26,23.26"/>
      <path class="cls-179" d="M239.97,272.07c0,12.85-10.41,23.26-23.26,23.26s-23.26-10.41-23.26-23.26,10.41-23.26,23.26-23.26,23.26,10.41,23.26,23.26"/>
      <path class="cls-179" d="M240.67,273.06c0,12.85-10.41,23.26-23.26,23.26s-23.26-10.41-23.26-23.26,10.41-23.26,23.26-23.26,23.26,10.41,23.26,23.26"/>
      <path class="cls-181" d="M241.36,274.05c0,12.85-10.41,23.26-23.26,23.26s-23.26-10.41-23.26-23.26,10.41-23.26,23.26-23.26,23.26,10.41,23.26,23.26"/>
      <path class="cls-87" d="M242.05,275.04c0,12.85-10.41,23.26-23.26,23.26s-23.26-10.41-23.26-23.26,10.41-23.26,23.26-23.26,23.26,10.41,23.26,23.26"/>
      <path class="cls-98" d="M242.73,276.02c0,12.85-10.41,23.26-23.26,23.26s-23.26-10.41-23.26-23.26,10.41-23.26,23.26-23.26,23.26,10.41,23.26,23.26"/>
      <path class="cls-98" d="M243.42,276.99c0,12.85-10.41,23.26-23.26,23.26s-23.26-10.41-23.26-23.26,10.41-23.26,23.26-23.26,23.26,10.41,23.26,23.26"/>
      <path class="cls-54" d="M244.09,277.96c0,12.85-10.41,23.26-23.26,23.26s-23.26-10.41-23.26-23.26,10.41-23.26,23.26-23.26,23.26,10.41,23.26,23.26"/>
      <path class="cls-59" d="M244.77,278.92c0,12.85-10.41,23.26-23.26,23.26s-23.26-10.41-23.26-23.26,10.41-23.26,23.26-23.26,23.26,10.41,23.26,23.26"/>
      <path class="cls-55" d="M245.44,279.88c0,12.85-10.41,23.26-23.26,23.26s-23.26-10.41-23.26-23.26,10.41-23.26,23.26-23.26,23.26,10.41,23.26,23.26"/>
      <path class="cls-55" d="M246.1,280.84c0,12.85-10.41,23.26-23.26,23.26s-23.26-10.41-23.26-23.26,10.41-23.26,23.26-23.26,23.26,10.41,23.26,23.26"/>
      <path class="cls-60" d="M246.77,281.78c0,12.85-10.41,23.26-23.26,23.26s-23.26-10.41-23.26-23.26,10.41-23.26,23.26-23.26,23.26,10.41,23.26,23.26"/>
      <path class="cls-56" d="M247.43,282.73c0,12.85-10.41,23.26-23.26,23.26s-23.26-10.41-23.26-23.26,10.41-23.26,23.26-23.26,23.26,10.41,23.26,23.26"/>
    </g>
  </g>
</svg>