<?xml version="1.0" encoding="UTF-8"?>
<svg
  id="Layer_2"
  data-name="Layer 2"
  xmlns="http://www.w3.org/2000/svg"
  viewBox="0 0 439.02 102.1"
>
  <defs>
    <style>
      .cls-1 {
        fill: #f58c3a;
      }

      .cls-1, .cls-2, .cls-3, .cls-4, .cls-5, .cls-6, .cls-7, .cls-8, .cls-9, .cls-10, .cls-11, .cls-12, .cls-13, .cls-14, .cls-15, .cls-16, .cls-17, .cls-18, .cls-19, .cls-20, .cls-21, .cls-22, .cls-23, .cls-24, .cls-25, .cls-26, .cls-27, .cls-28, .cls-29, .cls-30, .cls-31, .cls-32, .cls-33, .cls-34, .cls-35, .cls-36, .cls-37, .cls-38, .cls-39, .cls-40, .cls-41, .cls-42, .cls-43, .cls-44, .cls-45, .cls-46, .cls-47, .cls-48, .cls-49, .cls-50, .cls-51, .cls-52, .cls-53, .cls-54, .cls-55, .cls-56, .cls-57, .cls-58, .cls-59, .cls-60, .cls-61, .cls-62, .cls-63, .cls-64, .cls-65, .cls-66, .cls-67, .cls-68, .cls-69, .cls-70, .cls-71, .cls-72, .cls-73, .cls-74, .cls-75, .cls-76, .cls-77, .cls-78, .cls-79, .cls-80, .cls-81, .cls-82, .cls-83, .cls-84, .cls-85, .cls-86, .cls-87, .cls-88, .cls-89, .cls-90, .cls-91, .cls-92, .cls-93, .cls-94, .cls-95, .cls-96, .cls-97, .cls-98, .cls-99, .cls-100, .cls-101, .cls-102, .cls-103, .cls-104, .cls-105, .cls-106, .cls-107, .cls-108, .cls-109, .cls-110, .cls-111, .cls-112, .cls-113, .cls-114, .cls-115, .cls-116, .cls-117, .cls-118, .cls-119, .cls-120, .cls-121, .cls-122, .cls-123, .cls-124, .cls-125, .cls-126, .cls-127, .cls-128, .cls-129, .cls-130, .cls-131, .cls-132, .cls-133, .cls-134, .cls-135, .cls-136, .cls-137, .cls-138, .cls-139, .cls-140, .cls-141, .cls-142, .cls-143, .cls-144, .cls-145, .cls-146, .cls-147, .cls-148, .cls-149, .cls-150, .cls-151, .cls-152, .cls-153, .cls-154, .cls-155, .cls-156, .cls-157, .cls-158, .cls-159, .cls-160, .cls-161, .cls-162, .cls-163, .cls-164, .cls-165, .cls-166, .cls-167, .cls-168, .cls-169, .cls-170, .cls-171, .cls-172, .cls-173, .cls-174, .cls-175, .cls-176, .cls-177, .cls-178, .cls-179, .cls-180, .cls-181, .cls-182, .cls-183, .cls-184, .cls-185, .cls-186, .cls-187, .cls-188, .cls-189, .cls-190, .cls-191, .cls-192, .cls-193, .cls-194, .cls-195, .cls-196, .cls-197, .cls-198, .cls-199, .cls-200, .cls-201, .cls-202, .cls-203, .cls-204, .cls-205, .cls-206, .cls-207, .cls-208, .cls-209, .cls-210, .cls-211, .cls-212, .cls-213, .cls-214, .cls-215, .cls-216, .cls-217, .cls-218, .cls-219, .cls-220, .cls-221, .cls-222, .cls-223, .cls-224, .cls-225, .cls-226, .cls-227, .cls-228, .cls-229, .cls-230, .cls-231, .cls-232, .cls-233, .cls-234, .cls-235, .cls-236, .cls-237, .cls-238, .cls-239, .cls-240, .cls-241, .cls-242, .cls-243, .cls-244, .cls-245, .cls-246, .cls-247, .cls-248, .cls-249, .cls-250, .cls-251, .cls-252, .cls-253, .cls-254, .cls-255, .cls-256, .cls-257, .cls-258, .cls-259, .cls-260, .cls-261, .cls-262, .cls-263, .cls-264, .cls-265, .cls-266, .cls-267, .cls-268, .cls-269, .cls-270, .cls-271, .cls-272, .cls-273, .cls-274, .cls-275, .cls-276, .cls-277, .cls-278, .cls-279, .cls-280, .cls-281, .cls-282, .cls-283, .cls-284, .cls-285, .cls-286, .cls-287, .cls-288, .cls-289, .cls-290, .cls-291, .cls-292, .cls-293, .cls-294, .cls-295, .cls-296, .cls-297, .cls-298, .cls-299, .cls-300, .cls-301, .cls-302, .cls-303, .cls-304, .cls-305, .cls-306, .cls-307, .cls-308, .cls-309, .cls-310, .cls-311, .cls-312 {
        stroke-width: 0px;
      }

      .cls-2 {
        fill: #f4ae44;
      }

      .cls-3 {
        fill: #f89d3d;
      }

      .cls-4 {
        fill: #f89f3e;
      }

      .cls-5 {
        fill: #f89e3e;
      }

      .cls-6 {
        fill: #f89e3d;
      }

      .cls-7 {
        fill: #f8a13e;
      }

      .cls-8 {
        fill: #f8a93f;
      }

      .cls-9 {
        fill: #f8a03f;
      }

      .cls-10 {
        fill: #f89b3d;
      }

      .cls-11 {
        fill: #f58a39;
      }

      .cls-12 {
        fill: #f58b3a;
      }

      .cls-13 {
        fill: #f58537;
      }

      .cls-14 {
        fill: #f58838;
      }

      .cls-15 {
        fill: #f58638;
      }

      .cls-16 {
        fill: #f58939;
      }

      .cls-17 {
        fill: #f3ae44;
      }

      .cls-18 {
        fill: #f7ae42;
      }

      .cls-19 {
        fill: #f9a83f;
      }

      .cls-20 {
        fill: #f9a83e;
      }

      .cls-21 {
        fill: #faac41;
      }

      .cls-22 {
        fill: #faaa3f;
      }

      .cls-23 {
        fill: #faab3f;
      }

      .cls-24 {
        fill: #f9ae42;
      }

      .cls-25 {
        fill: #f9ac42;
      }

      .cls-26 {
        fill: #f9a33e;
      }

      .cls-27 {
        fill: #f9a33f;
      }

      .cls-28 {
        fill: #f9a63e;
      }

      .cls-29 {
        fill: #f9a53f;
      }

      .cls-30 {
        fill: #f9a53e;
      }

      .cls-31 {
        fill: #4ba8c3;
      }

      .cls-32 {
        fill: #4ba8c4;
      }

      .cls-33 {
        fill: #48a8c5;
      }

      .cls-34 {
        fill: #48a8c7;
      }

      .cls-35 {
        fill: #5ca9b6;
      }

      .cls-36 {
        fill: #5ca9b5;
      }

      .cls-37 {
        fill: #5fa9b4;
      }

      .cls-38 {
        fill: #5ea9b5;
      }

      .cls-39 {
        fill: #74aaa6;
      }

      .cls-40 {
        fill: #74aaa5;
      }

      .cls-41 {
        fill: #75aaa4;
      }

      .cls-42 {
        fill: #4aa8c4;
      }

      .cls-43 {
        fill: #79aaa0;
      }

      .cls-44 {
        fill: #78a9a0;
      }

      .cls-45 {
        fill: #78aaa2;
      }

      .cls-46 {
        fill: #78aaa3;
      }

      .cls-47 {
        fill: #51a8bf;
      }

      .cls-48 {
        fill: #77aaa3;
      }

      .cls-49 {
        fill: #4fa8c1;
      }

      .cls-50 {
        fill: #4fa8c0;
      }

      .cls-51 {
        fill: #7aaaa0;
      }

      .cls-52 {
        fill: #4da8c1;
      }

      .cls-53 {
        fill: #4da8c2;
      }

      .cls-54 {
        fill: #2ba6db;
      }

      .cls-55 {
        fill: #28a6dd;
      }

      .cls-56 {
        fill: #28a6de;
      }

      .cls-57 {
        fill: #49a7c4;
      }

      .cls-58 {
        fill: #55a9bc;
      }

      .cls-59 {
        fill: #2aa6db;
      }

      .cls-60 {
        fill: #27a7df;
      }

      .cls-61 {
        fill: #5aa9b8;
      }

      .cls-62 {
        fill: #5aa9b9;
      }

      .cls-63 {
        fill: #61a9b2;
      }

      .cls-64 {
        fill: #62a9b3;
      }

      .cls-65 {
        fill: #63a9b2;
      }

      .cls-66 {
        fill: #6fa9a9;
      }

      .cls-67 {
        fill: #86a996;
      }

      .cls-68 {
        fill: #88aa95;
      }

      .cls-69 {
        fill: #9aab88;
      }

      .cls-70 {
        fill: #6da9ab;
      }

      .cls-71 {
        fill: #45a8c7;
      }

      .cls-72 {
        fill: #87a996;
      }

      .cls-73 {
        fill: #95aa8b;
      }

      .cls-74 {
        fill: #96aa8a;
      }

      .cls-75 {
        fill: #53a8bc;
      }

      .cls-76 {
        fill: #53a8be;
      }

      .cls-77 {
        fill: #89aa94;
      }

      .cls-78 {
        fill: #71a9a8;
      }

      .cls-79 {
        fill: #71a9a7;
      }

      .cls-80 {
        fill: #a2ac83;
      }

      .cls-81 {
        fill: #9bab88;
      }

      .cls-82 {
        fill: #6ea9aa;
      }

      .cls-83 {
        fill: #6ea9a9;
      }

      .cls-84 {
        fill: #a3ab81;
      }

      .cls-85 {
        fill: #a3ab83;
      }

      .cls-86 {
        fill: #94aa8b;
      }

      .cls-87 {
        fill: #2ea6d8;
      }

      .cls-88 {
        fill: #39a8d0;
      }

      .cls-89 {
        fill: #39a8d1;
      }

      .cls-90 {
        fill: #33a7d4;
      }

      .cls-91 {
        fill: #33a6d3;
      }

      .cls-92 {
        fill: #33a6d4;
      }

      .cls-93 {
        fill: #58a9ba;
      }

      .cls-94 {
        fill: #58a9b9;
      }

      .cls-95 {
        fill: #56a9bb;
      }

      .cls-96 {
        fill: #56a9bc;
      }

      .cls-97 {
        fill: #83a998;
      }

      .cls-98 {
        fill: #2ca6d9;
      }

      .cls-99 {
        fill: #3da7cd;
      }

      .cls-100 {
        fill: #3ca8ce;
      }

      .cls-101 {
        fill: #36a8d2;
      }

      .cls-102 {
        fill: #35a8d2;
      }

      .cls-103 {
        fill: #42a8ca;
      }

      .cls-104 {
        fill: #43a8c9;
      }

      .cls-105 {
        fill: #151741;
      }

      .cls-106 {
        fill: #40a8cc;
      }

      .cls-107 {
        fill: #40a8ca;
      }

      .cls-108 {
        fill: #a8ab7e;
      }

      .cls-109 {
        fill: #c4ac69;
      }

      .cls-110 {
        fill: #d1ad5f;
      }

      .cls-111 {
        fill: #d2ad5e;
      }

      .cls-112 {
        fill: #cbac64;
      }

      .cls-113 {
        fill: #ddad56;
      }

      .cls-114 {
        fill: #deae55;
      }

      .cls-115 {
        fill: #c9ac66;
      }

      .cls-116 {
        fill: #d0ad60;
      }

      .cls-117 {
        fill: #caac64;
      }

      .cls-118 {
        fill: #caac65;
      }

      .cls-119 {
        fill: #c5ac68;
      }

      .cls-120 {
        fill: #ccad62;
      }

      .cls-121 {
        fill: #c3ad6a;
      }

      .cls-122 {
        fill: #c3ac6a;
      }

      .cls-123 {
        fill: #d9ae59;
      }

      .cls-124 {
        fill: #b0ac79;
      }

      .cls-125 {
        fill: #b0ac78;
      }

      .cls-126 {
        fill: #e0ae54;
      }

      .cls-127 {
        fill: #d7ae5a;
      }

      .cls-128 {
        fill: #d7ad5a;
      }

      .cls-129 {
        fill: #adab7a;
      }

      .cls-130 {
        fill: #c6ac67;
      }

      .cls-131 {
        fill: #dbae57;
      }

      .cls-132 {
        fill: #e2ad53;
      }

      .cls-133 {
        fill: #dbad57;
      }

      .cls-134 {
        fill: #e1ad53;
      }

      .cls-135 {
        fill: #c8ac67;
      }

      .cls-136 {
        fill: #dfad54;
      }

      .cls-137 {
        fill: #dfae54;
      }

      .cls-138 {
        fill: #d6ad5c;
      }

      .cls-139 {
        fill: #d4ad5d;
      }

      .cls-140 {
        fill: #d3ad5d;
      }

      .cls-141 {
        fill: #daad58;
      }

      .cls-142 {
        fill: #bdad70;
      }

      .cls-143 {
        fill: #bdac6e;
      }

      .cls-144 {
        fill: #bead6e;
      }

      .cls-145 {
        fill: #a4ab80;
      }

      .cls-146 {
        fill: #abac7d;
      }

      .cls-147 {
        fill: #bfac6e;
      }

      .cls-148 {
        fill: #aaab7d;
      }

      .cls-149 {
        fill: #a5ab80;
      }

      .cls-150 {
        fill: #b2ac76;
      }

      .cls-151 {
        fill: #aeac7a;
      }

      .cls-152 {
        fill: #b1ac77;
      }

      .cls-153 {
        fill: #a7ab7f;
      }

      .cls-154 {
        fill: #bbac70;
      }

      .cls-155 {
        fill: #cdac62;
      }

      .cls-156 {
        fill: #acab7b;
      }

      .cls-157 {
        fill: #a6ab80;
      }

      .cls-158 {
        fill: #a9ab7d;
      }

      .cls-159 {
        fill: #cfad61;
      }

      .cls-160 {
        fill: #cead61;
      }

      .cls-161 {
        fill: #b7ac73;
      }

      .cls-162 {
        fill: #92aa8c;
      }

      .cls-163 {
        fill: #b4ac74;
      }

      .cls-164 {
        fill: #b4ac75;
      }

      .cls-165 {
        fill: #85aa97;
      }

      .cls-166 {
        fill: #c1ad6d;
      }

      .cls-167 {
        fill: #8aaa94;
      }

      .cls-168 {
        fill: #b8ac72;
      }

      .cls-169 {
        fill: #9dab85;
      }

      .cls-170 {
        fill: #8baa93;
      }

      .cls-171 {
        fill: #9cab86;
      }

      .cls-172 {
        fill: #b9ac71;
      }

      .cls-173 {
        fill: #c2ad6b;
      }

      .cls-174 {
        fill: #91aa8d;
      }

      .cls-175 {
        fill: #8faa8e;
      }

      .cls-176 {
        fill: #90aa8d;
      }

      .cls-177 {
        fill: #b5ab73;
      }

      .cls-178 {
        fill: #72a9a6;
      }

      .cls-179 {
        fill: #baac70;
      }

      .cls-180 {
        fill: #32a6d6;
      }

      .cls-181 {
        fill: #32a6d5;
      }

      .cls-182 {
        fill: #2fa6d6;
      }

      .cls-183 {
        fill: #8daa91;
      }

      .cls-184 {
        fill: #8daa90;
      }

      .cls-185 {
        fill: #8da990;
      }

      .cls-186 {
        fill: #8ea88f;
      }

      .cls-187 {
        fill: #98aa87;
      }

      .cls-188 {
        fill: #7daa9d;
      }

      .cls-189 {
        fill: #97aa89;
      }

      .cls-190 {
        fill: #6ba9ac;
      }

      .cls-191 {
        fill: #7ca99e;
      }

      .cls-192 {
        fill: #7ca99d;
      }

      .cls-193 {
        fill: #9fac85;
      }

      .cls-194 {
        fill: #a0ab83;
      }

      .cls-195 {
        fill: #9eac85;
      }

      .cls-196 {
        fill: #84a997;
      }

      .cls-197 {
        fill: #93a98b;
      }

      .cls-198 {
        fill: #7faa9b;
      }

      .cls-199 {
        fill: #6aa9ad;
      }

      .cls-200 {
        fill: #80aa9a;
      }

      .cls-201 {
        fill: #80a999;
      }

      .cls-202 {
        fill: #7ea99d;
      }

      .cls-203 {
        fill: #64a8b0;
      }

      .cls-204 {
        fill: #81aa99;
      }

      .cls-205 {
        fill: #67a9ae;
      }

      .cls-206 {
        fill: #67a8ad;
      }

      .cls-207 {
        fill: #64a9b0;
      }

      .cls-208 {
        fill: #ef4d2a;
      }

      .cls-209 {
        fill: #ef502c;
      }

      .cls-210 {
        fill: #ef512c;
      }

      .cls-211 {
        fill: #ef4e2a;
      }

      .cls-212 {
        fill: #ef532b;
      }

      .cls-213 {
        fill: #ef4f2c;
      }

      .cls-214 {
        fill: #ef4928;
      }

      .cls-215 {
        fill: #ef4929;
      }

      .cls-216 {
        fill: #f37937;
      }

      .cls-217 {
        fill: #f26c36;
      }

      .cls-218 {
        fill: #f37a37;
      }

      .cls-219 {
        fill: #f37b36;
      }

      .cls-220 {
        fill: #f37736;
      }

      .cls-221 {
        fill: #f2ae45;
      }

      .cls-222 {
        fill: #f37536;
      }

      .cls-223 {
        fill: #f37636;
      }

      .cls-224 {
        fill: #f37837;
      }

      .cls-225 {
        fill: #f37d37;
      }

      .cls-226 {
        fill: #f37c36;
      }

      .cls-227 {
        fill: #f48137;
      }

      .cls-228 {
        fill: #f48437;
      }

      .cls-229 {
        fill: #f47f36;
      }

      .cls-230 {
        fill: #f47e37;
      }

      .cls-231 {
        fill: #eeae4a;
      }

      .cls-232 {
        fill: #f0592d;
      }

      .cls-233 {
        fill: #f0592e;
      }

      .cls-234 {
        fill: #f05c2f;
      }

      .cls-235 {
        fill: #f05b2f;
      }

      .cls-236 {
        fill: #f6923c;
      }

      .cls-237 {
        fill: #f6913c;
      }

      .cls-238 {
        fill: #e7ad4f;
      }

      .cls-239 {
        fill: #e9ae4c;
      }

      .cls-240 {
        fill: #f0562d;
      }

      .cls-241 {
        fill: #f05a2f;
      }

      .cls-242 {
        fill: #f0552d;
      }

      .cls-243 {
        fill: #f0582d;
      }

      .cls-244 {
        fill: #f0572d;
      }

      .cls-245 {
        fill: #e3ae52;
      }

      .cls-246 {
        fill: #e5ad50;
      }

      .cls-247 {
        fill: #f16933;
      }

      .cls-248 {
        fill: #f0ae48;
      }

      .cls-249 {
        fill: #f16632;
      }

      .cls-250 {
        fill: #f16b34;
      }

      .cls-251 {
        fill: #f16631;
      }

      .cls-252 {
        fill: #f16131;
      }

      .cls-253 {
        fill: #f16231;
      }

      .cls-254 {
        fill: #f16331;
      }

      .cls-255 {
        fill: #f16a34;
      }

      .cls-256 {
        fill: #f16531;
      }

      .cls-257 {
        fill: #f16833;
      }

      .cls-258 {
        fill: #ed4328;
      }

      .cls-259 {
        fill: #e3ad51;
      }

      .cls-260 {
        fill: #e6ae4f;
      }

      .cls-261 {
        fill: #edae4a;
      }

      .cls-262 {
        fill: #ef522b;
      }

      .cls-263 {
        fill: #ef4b2a;
      }

      .cls-264 {
        fill: #ef4a2a;
      }

      .cls-265 {
        fill: #ebae4a;
      }

      .cls-266 {
        fill: #f05e2f;
      }

      .cls-267 {
        fill: #f06031;
      }

      .cls-268 {
        fill: #f05d2f;
      }

      .cls-269 {
        fill: #f05f30;
      }

      .cls-270 {
        fill: #ee4427;
      }

      .cls-271 {
        fill: #efae49;
      }

      .cls-272 {
        fill: #ee3f27;
      }

      .cls-273 {
        fill: #ee4628;
      }

      .cls-274 {
        fill: #ee4828;
      }

      .cls-275 {
        fill: #ee4527;
      }

      .cls-276 {
        fill: #ee3e28;
      }

      .cls-277 {
        fill: #ee3f28;
      }

      .cls-278 {
        fill: #ee4028;
      }

      .cls-279 {
        fill: #ee4728;
      }

      .cls-280 {
        fill: #ee4328;
      }

      .cls-281 {
        fill: #f26b35;
      }

      .cls-282 {
        fill: #ecaf4a;
      }

      .cls-283 {
        fill: #f27436;
      }

      .cls-284 {
        fill: #f27136;
      }

      .cls-285 {
        fill: #f1ae45;
      }

      .cls-286 {
        fill: #f1ae46;
      }

      .cls-287 {
        fill: #f27036;
      }

      .cls-288 {
        fill: #f27336;
      }

      .cls-289 {
        fill: #f26d35;
      }

      .cls-290 {
        fill: #f26e35;
      }

      .cls-291 {
        fill: #f27236;
      }

      .cls-292 {
        fill: #f26f35;
      }

      .cls-293 {
        fill: #f6ae42;
      }

      .cls-294 {
        fill: #f48036;
      }

      .cls-295 {
        fill: #f48237;
      }

      .cls-296 {
        fill: #f48337;
      }

      .cls-297 {
        fill: #e8ae4d;
      }

      .cls-298 {
        fill: #f5ae42;
      }

      .cls-299 {
        fill: #f7993e;
      }

      .cls-300 {
        fill: #f7963d;
      }

      .cls-301 {
        fill: #f79a3e;
      }

      .cls-302 {
        fill: #f7953e;
      }

      .cls-303 {
        fill: #f7983d;
      }

      .cls-304 {
        fill: #f7973e;
      }

      .cls-305 {
        fill: #eaae4a;
      }

      .cls-306 {
        fill: #f6943e;
      }

      .cls-307 {
        fill: #f6943c;
      }

      .cls-308 {
        fill: #f68d3a;
      }

      .cls-309 {
        fill: #f68e3b;
      }

      .cls-310 {
        fill: #f68f3b;
      }

      .cls-311 {
        fill: #66a9b0;
      }

      .cls-312 {
        fill: #69a8ad;
      }
    </style>
  </defs>
  <g id="Layer_1-2" data-name="Layer 1">
    <g>
      <path class="cls-105" d="M165.99,59.66c-.78-22.87-20.53-41.01-43.96-39.15-19.88,1.57-35.88,17.73-37.29,37.61-1.68,23.75,17.17,43.63,40.58,43.63,9.17,0,17.65-3.05,24.45-8.19,0,4.47,3.62,8.09,8.09,8.09h.05c4.47,0,8.09-3.62,8.09-8.09v-32.49c0-.47-.02-.93-.03-1.4M127.83,85.39c-15.44,1.55-28.38-11.39-26.83-26.83,1.15-11.43,10.39-20.68,21.82-21.82,15.44-1.54,28.38,11.39,26.83,26.83-1.15,11.43-10.39,20.68-21.82,21.82"/>
      <path class="cls-105" d="M259.07,59.66c-.78-22.87-20.53-41.01-43.96-39.15-19.88,1.57-35.88,17.73-37.29,37.61-1.68,23.75,17.17,43.63,40.58,43.63,9.17,0,17.65-3.05,24.45-8.19,0,4.47,3.62,8.09,8.09,8.09h.05c4.47,0,8.09-3.62,8.09-8.09v-32.49c0-.47-.02-.93-.03-1.4M220.91,85.39c-15.44,1.55-28.38-11.39-26.83-26.83,1.15-11.43,10.39-20.68,21.82-21.82,15.44-1.54,28.38,11.39,26.83,26.83-1.15,11.43-10.39,20.68-21.82,21.82"/>
      <path class="cls-105" d="M307.66,28.61h0c0,4.48-3.63,8.12-8.12,8.12h-1.86c-5.99,0-10.88,4.87-10.88,10.88v45.92c0,4.48-3.63,8.11-8.11,8.11s-8.11-3.63-8.11-8.11v-45.92c0-14.96,12.16-27.12,27.11-27.12h1.86c4.48,0,8.12,3.63,8.12,8.12"/>
      <path class="cls-105" d="M346.15,85.39c-5.97,0-10.81-4.84-10.81-10.81v-38.03h12.63c4.48,0,8.12-3.63,8.12-8.12s-3.63-8.12-8.12-8.12h-12.63v-12.08c0-4.45-3.61-8.06-8.06-8.06s-8.06,3.61-8.06,8.06v66.35c0,14.89,12.07,26.95,26.95,26.95h1.68c4.45,0,8.07-3.61,8.07-8.07s-3.61-8.07-8.07-8.07h-1.69Z"/>
      <path class="cls-105" d="M31.53,8.38v34.14c-.1-.04-.22-.07-.32-.12-.48-.2-.97-.35-1.48-.45-.13-.04-.27-.1-.42-.13-.13-.03-.28-.09-.42-.12-.14-.04-.27-.09-.42-.12-.14-.03-.27-.09-.42-.1-.15-.04-.29-.09-.43-.12-.15-.03-.28-.07-.42-.1-.14-.03-.29-.06-.43-.09-.15-.04-.29-.07-.43-.09-.14-.04-.27-.07-.43-.09-.13-.05-.27-.06-.42-.09-.14-.03-.29-.06-.43-.07-.14-.05-.29-.06-.45-.07-.13-.03-.29-.04-.43-.07-.15-.03-.29-.04-.43-.06-.15-.03-.29-.04-.43-.06-.52-.12-1.05-.17-1.6-.17h-.02c-.13,0-.26-.04-.4-.04-.03,0-.06.02-.09.02-.12,0-.22-.03-.33-.03-.06,0-.1.01-.16.01-.09-.01-.17-.03-.26-.03s-.16.01-.23.01-.13-.01-.2-.01c-.1,0-.19.03-.29.03-.04,0-.1-.01-.15-.01-.12,0-.23.03-.36.03h-.07c-.14,0-.27.03-.42.04h-.02c-.56,0-1.1.06-1.61.17-.17.03-.35.04-.5.07-.16.03-.33.04-.49.09-.17.03-.33.06-.5.1-.16.03-.32.07-.46.12V8.38C15.18,3.86,18.83.18,23.36.18s8.18,3.67,8.18,8.19"/>
      <path class="cls-276" d="M86.3,7.76c0,4.29-3.47,7.76-7.76,7.76s-7.76-3.47-7.76-7.76,3.47-7.76,7.76-7.76,7.76,3.47,7.76,7.76"/>
      <path class="cls-277" d="M86.05,8.43c0,4.29-3.47,7.76-7.76,7.76s-7.76-3.47-7.76-7.76,3.47-7.76,7.76-7.76,7.76,3.47,7.76,7.76"/>
      <path class="cls-272" d="M85.79,9.1c0,4.29-3.47,7.76-7.76,7.76s-7.76-3.47-7.76-7.76,3.47-7.76,7.76-7.76,7.76,3.47,7.76,7.76"/>
      <path class="cls-278" d="M85.53,9.78c0,4.29-3.47,7.76-7.76,7.76s-7.76-3.47-7.76-7.76,3.47-7.76,7.76-7.76,7.76,3.47,7.76,7.76"/>
      <path class="cls-258" d="M85.26,10.46c0,4.29-3.47,7.76-7.76,7.76s-7.76-3.47-7.76-7.76,3.47-7.76,7.76-7.76,7.76,3.47,7.76,7.76"/>
      <path class="cls-280" d="M84.98,11.15c0,4.29-3.47,7.76-7.76,7.76s-7.76-3.47-7.76-7.76,3.47-7.76,7.76-7.76,7.76,3.47,7.76,7.76"/>
      <path class="cls-270" d="M84.69,11.84c0,4.29-3.47,7.76-7.76,7.76s-7.76-3.47-7.76-7.76,3.47-7.76,7.76-7.76,7.76,3.47,7.76,7.76"/>
      <path class="cls-275" d="M84.39,12.54c0,4.29-3.47,7.76-7.76,7.76s-7.76-3.47-7.76-7.76,3.47-7.76,7.76-7.76,7.76,3.47,7.76,7.76"/>
      <path class="cls-273" d="M84.09,13.25c0,4.29-3.47,7.76-7.76,7.76s-7.76-3.47-7.76-7.76,3.47-7.76,7.76-7.76,7.76,3.47,7.76,7.76"/>
      <path class="cls-279" d="M83.77,13.96c0,4.29-3.47,7.76-7.76,7.76s-7.76-3.47-7.76-7.76,3.47-7.76,7.76-7.76,7.76,3.47,7.76,7.76"/>
      <path class="cls-274" d="M83.45,14.67c0,4.29-3.47,7.76-7.76,7.76s-7.76-3.47-7.76-7.76,3.47-7.76,7.76-7.76,7.76,3.47,7.76,7.76"/>
      <path class="cls-214" d="M83.12,15.39c0,4.29-3.47,7.76-7.76,7.76s-7.76-3.47-7.76-7.76,3.47-7.76,7.76-7.76,7.76,3.47,7.76,7.76"/>
      <path class="cls-215" d="M82.78,16.11c0,4.29-3.47,7.76-7.76,7.76s-7.76-3.47-7.76-7.76,3.47-7.76,7.76-7.76,7.76,3.47,7.76,7.76"/>
      <path class="cls-264" d="M82.44,16.83c0,4.29-3.47,7.76-7.76,7.76s-7.76-3.47-7.76-7.76,3.47-7.76,7.76-7.76,7.76,3.47,7.76,7.76"/>
      <path class="cls-263" d="M82.08,17.56c0,4.29-3.47,7.76-7.76,7.76s-7.76-3.47-7.76-7.76,3.47-7.76,7.76-7.76,7.76,3.47,7.76,7.76"/>
      <path class="cls-208" d="M81.72,18.29c0,4.29-3.47,7.76-7.76,7.76s-7.76-3.47-7.76-7.76,3.47-7.76,7.76-7.76,7.76,3.47,7.76,7.76"/>
      <path class="cls-211" d="M81.35,19.03c0,4.29-3.47,7.76-7.76,7.76s-7.76-3.47-7.76-7.76,3.47-7.76,7.76-7.76,7.76,3.47,7.76,7.76"/>
      <path class="cls-213" d="M80.97,19.76c0,4.29-3.47,7.76-7.76,7.76s-7.76-3.47-7.76-7.76,3.47-7.76,7.76-7.76,7.76,3.47,7.76,7.76"/>
      <path class="cls-209" d="M80.58,20.5c0,4.29-3.47,7.76-7.76,7.76s-7.76-3.47-7.76-7.76,3.47-7.76,7.76-7.76,7.76,3.47,7.76,7.76"/>
      <path class="cls-210" d="M80.19,21.24c0,4.29-3.47,7.76-7.76,7.76s-7.76-3.47-7.76-7.76,3.47-7.76,7.76-7.76,7.76,3.47,7.76,7.76"/>
      <path class="cls-262" d="M79.79,21.99c0,4.29-3.47,7.76-7.76,7.76s-7.76-3.47-7.76-7.76,3.47-7.76,7.76-7.76,7.76,3.47,7.76,7.76"/>
      <path class="cls-212" d="M79.38,22.74c0,4.29-3.47,7.76-7.76,7.76s-7.76-3.47-7.76-7.76,3.47-7.76,7.76-7.76,7.76,3.47,7.76,7.76"/>
      <path class="cls-242" d="M78.96,23.48c0,4.29-3.47,7.76-7.76,7.76s-7.76-3.47-7.76-7.76,3.47-7.76,7.76-7.76,7.76,3.47,7.76,7.76"/>
      <path class="cls-240" d="M78.53,24.23c0,4.29-3.47,7.76-7.76,7.76s-7.76-3.47-7.76-7.76,3.47-7.76,7.76-7.76,7.76,3.47,7.76,7.76"/>
      <path class="cls-244" d="M78.1,24.98c0,4.29-3.47,7.76-7.76,7.76s-7.76-3.47-7.76-7.76,3.47-7.76,7.76-7.76,7.76,3.47,7.76,7.76"/>
      <path class="cls-243" d="M77.66,25.73c0,4.29-3.47,7.76-7.76,7.76s-7.76-3.47-7.76-7.76,3.47-7.76,7.76-7.76,7.76,3.47,7.76,7.76"/>
      <path class="cls-232" d="M77.21,26.49c0,4.29-3.47,7.76-7.76,7.76s-7.76-3.47-7.76-7.76,3.47-7.76,7.76-7.76,7.76,3.47,7.76,7.76"/>
      <path class="cls-233" d="M76.75,27.24c0,4.29-3.47,7.76-7.76,7.76s-7.76-3.47-7.76-7.76,3.47-7.76,7.76-7.76,7.76,3.47,7.76,7.76"/>
      <path class="cls-241" d="M76.29,27.99c0,4.29-3.47,7.76-7.76,7.76s-7.76-3.47-7.76-7.76,3.47-7.76,7.76-7.76,7.76,3.47,7.76,7.76"/>
      <path class="cls-241" d="M75.82,28.75c0,4.29-3.47,7.76-7.76,7.76s-7.76-3.47-7.76-7.76,3.47-7.76,7.76-7.76,7.76,3.47,7.76,7.76"/>
      <path class="cls-235" d="M75.34,29.5c0,4.29-3.47,7.76-7.76,7.76s-7.76-3.47-7.76-7.76,3.47-7.76,7.76-7.76,7.76,3.47,7.76,7.76"/>
      <path class="cls-234" d="M74.85,30.26c0,4.29-3.47,7.76-7.76,7.76s-7.76-3.47-7.76-7.76,3.47-7.76,7.76-7.76,7.76,3.47,7.76,7.76"/>
      <path class="cls-268" d="M74.36,31.01c0,4.29-3.47,7.76-7.76,7.76s-7.76-3.47-7.76-7.76,3.47-7.76,7.76-7.76,7.76,3.47,7.76,7.76"/>
      <path class="cls-266" d="M73.86,31.76c0,4.29-3.47,7.76-7.76,7.76s-7.76-3.47-7.76-7.76,3.47-7.76,7.76-7.76,7.76,3.47,7.76,7.76"/>
      <path class="cls-269" d="M73.35,32.51c0,4.29-3.47,7.76-7.76,7.76s-7.76-3.47-7.76-7.76,3.47-7.76,7.76-7.76,7.76,3.47,7.76,7.76"/>
      <path class="cls-267" d="M72.83,33.26c0,4.29-3.47,7.76-7.76,7.76s-7.76-3.47-7.76-7.76,3.47-7.76,7.76-7.76,7.76,3.47,7.76,7.76"/>
      <path class="cls-252" d="M72.31,34.01c0,4.29-3.47,7.76-7.76,7.76s-7.76-3.47-7.76-7.76,3.47-7.76,7.76-7.76,7.76,3.47,7.76,7.76"/>
      <path class="cls-253" d="M71.78,34.76c0,4.29-3.47,7.76-7.76,7.76s-7.76-3.47-7.76-7.76,3.47-7.76,7.76-7.76,7.76,3.47,7.76,7.76"/>
      <path class="cls-254" d="M71.24,35.51c0,4.29-3.47,7.76-7.76,7.76s-7.76-3.47-7.76-7.76,3.47-7.76,7.76-7.76,7.76,3.47,7.76,7.76"/>
      <path class="cls-256" d="M70.69,36.25c0,4.29-3.47,7.76-7.76,7.76s-7.76-3.47-7.76-7.76,3.47-7.76,7.76-7.76,7.76,3.47,7.76,7.76"/>
      <path class="cls-251" d="M70.14,36.99c0,4.29-3.47,7.76-7.76,7.76s-7.76-3.47-7.76-7.76,3.47-7.76,7.76-7.76,7.76,3.47,7.76,7.76"/>
      <path class="cls-249" d="M69.58,37.73c0,4.29-3.47,7.76-7.76,7.76s-7.76-3.47-7.76-7.76,3.47-7.76,7.76-7.76,7.76,3.47,7.76,7.76"/>
      <path class="cls-257" d="M69.01,38.47c0,4.29-3.47,7.76-7.76,7.76s-7.76-3.47-7.76-7.76,3.47-7.76,7.76-7.76,7.76,3.47,7.76,7.76"/>
      <path class="cls-247" d="M68.44,39.2c0,4.29-3.47,7.76-7.76,7.76s-7.76-3.47-7.76-7.76,3.47-7.76,7.76-7.76,7.76,3.47,7.76,7.76"/>
      <path class="cls-255" d="M67.86,39.93c0,4.29-3.47,7.76-7.76,7.76s-7.76-3.47-7.76-7.76,3.47-7.76,7.76-7.76,7.76,3.47,7.76,7.76"/>
      <path class="cls-250" d="M67.27,40.66c0,4.29-3.47,7.76-7.76,7.76s-7.76-3.47-7.76-7.76,3.47-7.76,7.76-7.76,7.76,3.47,7.76,7.76"/>
      <path class="cls-281" d="M66.67,41.38c0,4.29-3.47,7.76-7.76,7.76s-7.76-3.47-7.76-7.76,3.47-7.76,7.76-7.76,7.76,3.47,7.76,7.76"/>
      <path class="cls-217" d="M66.07,42.1c0,4.29-3.47,7.76-7.76,7.76s-7.76-3.47-7.76-7.76,3.47-7.76,7.76-7.76,7.76,3.47,7.76,7.76"/>
      <path class="cls-289" d="M65.46,42.82c0,4.29-3.47,7.76-7.76,7.76s-7.76-3.47-7.76-7.76,3.47-7.76,7.76-7.76,7.76,3.47,7.76,7.76"/>
      <path class="cls-290" d="M64.84,43.53c0,4.29-3.47,7.76-7.76,7.76s-7.76-3.47-7.76-7.76,3.47-7.76,7.76-7.76,7.76,3.47,7.76,7.76"/>
      <path class="cls-292" d="M64.22,44.24c0,4.29-3.47,7.76-7.76,7.76s-7.76-3.47-7.76-7.76,3.47-7.76,7.76-7.76,7.76,3.47,7.76,7.76"/>
      <path class="cls-287" d="M63.59,44.94c0,4.29-3.47,7.76-7.76,7.76s-7.76-3.47-7.76-7.76,3.47-7.76,7.76-7.76,7.76,3.47,7.76,7.76"/>
      <path class="cls-284" d="M62.95,45.64c0,4.29-3.47,7.76-7.76,7.76s-7.76-3.47-7.76-7.76,3.47-7.76,7.76-7.76,7.76,3.47,7.76,7.76"/>
      <path class="cls-291" d="M62.31,46.33c0,4.29-3.47,7.76-7.76,7.76s-7.76-3.47-7.76-7.76,3.47-7.76,7.76-7.76,7.76,3.47,7.76,7.76"/>
      <path class="cls-288" d="M61.66,47.02c0,4.29-3.47,7.76-7.76,7.76s-7.76-3.47-7.76-7.76,3.47-7.76,7.76-7.76,7.76,3.47,7.76,7.76"/>
      <path class="cls-283" d="M61,47.7c0,4.29-3.47,7.76-7.76,7.76s-7.76-3.47-7.76-7.76,3.47-7.76,7.76-7.76,7.76,3.47,7.76,7.76"/>
      <path class="cls-222" d="M60.34,48.38c0,4.29-3.47,7.76-7.76,7.76s-7.76-3.47-7.76-7.76,3.47-7.76,7.76-7.76,7.76,3.47,7.76,7.76"/>
      <path class="cls-223" d="M59.67,49.05c0,4.29-3.47,7.76-7.76,7.76s-7.76-3.47-7.76-7.76,3.47-7.76,7.76-7.76,7.76,3.47,7.76,7.76"/>
      <path class="cls-223" d="M58.99,49.72c0,4.29-3.47,7.76-7.76,7.76s-7.76-3.47-7.76-7.76,3.47-7.76,7.76-7.76,7.76,3.47,7.76,7.76"/>
      <path class="cls-220" d="M58.31,50.37c0,4.29-3.47,7.76-7.76,7.76s-7.76-3.47-7.76-7.76,3.47-7.76,7.76-7.76,7.76,3.47,7.76,7.76"/>
      <path class="cls-224" d="M57.62,51.03c0,4.29-3.47,7.76-7.76,7.76s-7.76-3.47-7.76-7.76,3.47-7.76,7.76-7.76,7.76,3.47,7.76,7.76"/>
      <path class="cls-216" d="M56.92,51.67c0,4.29-3.47,7.76-7.76,7.76s-7.76-3.47-7.76-7.76,3.47-7.76,7.76-7.76,7.76,3.47,7.76,7.76"/>
      <path class="cls-218" d="M56.22,52.31c0,4.29-3.47,7.76-7.76,7.76s-7.76-3.47-7.76-7.76,3.47-7.76,7.76-7.76,7.76,3.47,7.76,7.76"/>
      <path class="cls-219" d="M55.51,52.94c0,4.29-3.47,7.76-7.76,7.76s-7.76-3.47-7.76-7.76,3.47-7.76,7.76-7.76,7.76,3.47,7.76,7.76"/>
      <path class="cls-226" d="M54.79,53.56c0,4.29-3.47,7.76-7.76,7.76s-7.76-3.47-7.76-7.76,3.47-7.76,7.76-7.76,7.76,3.47,7.76,7.76"/>
      <path class="cls-225" d="M54.07,54.18c0,4.29-3.47,7.76-7.76,7.76s-7.76-3.47-7.76-7.76,3.47-7.76,7.76-7.76,7.76,3.47,7.76,7.76"/>
      <path class="cls-230" d="M53.34,54.79c0,4.29-3.47,7.76-7.76,7.76s-7.76-3.47-7.76-7.76,3.47-7.76,7.76-7.76,7.76,3.47,7.76,7.76"/>
      <path class="cls-229" d="M52.61,55.39c0,4.29-3.47,7.76-7.76,7.76s-7.76-3.47-7.76-7.76,3.47-7.76,7.76-7.76,7.76,3.47,7.76,7.76"/>
      <path class="cls-294" d="M51.87,55.98c0,4.29-3.47,7.76-7.76,7.76s-7.76-3.47-7.76-7.76,3.47-7.76,7.76-7.76,7.76,3.47,7.76,7.76"/>
      <path class="cls-294" d="M51.12,56.56c0,4.29-3.47,7.76-7.76,7.76s-7.76-3.47-7.76-7.76,3.47-7.76,7.76-7.76,7.76,3.47,7.76,7.76"/>
      <path class="cls-227" d="M50.37,57.14c0,4.29-3.47,7.76-7.76,7.76s-7.76-3.47-7.76-7.76,3.47-7.76,7.76-7.76,7.76,3.47,7.76,7.76"/>
      <path class="cls-295" d="M49.61,57.7c0,4.29-3.47,7.76-7.76,7.76s-7.76-3.47-7.76-7.76,3.47-7.76,7.76-7.76,7.76,3.47,7.76,7.76"/>
      <path class="cls-296" d="M48.84,58.26c0,4.29-3.47,7.76-7.76,7.76s-7.76-3.47-7.76-7.76,3.47-7.76,7.76-7.76,7.76,3.47,7.76,7.76"/>
      <path class="cls-228" d="M48.07,58.8c0,4.29-3.47,7.76-7.76,7.76s-7.76-3.47-7.76-7.76,3.47-7.76,7.76-7.76,7.76,3.47,7.76,7.76"/>
      <path class="cls-13" d="M47.29,59.34c0,4.29-3.47,7.76-7.76,7.76s-7.76-3.47-7.76-7.76,3.47-7.76,7.76-7.76,7.76,3.47,7.76,7.76"/>
      <path class="cls-15" d="M46.51,59.87c0,4.29-3.47,7.76-7.76,7.76s-7.76-3.47-7.76-7.76,3.47-7.76,7.76-7.76,7.76,3.47,7.76,7.76"/>
      <path class="cls-15" d="M45.72,60.39c0,4.29-3.47,7.76-7.76,7.76s-7.76-3.47-7.76-7.76,3.47-7.76,7.76-7.76,7.76,3.47,7.76,7.76"/>
      <path class="cls-14" d="M44.92,60.89c0,4.29-3.47,7.76-7.76,7.76s-7.76-3.47-7.76-7.76,3.47-7.76,7.76-7.76,7.76,3.47,7.76,7.76"/>
      <path class="cls-16" d="M44.12,61.39c0,4.29-3.47,7.76-7.76,7.76s-7.76-3.47-7.76-7.76,3.47-7.76,7.76-7.76,7.76,3.47,7.76,7.76"/>
      <path class="cls-11" d="M43.31,61.87c0,4.29-3.47,7.76-7.76,7.76s-7.76-3.47-7.76-7.76,3.47-7.76,7.76-7.76,7.76,3.47,7.76,7.76"/>
      <path class="cls-12" d="M42.5,62.35c0,4.29-3.47,7.76-7.76,7.76s-7.76-3.47-7.76-7.76,3.47-7.76,7.76-7.76,7.76,3.47,7.76,7.76"/>
      <path class="cls-1" d="M41.68,62.81c0,4.29-3.47,7.76-7.76,7.76s-7.76-3.47-7.76-7.76,3.47-7.76,7.76-7.76,7.76,3.47,7.76,7.76"/>
      <path class="cls-308" d="M40.85,63.27c0,4.29-3.47,7.76-7.76,7.76s-7.76-3.47-7.76-7.76,3.47-7.76,7.76-7.76,7.76,3.47,7.76,7.76"/>
      <path class="cls-309" d="M40.02,63.71c0,4.29-3.47,7.76-7.76,7.76s-7.76-3.47-7.76-7.76,3.47-7.76,7.76-7.76,7.76,3.47,7.76,7.76"/>
      <path class="cls-310" d="M39.21,64.12c0,4.29-3.47,7.76-7.76,7.76s-7.76-3.47-7.76-7.76,3.47-7.76,7.76-7.76,7.76,3.47,7.76,7.76"/>
      <path class="cls-237" d="M38.43,64.46c0,4.29-3.47,7.76-7.76,7.76s-7.76-3.47-7.76-7.76,3.47-7.76,7.76-7.76,7.76,3.47,7.76,7.76"/>
      <path class="cls-236" d="M37.62,64.79c0,4.29-3.47,7.76-7.76,7.76s-7.76-3.47-7.76-7.76,3.47-7.76,7.76-7.76,7.76,3.47,7.76,7.76"/>
      <path class="cls-236" d="M36.79,65.1c0,4.29-3.47,7.76-7.76,7.76s-7.76-3.47-7.76-7.76,3.47-7.76,7.76-7.76,7.76,3.47,7.76,7.76"/>
      <path class="cls-307" d="M35.94,65.39c0,4.29-3.47,7.76-7.76,7.76s-7.76-3.47-7.76-7.76,3.47-7.76,7.76-7.76,7.76,3.47,7.76,7.76"/>
      <path class="cls-306" d="M35.07,65.65c0,4.29-3.47,7.76-7.76,7.76s-7.76-3.47-7.76-7.76,3.47-7.76,7.76-7.76,7.76,3.47,7.76,7.76"/>
      <path class="cls-302" d="M34.18,65.89c0,4.29-3.47,7.76-7.76,7.76s-7.76-3.47-7.76-7.76,3.47-7.76,7.76-7.76,7.76,3.47,7.76,7.76"/>
      <path class="cls-300" d="M33.28,66.11c0,4.29-3.47,7.76-7.76,7.76s-7.76-3.47-7.76-7.76,3.47-7.76,7.76-7.76,7.76,3.47,7.76,7.76"/>
      <path class="cls-304" d="M32.36,66.29c0,4.29-3.47,7.76-7.76,7.76s-7.76-3.47-7.76-7.76,3.47-7.76,7.76-7.76,7.76,3.47,7.76,7.76"/>
      <path class="cls-303" d="M31.45,66.45c0,4.29-3.47,7.76-7.76,7.76s-7.76-3.47-7.76-7.76,3.47-7.76,7.76-7.76,7.76,3.47,7.76,7.76"/>
      <path class="cls-299" d="M30.52,66.57c0,4.29-3.47,7.76-7.76,7.76s-7.76-3.47-7.76-7.76,3.47-7.76,7.76-7.76,7.76,3.47,7.76,7.76"/>
      <path class="cls-301" d="M29.6,66.66c0,4.29-3.47,7.76-7.76,7.76s-7.76-3.47-7.76-7.76,3.47-7.76,7.76-7.76,7.76,3.47,7.76,7.76"/>
      <path class="cls-10" d="M28.67,66.71c0,4.29-3.47,7.76-7.76,7.76s-7.76-3.47-7.76-7.76,3.47-7.76,7.76-7.76,7.76,3.47,7.76,7.76"/>
      <path class="cls-3" d="M27.75,66.73c0,4.29-3.47,7.76-7.76,7.76s-7.76-3.47-7.76-7.76,3.47-7.76,7.76-7.76,7.76,3.47,7.76,7.76"/>
      <path class="cls-6" d="M26.84,66.71c0,4.29-3.47,7.76-7.76,7.76s-7.76-3.47-7.76-7.76,3.47-7.76,7.76-7.76,7.76,3.47,7.76,7.76"/>
      <path class="cls-5" d="M25.94,66.64c0,4.29-3.47,7.76-7.76,7.76s-7.76-3.47-7.76-7.76,3.47-7.76,7.76-7.76,7.76,3.47,7.76,7.76"/>
      <path class="cls-4" d="M25.05,66.53c0,4.29-3.47,7.76-7.76,7.76s-7.76-3.47-7.76-7.76,3.47-7.76,7.76-7.76,7.76,3.47,7.76,7.76"/>
      <path class="cls-9" d="M24.18,66.38c0,4.29-3.47,7.76-7.76,7.76s-7.76-3.47-7.76-7.76,3.47-7.76,7.76-7.76,7.76,3.47,7.76,7.76"/>
      <path class="cls-7" d="M23.32,66.18c0,4.29-3.47,7.76-7.76,7.76s-7.76-3.47-7.76-7.76,3.47-7.76,7.76-7.76,7.76,3.47,7.76,7.76"/>
      <path class="cls-26" d="M22.49,65.94c0,4.29-3.47,7.76-7.76,7.76s-7.76-3.47-7.76-7.76,3.47-7.76,7.76-7.76,7.76,3.47,7.76,7.76"/>
      <path class="cls-27" d="M21.68,65.64c0,4.29-3.47,7.76-7.76,7.76s-7.76-3.47-7.76-7.76,3.47-7.76,7.76-7.76,7.76,3.47,7.76,7.76"/>
      <path class="cls-29" d="M20.9,65.29c0,4.29-3.47,7.76-7.76,7.76s-7.76-3.47-7.76-7.76,3.47-7.76,7.76-7.76,7.76,3.47,7.76,7.76"/>
      <path class="cls-30" d="M20.15,64.88c0,4.29-3.47,7.76-7.76,7.76s-7.76-3.47-7.76-7.76,3.47-7.76,7.76-7.76,7.76,3.47,7.76,7.76"/>
      <path class="cls-28" d="M19.43,64.42c0,4.29-3.47,7.76-7.76,7.76s-7.76-3.47-7.76-7.76,3.47-7.76,7.76-7.76,7.76,3.47,7.76,7.76"/>
      <path class="cls-19" d="M18.75,63.9c0,4.29-3.47,7.76-7.76,7.76s-7.76-3.47-7.76-7.76,3.47-7.76,7.76-7.76,7.76,3.47,7.76,7.76"/>
      <path class="cls-20" d="M18.11,63.33c0,4.29-3.47,7.76-7.76,7.76s-7.76-3.47-7.76-7.76,3.47-7.76,7.76-7.76,7.76,3.47,7.76,7.76"/>
      <path class="cls-8" d="M17.51,62.69c0,4.29-3.47,7.76-7.76,7.76s-7.76-3.47-7.76-7.76,3.47-7.76,7.76-7.76,7.76,3.47,7.76,7.76"/>
      <path class="cls-22" d="M16.96,61.98c0,4.29-3.47,7.76-7.76,7.76s-7.76-3.47-7.76-7.76,3.47-7.76,7.76-7.76,7.76,3.47,7.76,7.76"/>
      <path class="cls-23" d="M16.45,61.21c0,4.29-3.47,7.76-7.76,7.76s-7.76-3.47-7.76-7.76,3.47-7.76,7.76-7.76,7.76,3.47,7.76,7.76"/>
      <path class="cls-21" d="M16.04,60.29c0,4.29-3.47,7.76-7.76,7.76s-7.76-3.47-7.76-7.76,3.47-7.76,7.76-7.76,7.76,3.47,7.76,7.76"/>
      <path class="cls-25" d="M15.75,59.35c0,4.29-3.47,7.76-7.76,7.76S.23,63.64.23,59.35s3.47-7.76,7.76-7.76,7.76,3.47,7.76,7.76"/>
      <path class="cls-24" d="M15.61,58.67c0,4.29-3.47,7.76-7.76,7.76S.09,62.96.09,58.67s3.47-7.76,7.76-7.76,7.76,3.47,7.76,7.76"/>
      <path class="cls-18" d="M15.53,58c0,4.29-3.47,7.76-7.76,7.76S.02,62.28.02,58s3.47-7.76,7.76-7.76,7.76,3.47,7.76,7.76"/>
      <path class="cls-293" d="M15.52,57.57c0,4.29-3.47,7.76-7.76,7.76s-7.76-3.47-7.76-7.76,3.47-7.76,7.76-7.76,7.76,3.47,7.76,7.76"/>
      <path class="cls-298" d="M15.53,57.14c0,4.29-3.47,7.76-7.76,7.76S.01,61.43.01,57.14s3.47-7.76,7.76-7.76,7.76,3.47,7.76,7.76"/>
      <path class="cls-2" d="M15.57,56.73c0,4.29-3.47,7.76-7.76,7.76S.05,61.02.05,56.73s3.47-7.76,7.76-7.76,7.76,3.47,7.76,7.76"/>
      <path class="cls-17" d="M15.62,56.32c0,4.29-3.47,7.76-7.76,7.76S.11,60.61.11,56.32s3.47-7.76,7.76-7.76,7.76,3.47,7.76,7.76"/>
      <path class="cls-221" d="M15.71,55.92c0,4.29-3.47,7.76-7.76,7.76S.19,60.21.19,55.92s3.47-7.76,7.76-7.76,7.76,3.47,7.76,7.76"/>
      <path class="cls-285" d="M15.81,55.53c0,4.29-3.47,7.76-7.76,7.76S.29,59.82.29,55.53s3.47-7.76,7.76-7.76,7.76,3.47,7.76,7.76"/>
      <path class="cls-286" d="M15.94,55.14c0,4.29-3.47,7.76-7.76,7.76S.42,59.43.42,55.14s3.47-7.76,7.76-7.76,7.76,3.47,7.76,7.76"/>
      <path class="cls-248" d="M16.09,54.77c0,4.29-3.47,7.76-7.76,7.76s-7.76-3.47-7.76-7.76,3.47-7.76,7.76-7.76,7.76,3.47,7.76,7.76"/>
      <path class="cls-271" d="M16.26,54.4c0,4.29-3.47,7.76-7.76,7.76s-7.76-3.47-7.76-7.76,3.47-7.76,7.76-7.76,7.76,3.47,7.76,7.76"/>
      <path class="cls-231" d="M16.45,54.04c0,4.29-3.47,7.76-7.76,7.76s-7.76-3.47-7.76-7.76,3.47-7.76,7.76-7.76,7.76,3.47,7.76,7.76"/>
      <path class="cls-261" d="M16.66,53.69c0,4.29-3.47,7.76-7.76,7.76s-7.76-3.47-7.76-7.76,3.47-7.76,7.76-7.76,7.76,3.47,7.76,7.76"/>
      <path class="cls-282" d="M16.88,53.35c0,4.29-3.47,7.76-7.76,7.76s-7.76-3.47-7.76-7.76,3.47-7.76,7.76-7.76,7.76,3.47,7.76,7.76"/>
      <path class="cls-265" d="M17.13,53.02c0,4.29-3.47,7.76-7.76,7.76s-7.76-3.47-7.76-7.76,3.47-7.76,7.76-7.76,7.76,3.47,7.76,7.76"/>
      <path class="cls-305" d="M17.39,52.69c0,4.29-3.47,7.76-7.76,7.76s-7.76-3.47-7.76-7.76,3.47-7.76,7.76-7.76,7.76,3.47,7.76,7.76"/>
      <path class="cls-239" d="M17.66,52.38c0,4.29-3.47,7.76-7.76,7.76s-7.76-3.47-7.76-7.76,3.47-7.76,7.76-7.76,7.76,3.47,7.76,7.76"/>
      <path class="cls-297" d="M17.96,52.08c0,4.29-3.47,7.76-7.76,7.76s-7.76-3.47-7.76-7.76,3.47-7.76,7.76-7.76,7.76,3.47,7.76,7.76"/>
      <path class="cls-238" d="M18.26,51.78c0,4.29-3.47,7.76-7.76,7.76s-7.76-3.47-7.76-7.76,3.47-7.76,7.76-7.76,7.76,3.47,7.76,7.76"/>
      <path class="cls-260" d="M18.58,51.5c0,4.29-3.47,7.76-7.76,7.76s-7.76-3.47-7.76-7.76,3.47-7.76,7.76-7.76,7.76,3.47,7.76,7.76"/>
      <path class="cls-246" d="M18.92,51.22c0,4.29-3.47,7.76-7.76,7.76s-7.76-3.47-7.76-7.76,3.47-7.76,7.76-7.76,7.76,3.47,7.76,7.76"/>
      <path class="cls-259" d="M19.26,50.96c0,4.29-3.47,7.76-7.76,7.76s-7.76-3.47-7.76-7.76,3.47-7.76,7.76-7.76,7.76,3.47,7.76,7.76"/>
      <path class="cls-245" d="M19.62,50.71c0,4.29-3.47,7.76-7.76,7.76s-7.76-3.47-7.76-7.76,3.47-7.76,7.76-7.76,7.76,3.47,7.76,7.76"/>
      <path class="cls-132" d="M19.99,50.46c0,4.29-3.47,7.76-7.76,7.76s-7.76-3.47-7.76-7.76,3.47-7.76,7.76-7.76,7.76,3.47,7.76,7.76"/>
      <path class="cls-134" d="M20.37,50.23c0,4.29-3.47,7.76-7.76,7.76s-7.76-3.47-7.76-7.76,3.47-7.76,7.76-7.76,7.76,3.47,7.76,7.76"/>
      <path class="cls-126" d="M20.75,50.01c0,4.29-3.47,7.76-7.76,7.76s-7.76-3.47-7.76-7.76,3.47-7.76,7.76-7.76,7.76,3.47,7.76,7.76"/>
      <path class="cls-136" d="M21.15,49.8c0,4.29-3.47,7.76-7.76,7.76s-7.76-3.47-7.76-7.76,3.47-7.76,7.76-7.76,7.76,3.47,7.76,7.76"/>
      <path class="cls-137" d="M21.55,49.6c0,4.29-3.47,7.76-7.76,7.76s-7.76-3.47-7.76-7.76,3.47-7.76,7.76-7.76,7.76,3.47,7.76,7.76"/>
      <path class="cls-114" d="M21.96,49.42c0,4.29-3.47,7.76-7.76,7.76s-7.76-3.47-7.76-7.76,3.47-7.76,7.76-7.76,7.76,3.47,7.76,7.76"/>
      <path class="cls-113" d="M22.38,49.24c0,4.29-3.47,7.76-7.76,7.76s-7.76-3.47-7.76-7.76,3.47-7.76,7.76-7.76,7.76,3.47,7.76,7.76"/>
      <path class="cls-131" d="M22.81,49.08c0,4.29-3.47,7.76-7.76,7.76s-7.76-3.47-7.76-7.76,3.47-7.76,7.76-7.76,7.76,3.47,7.76,7.76"/>
      <path class="cls-133" d="M23.23,48.93c0,4.29-3.47,7.76-7.76,7.76s-7.76-3.47-7.76-7.76,3.47-7.76,7.76-7.76,7.76,3.47,7.76,7.76"/>
      <path class="cls-141" d="M23.67,48.79c0,4.29-3.47,7.76-7.76,7.76s-7.76-3.47-7.76-7.76,3.47-7.76,7.76-7.76,7.76,3.47,7.76,7.76"/>
      <path class="cls-123" d="M24.1,48.66c0,4.29-3.47,7.76-7.76,7.76s-7.76-3.47-7.76-7.76,3.47-7.76,7.76-7.76,7.76,3.47,7.76,7.76"/>
      <path class="cls-128" d="M24.54,48.55c0,4.29-3.47,7.76-7.76,7.76s-7.76-3.47-7.76-7.76,3.47-7.76,7.76-7.76,7.76,3.47,7.76,7.76"/>
      <path class="cls-127" d="M24.98,48.45c0,4.29-3.47,7.76-7.76,7.76s-7.76-3.47-7.76-7.76,3.47-7.76,7.76-7.76,7.76,3.47,7.76,7.76"/>
      <path class="cls-138" d="M25.42,48.36c0,4.29-3.47,7.76-7.76,7.76s-7.76-3.47-7.76-7.76,3.47-7.76,7.76-7.76,7.76,3.47,7.76,7.76"/>
      <path class="cls-139" d="M25.87,48.28c0,4.29-3.47,7.76-7.76,7.76s-7.76-3.47-7.76-7.76,3.47-7.76,7.76-7.76,7.76,3.47,7.76,7.76"/>
      <path class="cls-140" d="M26.31,48.22c0,4.29-3.47,7.76-7.76,7.76s-7.76-3.47-7.76-7.76,3.47-7.76,7.76-7.76,7.76,3.47,7.76,7.76"/>
      <path class="cls-111" d="M26.75,48.17c0,4.29-3.47,7.76-7.76,7.76s-7.76-3.47-7.76-7.76,3.47-7.76,7.76-7.76,7.76,3.47,7.76,7.76"/>
      <path class="cls-110" d="M27.19,48.14c0,4.29-3.47,7.76-7.76,7.76s-7.76-3.47-7.76-7.76,3.47-7.76,7.76-7.76,7.76,3.47,7.76,7.76"/>
      <path class="cls-116" d="M27.63,48.12c0,4.29-3.47,7.76-7.76,7.76s-7.76-3.47-7.76-7.76,3.47-7.76,7.76-7.76,7.76,3.47,7.76,7.76"/>
      <path class="cls-159" d="M28.06,48.11c0,4.29-3.47,7.76-7.76,7.76s-7.76-3.47-7.76-7.76,3.47-7.76,7.76-7.76,7.76,3.47,7.76,7.76"/>
      <path class="cls-160" d="M28.49,48.11c0,4.29-3.47,7.76-7.76,7.76s-7.76-3.47-7.76-7.76,3.47-7.76,7.76-7.76,7.76,3.47,7.76,7.76"/>
      <path class="cls-155" d="M28.91,48.14c0,4.29-3.47,7.76-7.76,7.76s-7.76-3.47-7.76-7.76,3.47-7.76,7.76-7.76,7.76,3.47,7.76,7.76"/>
      <path class="cls-120" d="M29.33,48.17c0,4.29-3.47,7.76-7.76,7.76s-7.76-3.47-7.76-7.76,3.47-7.76,7.76-7.76,7.76,3.47,7.76,7.76"/>
      <path class="cls-112" d="M29.75,48.22c0,4.29-3.47,7.76-7.76,7.76s-7.76-3.47-7.76-7.76,3.47-7.76,7.76-7.76,7.76,3.47,7.76,7.76"/>
      <path class="cls-117" d="M30.17,48.27c0,4.29-3.47,7.76-7.76,7.76s-7.76-3.47-7.76-7.76,3.47-7.76,7.76-7.76,7.76,3.47,7.76,7.76"/>
      <path class="cls-118" d="M30.59,48.33c0,4.29-3.47,7.76-7.76,7.76s-7.76-3.47-7.76-7.76,3.47-7.76,7.76-7.76,7.76,3.47,7.76,7.76"/>
      <path class="cls-115" d="M31,48.39c0,4.29-3.47,7.76-7.76,7.76s-7.76-3.47-7.76-7.76,3.47-7.76,7.76-7.76,7.76,3.47,7.76,7.76"/>
      <path class="cls-135" d="M31.42,48.46c0,4.29-3.47,7.76-7.76,7.76s-7.76-3.47-7.76-7.76,3.47-7.76,7.76-7.76,7.76,3.47,7.76,7.76"/>
      <path class="cls-130" d="M31.83,48.54c0,4.29-3.47,7.76-7.76,7.76s-7.76-3.47-7.76-7.76,3.47-7.76,7.76-7.76,7.76,3.47,7.76,7.76"/>
      <path class="cls-119" d="M32.24,48.61c0,4.29-3.47,7.76-7.76,7.76s-7.76-3.47-7.76-7.76,3.47-7.76,7.76-7.76,7.76,3.47,7.76,7.76"/>
      <path class="cls-109" d="M32.65,48.7c0,4.29-3.47,7.76-7.76,7.76s-7.76-3.47-7.76-7.76,3.47-7.76,7.76-7.76,7.76,3.47,7.76,7.76"/>
      <path class="cls-121" d="M33.06,48.79c0,4.29-3.47,7.76-7.76,7.76s-7.76-3.47-7.76-7.76,3.47-7.76,7.76-7.76,7.76,3.47,7.76,7.76"/>
      <path class="cls-122" d="M33.47,48.88c0,4.29-3.47,7.76-7.76,7.76s-7.76-3.47-7.76-7.76,3.47-7.76,7.76-7.76,7.76,3.47,7.76,7.76"/>
      <path class="cls-173" d="M33.88,48.98c0,4.29-3.47,7.76-7.76,7.76s-7.76-3.47-7.76-7.76,3.47-7.76,7.76-7.76,7.76,3.47,7.76,7.76"/>
      <path class="cls-166" d="M34.29,49.08c0,4.29-3.47,7.76-7.76,7.76s-7.76-3.47-7.76-7.76,3.47-7.76,7.76-7.76,7.76,3.47,7.76,7.76"/>
      <path class="cls-147" d="M34.69,49.19c0,4.29-3.47,7.76-7.76,7.76s-7.76-3.47-7.76-7.76,3.47-7.76,7.76-7.76,7.76,3.47,7.76,7.76"/>
      <path class="cls-144" d="M35.09,49.3c0,4.29-3.47,7.76-7.76,7.76s-7.76-3.47-7.76-7.76,3.47-7.76,7.76-7.76,7.76,3.47,7.76,7.76"/>
      <path class="cls-143" d="M35.5,49.41c0,4.29-3.47,7.76-7.76,7.76s-7.76-3.47-7.76-7.76,3.47-7.76,7.76-7.76,7.76,3.47,7.76,7.76"/>
      <path class="cls-142" d="M35.9,49.53c0,4.29-3.47,7.76-7.76,7.76s-7.76-3.47-7.76-7.76,3.47-7.76,7.76-7.76,7.76,3.47,7.76,7.76"/>
      <path class="cls-154" d="M36.3,49.66c0,4.29-3.47,7.76-7.76,7.76s-7.76-3.47-7.76-7.76,3.47-7.76,7.76-7.76,7.76,3.47,7.76,7.76"/>
      <path class="cls-179" d="M36.7,49.79c0,4.29-3.47,7.76-7.76,7.76s-7.76-3.47-7.76-7.76,3.47-7.76,7.76-7.76,7.76,3.47,7.76,7.76"/>
      <path class="cls-172" d="M37.1,49.92c0,4.29-3.47,7.76-7.76,7.76s-7.76-3.47-7.76-7.76,3.47-7.76,7.76-7.76,7.76,3.47,7.76,7.76"/>
      <path class="cls-168" d="M37.49,50.06c0,4.29-3.47,7.76-7.76,7.76s-7.76-3.47-7.76-7.76,3.47-7.76,7.76-7.76,7.76,3.47,7.76,7.76"/>
      <path class="cls-161" d="M37.89,50.2c0,4.29-3.47,7.76-7.76,7.76s-7.76-3.47-7.76-7.76,3.47-7.76,7.76-7.76,7.76,3.47,7.76,7.76"/>
      <path class="cls-177" d="M38.28,50.35c0,4.29-3.47,7.76-7.76,7.76s-7.76-3.47-7.76-7.76,3.47-7.76,7.76-7.76,7.76,3.47,7.76,7.76"/>
      <path class="cls-163" d="M38.68,50.5c0,4.29-3.47,7.76-7.76,7.76s-7.76-3.47-7.76-7.76,3.47-7.76,7.76-7.76,7.76,3.47,7.76,7.76"/>
      <path class="cls-164" d="M39.07,50.66c0,4.29-3.47,7.76-7.76,7.76s-7.76-3.47-7.76-7.76,3.47-7.76,7.76-7.76,7.76,3.47,7.76,7.76"/>
      <path class="cls-150" d="M39.46,50.82c0,4.29-3.47,7.76-7.76,7.76s-7.76-3.47-7.76-7.76,3.47-7.76,7.76-7.76,7.76,3.47,7.76,7.76"/>
      <path class="cls-152" d="M39.85,50.98c0,4.29-3.47,7.76-7.76,7.76s-7.76-3.47-7.76-7.76,3.47-7.76,7.76-7.76,7.76,3.47,7.76,7.76"/>
      <path class="cls-152" d="M40.24,51.15c0,4.29-3.47,7.76-7.76,7.76s-7.76-3.47-7.76-7.76,3.47-7.76,7.76-7.76,7.76,3.47,7.76,7.76"/>
      <path class="cls-125" d="M40.63,51.32c0,4.29-3.47,7.76-7.76,7.76s-7.76-3.47-7.76-7.76,3.47-7.76,7.76-7.76,7.76,3.47,7.76,7.76"/>
      <path class="cls-124" d="M41.01,51.5c0,4.29-3.47,7.76-7.76,7.76s-7.76-3.47-7.76-7.76,3.47-7.76,7.76-7.76,7.76,3.47,7.76,7.76"/>
      <path class="cls-151" d="M41.4,51.68c0,4.29-3.47,7.76-7.76,7.76s-7.76-3.47-7.76-7.76,3.47-7.76,7.76-7.76,7.76,3.47,7.76,7.76"/>
      <path class="cls-129" d="M41.78,51.86c0,4.29-3.47,7.76-7.76,7.76s-7.76-3.47-7.76-7.76,3.47-7.76,7.76-7.76,7.76,3.47,7.76,7.76"/>
      <path class="cls-156" d="M42.16,52.05c0,4.29-3.47,7.76-7.76,7.76s-7.76-3.47-7.76-7.76,3.47-7.76,7.76-7.76,7.76,3.47,7.76,7.76"/>
      <path class="cls-146" d="M42.54,52.24c0,4.29-3.47,7.76-7.76,7.76s-7.76-3.47-7.76-7.76,3.47-7.76,7.76-7.76,7.76,3.47,7.76,7.76"/>
      <path class="cls-148" d="M42.93,52.43c0,4.29-3.47,7.76-7.76,7.76s-7.76-3.47-7.76-7.76,3.47-7.76,7.76-7.76,7.76,3.47,7.76,7.76"/>
      <path class="cls-158" d="M43.3,52.63c0,4.29-3.47,7.76-7.76,7.76s-7.76-3.47-7.76-7.76,3.47-7.76,7.76-7.76,7.76,3.47,7.76,7.76"/>
      <path class="cls-108" d="M43.68,52.83c0,4.29-3.47,7.76-7.76,7.76s-7.76-3.47-7.76-7.76,3.47-7.76,7.76-7.76,7.76,3.47,7.76,7.76"/>
      <path class="cls-153" d="M44.06,53.04c0,4.29-3.47,7.76-7.76,7.76s-7.76-3.47-7.76-7.76,3.47-7.76,7.76-7.76,7.76,3.47,7.76,7.76"/>
      <path class="cls-157" d="M44.43,53.25c0,4.29-3.47,7.76-7.76,7.76s-7.76-3.47-7.76-7.76,3.47-7.76,7.76-7.76,7.76,3.47,7.76,7.76"/>
      <path class="cls-149" d="M44.81,53.46c0,4.29-3.47,7.76-7.76,7.76s-7.76-3.47-7.76-7.76,3.47-7.76,7.76-7.76,7.76,3.47,7.76,7.76"/>
      <path class="cls-145" d="M45.18,53.68c0,4.29-3.47,7.76-7.76,7.76s-7.76-3.47-7.76-7.76,3.47-7.76,7.76-7.76,7.76,3.47,7.76,7.76"/>
      <path class="cls-84" d="M45.55,53.9c0,4.29-3.47,7.76-7.76,7.76s-7.76-3.47-7.76-7.76,3.47-7.76,7.76-7.76,7.76,3.47,7.76,7.76"/>
      <path class="cls-85" d="M45.93,54.12c0,4.29-3.47,7.76-7.76,7.76s-7.76-3.47-7.76-7.76,3.47-7.76,7.76-7.76,7.76,3.47,7.76,7.76"/>
      <path class="cls-80" d="M46.3,54.35c0,4.29-3.47,7.76-7.76,7.76s-7.76-3.47-7.76-7.76,3.47-7.76,7.76-7.76,7.76,3.47,7.76,7.76"/>
      <path class="cls-194" d="M46.66,54.58c0,4.29-3.47,7.76-7.76,7.76s-7.76-3.47-7.76-7.76,3.47-7.76,7.76-7.76,7.76,3.47,7.76,7.76"/>
      <path class="cls-193" d="M47.03,54.81c0,4.29-3.47,7.76-7.76,7.76s-7.76-3.47-7.76-7.76,3.47-7.76,7.76-7.76,7.76,3.47,7.76,7.76"/>
      <path class="cls-195" d="M47.4,55.05c0,4.29-3.47,7.76-7.76,7.76s-7.76-3.47-7.76-7.76,3.47-7.76,7.76-7.76,7.76,3.47,7.76,7.76"/>
      <path class="cls-169" d="M47.76,55.29c0,4.29-3.47,7.76-7.76,7.76s-7.76-3.47-7.76-7.76,3.47-7.76,7.76-7.76,7.76,3.47,7.76,7.76"/>
      <path class="cls-171" d="M48.13,55.53c0,4.29-3.47,7.76-7.76,7.76s-7.76-3.47-7.76-7.76,3.47-7.76,7.76-7.76,7.76,3.47,7.76,7.76"/>
      <path class="cls-81" d="M48.49,55.78c0,4.29-3.47,7.76-7.76,7.76s-7.76-3.47-7.76-7.76,3.47-7.76,7.76-7.76,7.76,3.47,7.76,7.76"/>
      <path class="cls-69" d="M48.85,56.03c0,4.29-3.47,7.76-7.76,7.76s-7.76-3.47-7.76-7.76,3.47-7.76,7.76-7.76,7.76,3.47,7.76,7.76"/>
      <path class="cls-187" d="M49.21,56.28c0,4.29-3.47,7.76-7.76,7.76s-7.76-3.47-7.76-7.76,3.47-7.76,7.76-7.76,7.76,3.47,7.76,7.76"/>
      <path class="cls-189" d="M49.57,56.54c0,4.29-3.47,7.76-7.76,7.76s-7.76-3.47-7.76-7.76,3.47-7.76,7.76-7.76,7.76,3.47,7.76,7.76"/>
      <path class="cls-74" d="M49.93,56.79c0,4.29-3.47,7.76-7.76,7.76s-7.76-3.47-7.76-7.76,3.47-7.76,7.76-7.76,7.76,3.47,7.76,7.76"/>
      <path class="cls-73" d="M50.28,57.05c0,4.29-3.47,7.76-7.76,7.76s-7.76-3.47-7.76-7.76,3.47-7.76,7.76-7.76,7.76,3.47,7.76,7.76"/>
      <path class="cls-86" d="M50.64,57.32c0,4.29-3.47,7.76-7.76,7.76s-7.76-3.47-7.76-7.76,3.47-7.76,7.76-7.76,7.76,3.47,7.76,7.76"/>
      <path class="cls-197" d="M50.99,57.59c0,4.29-3.47,7.76-7.76,7.76s-7.76-3.47-7.76-7.76,3.47-7.76,7.76-7.76,7.76,3.47,7.76,7.76"/>
      <path class="cls-162" d="M51.35,57.85c0,4.29-3.47,7.76-7.76,7.76s-7.76-3.47-7.76-7.76,3.47-7.76,7.76-7.76,7.76,3.47,7.76,7.76"/>
      <path class="cls-174" d="M51.7,58.13c0,4.29-3.47,7.76-7.76,7.76s-7.76-3.47-7.76-7.76,3.47-7.76,7.76-7.76,7.76,3.47,7.76,7.76"/>
      <path class="cls-176" d="M52.05,58.4c0,4.29-3.47,7.76-7.76,7.76s-7.76-3.47-7.76-7.76,3.47-7.76,7.76-7.76,7.76,3.47,7.76,7.76"/>
      <path class="cls-175" d="M52.4,58.68c0,4.29-3.47,7.76-7.76,7.76s-7.76-3.47-7.76-7.76,3.47-7.76,7.76-7.76,7.76,3.47,7.76,7.76"/>
      <path class="cls-186" d="M52.75,58.96c0,4.29-3.47,7.76-7.76,7.76s-7.76-3.47-7.76-7.76,3.47-7.76,7.76-7.76,7.76,3.47,7.76,7.76"/>
      <path class="cls-185" d="M53.09,59.24c0,4.29-3.47,7.76-7.76,7.76s-7.76-3.47-7.76-7.76,3.47-7.76,7.76-7.76,7.76,3.47,7.76,7.76"/>
      <path class="cls-184" d="M53.44,59.53c0,4.29-3.47,7.76-7.76,7.76s-7.76-3.47-7.76-7.76,3.47-7.76,7.76-7.76,7.76,3.47,7.76,7.76"/>
      <path class="cls-183" d="M53.78,59.82c0,4.29-3.47,7.76-7.76,7.76s-7.76-3.47-7.76-7.76,3.47-7.76,7.76-7.76,7.76,3.47,7.76,7.76"/>
      <path class="cls-170" d="M54.13,60.11c0,4.29-3.47,7.76-7.76,7.76s-7.76-3.47-7.76-7.76,3.47-7.76,7.76-7.76,7.76,3.47,7.76,7.76"/>
      <path class="cls-167" d="M54.47,60.4c0,4.29-3.47,7.76-7.76,7.76s-7.76-3.47-7.76-7.76,3.47-7.76,7.76-7.76,7.76,3.47,7.76,7.76"/>
      <path class="cls-77" d="M54.81,60.69c0,4.29-3.47,7.76-7.76,7.76s-7.76-3.47-7.76-7.76,3.47-7.76,7.76-7.76,7.76,3.47,7.76,7.76"/>
      <path class="cls-68" d="M55.15,60.99c0,4.29-3.47,7.76-7.76,7.76s-7.76-3.47-7.76-7.76,3.47-7.76,7.76-7.76,7.76,3.47,7.76,7.76"/>
      <path class="cls-72" d="M55.49,61.29c0,4.29-3.47,7.76-7.76,7.76s-7.76-3.47-7.76-7.76,3.47-7.76,7.76-7.76,7.76,3.47,7.76,7.76"/>
      <path class="cls-67" d="M55.83,61.59c0,4.29-3.47,7.76-7.76,7.76s-7.76-3.47-7.76-7.76,3.47-7.76,7.76-7.76,7.76,3.47,7.76,7.76"/>
      <path class="cls-165" d="M56.16,61.9c0,4.29-3.47,7.76-7.76,7.76s-7.76-3.47-7.76-7.76,3.47-7.76,7.76-7.76,7.76,3.47,7.76,7.76"/>
      <path class="cls-196" d="M56.5,62.2c0,4.29-3.47,7.76-7.76,7.76s-7.76-3.47-7.76-7.76,3.47-7.76,7.76-7.76,7.76,3.47,7.76,7.76"/>
      <path class="cls-97" d="M56.83,62.51c0,4.29-3.47,7.76-7.76,7.76s-7.76-3.47-7.76-7.76,3.47-7.76,7.76-7.76,7.76,3.47,7.76,7.76"/>
      <path class="cls-204" d="M57.16,62.82c0,4.29-3.47,7.76-7.76,7.76s-7.76-3.47-7.76-7.76,3.47-7.76,7.76-7.76,7.76,3.47,7.76,7.76"/>
      <path class="cls-201" d="M57.49,63.13c0,4.29-3.47,7.76-7.76,7.76s-7.76-3.47-7.76-7.76,3.47-7.76,7.76-7.76,7.76,3.47,7.76,7.76"/>
      <path class="cls-200" d="M57.82,63.45c0,4.29-3.47,7.76-7.76,7.76s-7.76-3.47-7.76-7.76,3.47-7.76,7.76-7.76,7.76,3.47,7.76,7.76"/>
      <path class="cls-198" d="M58.15,63.76c0,4.29-3.47,7.76-7.76,7.76s-7.76-3.47-7.76-7.76,3.47-7.76,7.76-7.76,7.76,3.47,7.76,7.76"/>
      <path class="cls-202" d="M58.48,64.08c0,4.29-3.47,7.76-7.76,7.76s-7.76-3.47-7.76-7.76,3.47-7.76,7.76-7.76,7.76,3.47,7.76,7.76"/>
      <path class="cls-188" d="M58.81,64.4c0,4.29-3.47,7.76-7.76,7.76s-7.76-3.47-7.76-7.76,3.47-7.76,7.76-7.76,7.76,3.47,7.76,7.76"/>
      <path class="cls-192" d="M59.13,64.72c0,4.29-3.47,7.76-7.76,7.76s-7.76-3.47-7.76-7.76,3.47-7.76,7.76-7.76,7.76,3.47,7.76,7.76"/>
      <path class="cls-191" d="M59.46,65.05c0,4.29-3.47,7.76-7.76,7.76s-7.76-3.47-7.76-7.76,3.47-7.76,7.76-7.76,7.76,3.47,7.76,7.76"/>
      <path class="cls-51" d="M59.78,65.37c0,4.29-3.47,7.76-7.76,7.76s-7.76-3.47-7.76-7.76,3.47-7.76,7.76-7.76,7.76,3.47,7.76,7.76"/>
      <path class="cls-43" d="M60.1,65.7c0,4.29-3.47,7.76-7.76,7.76s-7.76-3.47-7.76-7.76,3.47-7.76,7.76-7.76,7.76,3.47,7.76,7.76"/>
      <path class="cls-44" d="M60.42,66.03c0,4.29-3.47,7.76-7.76,7.76s-7.76-3.47-7.76-7.76,3.47-7.76,7.76-7.76,7.76,3.47,7.76,7.76"/>
      <path class="cls-45" d="M60.74,66.36c0,4.29-3.47,7.76-7.76,7.76s-7.76-3.47-7.76-7.76,3.47-7.76,7.76-7.76,7.76,3.47,7.76,7.76"/>
      <path class="cls-46" d="M61.06,66.69c0,4.29-3.47,7.76-7.76,7.76s-7.76-3.47-7.76-7.76,3.47-7.76,7.76-7.76,7.76,3.47,7.76,7.76"/>
      <path class="cls-48" d="M61.38,67.02c0,4.29-3.47,7.76-7.76,7.76s-7.76-3.47-7.76-7.76,3.47-7.76,7.76-7.76,7.76,3.47,7.76,7.76"/>
      <path class="cls-41" d="M61.69,67.35c0,4.29-3.47,7.76-7.76,7.76s-7.76-3.47-7.76-7.76,3.47-7.76,7.76-7.76,7.76,3.47,7.76,7.76"/>
      <path class="cls-40" d="M62.01,67.69c0,4.29-3.47,7.76-7.76,7.76s-7.76-3.47-7.76-7.76,3.47-7.76,7.76-7.76,7.76,3.47,7.76,7.76"/>
      <path class="cls-39" d="M62.32,68.03c0,4.29-3.47,7.76-7.76,7.76s-7.76-3.47-7.76-7.76,3.47-7.76,7.76-7.76,7.76,3.47,7.76,7.76"/>
      <path class="cls-178" d="M62.63,68.36c0,4.29-3.47,7.76-7.76,7.76s-7.76-3.47-7.76-7.76,3.47-7.76,7.76-7.76,7.76,3.47,7.76,7.76"/>
      <path class="cls-79" d="M62.94,68.7c0,4.29-3.47,7.76-7.76,7.76s-7.76-3.47-7.76-7.76,3.47-7.76,7.76-7.76,7.76,3.47,7.76,7.76"/>
      <path class="cls-78" d="M63.25,69.04c0,4.29-3.47,7.76-7.76,7.76s-7.76-3.47-7.76-7.76,3.47-7.76,7.76-7.76,7.76,3.47,7.76,7.76"/>
      <path class="cls-66" d="M63.56,69.39c0,4.29-3.47,7.76-7.76,7.76s-7.76-3.47-7.76-7.76,3.47-7.76,7.76-7.76,7.76,3.47,7.76,7.76"/>
      <path class="cls-83" d="M63.87,69.73c0,4.29-3.47,7.76-7.76,7.76s-7.76-3.47-7.76-7.76,3.47-7.76,7.76-7.76,7.76,3.47,7.76,7.76"/>
      <path class="cls-82" d="M64.18,70.07c0,4.29-3.47,7.76-7.76,7.76s-7.76-3.47-7.76-7.76,3.47-7.76,7.76-7.76,7.76,3.47,7.76,7.76"/>
      <path class="cls-70" d="M64.48,70.42c0,4.29-3.47,7.76-7.76,7.76s-7.76-3.47-7.76-7.76,3.47-7.76,7.76-7.76,7.76,3.47,7.76,7.76"/>
      <path class="cls-190" d="M64.78,70.77c0,4.29-3.47,7.76-7.76,7.76s-7.76-3.47-7.76-7.76,3.47-7.76,7.76-7.76,7.76,3.47,7.76,7.76"/>
      <path class="cls-199" d="M65.09,71.11c0,4.29-3.47,7.76-7.76,7.76s-7.76-3.47-7.76-7.76,3.47-7.76,7.76-7.76,7.76,3.47,7.76,7.76"/>
      <path class="cls-312" d="M65.39,71.46c0,4.29-3.47,7.76-7.76,7.76s-7.76-3.47-7.76-7.76,3.47-7.76,7.76-7.76,7.76,3.47,7.76,7.76"/>
      <path class="cls-206" d="M65.69,71.81c0,4.29-3.47,7.76-7.76,7.76s-7.76-3.47-7.76-7.76,3.47-7.76,7.76-7.76,7.76,3.47,7.76,7.76"/>
      <path class="cls-205" d="M65.99,72.16c0,4.29-3.47,7.76-7.76,7.76s-7.76-3.47-7.76-7.76,3.47-7.76,7.76-7.76,7.76,3.47,7.76,7.76"/>
      <path class="cls-311" d="M66.28,72.51c0,4.29-3.47,7.76-7.76,7.76s-7.76-3.47-7.76-7.76,3.47-7.76,7.76-7.76,7.76,3.47,7.76,7.76"/>
      <path class="cls-203" d="M66.58,72.86c0,4.29-3.47,7.76-7.76,7.76s-7.76-3.47-7.76-7.76,3.47-7.76,7.76-7.76,7.76,3.47,7.76,7.76"/>
      <path class="cls-207" d="M66.87,73.21c0,4.29-3.47,7.76-7.76,7.76s-7.76-3.47-7.76-7.76,3.47-7.76,7.76-7.76,7.76,3.47,7.76,7.76"/>
      <path class="cls-65" d="M67.17,73.57c0,4.29-3.47,7.76-7.76,7.76s-7.76-3.47-7.76-7.76,3.47-7.76,7.76-7.76,7.76,3.47,7.76,7.76"/>
      <path class="cls-64" d="M67.46,73.92c0,4.29-3.47,7.76-7.76,7.76s-7.76-3.47-7.76-7.76,3.47-7.76,7.76-7.76,7.76,3.47,7.76,7.76"/>
      <path class="cls-63" d="M67.75,74.27c0,4.29-3.47,7.76-7.76,7.76s-7.76-3.47-7.76-7.76,3.47-7.76,7.76-7.76,7.76,3.47,7.76,7.76"/>
      <path class="cls-37" d="M68.04,74.63c0,4.29-3.47,7.76-7.76,7.76s-7.76-3.47-7.76-7.76,3.47-7.76,7.76-7.76,7.76,3.47,7.76,7.76"/>
      <path class="cls-37" d="M68.33,74.98c0,4.29-3.47,7.76-7.76,7.76s-7.76-3.47-7.76-7.76,3.47-7.76,7.76-7.76,7.76,3.47,7.76,7.76"/>
      <path class="cls-38" d="M68.62,75.34c0,4.29-3.47,7.76-7.76,7.76s-7.76-3.47-7.76-7.76,3.47-7.76,7.76-7.76,7.76,3.47,7.76,7.76"/>
      <path class="cls-36" d="M68.91,75.7c0,4.29-3.47,7.76-7.76,7.76s-7.76-3.47-7.76-7.76,3.47-7.76,7.76-7.76,7.76,3.47,7.76,7.76"/>
      <path class="cls-35" d="M69.19,76.05c0,4.29-3.47,7.76-7.76,7.76s-7.76-3.47-7.76-7.76,3.47-7.76,7.76-7.76,7.76,3.47,7.76,7.76"/>
      <path class="cls-61" d="M69.48,76.41c0,4.29-3.47,7.76-7.76,7.76s-7.76-3.47-7.76-7.76,3.47-7.76,7.76-7.76,7.76,3.47,7.76,7.76"/>
      <path class="cls-62" d="M69.76,76.77c0,4.29-3.47,7.76-7.76,7.76s-7.76-3.47-7.76-7.76,3.47-7.76,7.76-7.76,7.76,3.47,7.76,7.76"/>
      <path class="cls-94" d="M70.04,77.12c0,4.29-3.47,7.76-7.76,7.76s-7.76-3.47-7.76-7.76,3.47-7.76,7.76-7.76,7.76,3.47,7.76,7.76"/>
      <path class="cls-93" d="M70.32,77.48c0,4.29-3.47,7.76-7.76,7.76s-7.76-3.47-7.76-7.76,3.47-7.76,7.76-7.76,7.76,3.47,7.76,7.76"/>
      <path class="cls-95" d="M70.6,77.84c0,4.29-3.47,7.76-7.76,7.76s-7.76-3.47-7.76-7.76,3.47-7.76,7.76-7.76,7.76,3.47,7.76,7.76"/>
      <path class="cls-96" d="M70.88,78.2c0,4.29-3.47,7.76-7.76,7.76s-7.76-3.47-7.76-7.76,3.47-7.76,7.76-7.76,7.76,3.47,7.76,7.76"/>
      <path class="cls-58" d="M71.16,78.55c0,4.29-3.47,7.76-7.76,7.76s-7.76-3.47-7.76-7.76,3.47-7.76,7.76-7.76,7.76,3.47,7.76,7.76"/>
      <path class="cls-75" d="M71.43,78.91c0,4.29-3.47,7.76-7.76,7.76s-7.76-3.47-7.76-7.76,3.47-7.76,7.76-7.76,7.76,3.47,7.76,7.76"/>
      <path class="cls-76" d="M71.7,79.27c0,4.29-3.47,7.76-7.76,7.76s-7.76-3.47-7.76-7.76,3.47-7.76,7.76-7.76,7.76,3.47,7.76,7.76"/>
      <path class="cls-47" d="M71.98,79.63c0,4.29-3.47,7.76-7.76,7.76s-7.76-3.47-7.76-7.76,3.47-7.76,7.76-7.76,7.76,3.47,7.76,7.76"/>
      <path class="cls-47" d="M72.25,79.98c0,4.29-3.47,7.76-7.76,7.76s-7.76-3.47-7.76-7.76,3.47-7.76,7.76-7.76,7.76,3.47,7.76,7.76"/>
      <path class="cls-50" d="M72.52,80.34c0,4.29-3.47,7.76-7.76,7.76s-7.76-3.47-7.76-7.76,3.47-7.76,7.76-7.76,7.76,3.47,7.76,7.76"/>
      <path class="cls-49" d="M72.79,80.7c0,4.29-3.47,7.76-7.76,7.76s-7.76-3.47-7.76-7.76,3.47-7.76,7.76-7.76,7.76,3.47,7.76,7.76"/>
      <path class="cls-53" d="M73.06,81.05c0,4.29-3.47,7.76-7.76,7.76s-7.76-3.47-7.76-7.76,3.47-7.76,7.76-7.76,7.76,3.47,7.76,7.76"/>
      <path class="cls-52" d="M73.33,81.41c0,4.29-3.47,7.76-7.76,7.76s-7.76-3.47-7.76-7.76,3.47-7.76,7.76-7.76,7.76,3.47,7.76,7.76"/>
      <path class="cls-31" d="M73.59,81.77c0,4.29-3.47,7.76-7.76,7.76s-7.76-3.47-7.76-7.76,3.47-7.76,7.76-7.76,7.76,3.47,7.76,7.76"/>
      <path class="cls-32" d="M73.86,82.12c0,4.29-3.47,7.76-7.76,7.76s-7.76-3.47-7.76-7.76,3.47-7.76,7.76-7.76,7.76,3.47,7.76,7.76"/>
      <path class="cls-42" d="M74.12,82.48c0,4.29-3.47,7.76-7.76,7.76s-7.76-3.47-7.76-7.76,3.47-7.76,7.76-7.76,7.76,3.47,7.76,7.76"/>
      <path class="cls-57" d="M74.38,82.83c0,4.29-3.47,7.76-7.76,7.76s-7.76-3.47-7.76-7.76,3.47-7.76,7.76-7.76,7.76,3.47,7.76,7.76"/>
      <path class="cls-33" d="M74.64,83.19c0,4.29-3.47,7.76-7.76,7.76s-7.76-3.47-7.76-7.76,3.47-7.76,7.76-7.76,7.76,3.47,7.76,7.76"/>
      <path class="cls-34" d="M74.9,83.54c0,4.29-3.47,7.76-7.76,7.76s-7.76-3.47-7.76-7.76,3.47-7.76,7.76-7.76,7.76,3.47,7.76,7.76"/>
      <path class="cls-71" d="M75.16,83.9c0,4.29-3.47,7.76-7.76,7.76s-7.76-3.47-7.76-7.76,3.47-7.76,7.76-7.76,7.76,3.47,7.76,7.76"/>
      <path class="cls-71" d="M75.42,84.25c0,4.29-3.47,7.76-7.76,7.76s-7.76-3.47-7.76-7.76,3.47-7.76,7.76-7.76,7.76,3.47,7.76,7.76"/>
      <path class="cls-104" d="M75.67,84.6c0,4.29-3.47,7.76-7.76,7.76s-7.76-3.47-7.76-7.76,3.47-7.76,7.76-7.76,7.76,3.47,7.76,7.76"/>
      <path class="cls-103" d="M75.93,84.95c0,4.29-3.47,7.76-7.76,7.76s-7.76-3.47-7.76-7.76,3.47-7.76,7.76-7.76,7.76,3.47,7.76,7.76"/>
      <path class="cls-107" d="M76.18,85.3c0,4.29-3.47,7.76-7.76,7.76s-7.76-3.47-7.76-7.76,3.47-7.76,7.76-7.76,7.76,3.47,7.76,7.76"/>
      <path class="cls-107" d="M76.43,85.65c0,4.29-3.47,7.76-7.76,7.76s-7.76-3.47-7.76-7.76,3.47-7.76,7.76-7.76,7.76,3.47,7.76,7.76"/>
      <path class="cls-106" d="M76.68,86c0,4.29-3.47,7.76-7.76,7.76s-7.76-3.47-7.76-7.76,3.47-7.76,7.76-7.76,7.76,3.47,7.76,7.76"/>
      <path class="cls-99" d="M76.93,86.35c0,4.29-3.47,7.76-7.76,7.76s-7.76-3.47-7.76-7.76,3.47-7.76,7.76-7.76,7.76,3.47,7.76,7.76"/>
      <path class="cls-99" d="M77.18,86.7c0,4.29-3.47,7.76-7.76,7.76s-7.76-3.47-7.76-7.76,3.47-7.76,7.76-7.76,7.76,3.47,7.76,7.76"/>
      <path class="cls-99" d="M77.43,87.05c0,4.29-3.47,7.76-7.76,7.76s-7.76-3.47-7.76-7.76,3.47-7.76,7.76-7.76,7.76,3.47,7.76,7.76"/>
      <path class="cls-100" d="M77.68,87.39c0,4.29-3.47,7.76-7.76,7.76s-7.76-3.47-7.76-7.76,3.47-7.76,7.76-7.76,7.76,3.47,7.76,7.76"/>
      <path class="cls-88" d="M77.92,87.74c0,4.29-3.47,7.76-7.76,7.76s-7.76-3.47-7.76-7.76,3.47-7.76,7.76-7.76,7.76,3.47,7.76,7.76"/>
      <path class="cls-89" d="M78.16,88.08c0,4.29-3.47,7.76-7.76,7.76s-7.76-3.47-7.76-7.76,3.47-7.76,7.76-7.76,7.76,3.47,7.76,7.76"/>
      <path class="cls-89" d="M78.41,88.42c0,4.29-3.47,7.76-7.76,7.76s-7.76-3.47-7.76-7.76,3.47-7.76,7.76-7.76,7.76,3.47,7.76,7.76"/>
      <path class="cls-101" d="M78.65,88.76c0,4.29-3.47,7.76-7.76,7.76s-7.76-3.47-7.76-7.76,3.47-7.76,7.76-7.76,7.76,3.47,7.76,7.76"/>
      <path class="cls-102" d="M78.89,89.1c0,4.29-3.47,7.76-7.76,7.76s-7.76-3.47-7.76-7.76,3.47-7.76,7.76-7.76,7.76,3.47,7.76,7.76"/>
      <path class="cls-91" d="M79.13,89.44c0,4.29-3.47,7.76-7.76,7.76s-7.76-3.47-7.76-7.76,3.47-7.76,7.76-7.76,7.76,3.47,7.76,7.76"/>
      <path class="cls-90" d="M79.36,89.78c0,4.29-3.47,7.76-7.76,7.76s-7.76-3.47-7.76-7.76,3.47-7.76,7.76-7.76,7.76,3.47,7.76,7.76"/>
      <path class="cls-92" d="M79.6,90.11c0,4.29-3.47,7.76-7.76,7.76s-7.76-3.47-7.76-7.76,3.47-7.76,7.76-7.76,7.76,3.47,7.76,7.76"/>
      <path class="cls-181" d="M79.83,90.45c0,4.29-3.47,7.76-7.76,7.76s-7.76-3.47-7.76-7.76,3.47-7.76,7.76-7.76,7.76,3.47,7.76,7.76"/>
      <path class="cls-180" d="M80.07,90.78c0,4.29-3.47,7.76-7.76,7.76s-7.76-3.47-7.76-7.76,3.47-7.76,7.76-7.76,7.76,3.47,7.76,7.76"/>
      <path class="cls-180" d="M80.3,91.11c0,4.29-3.47,7.76-7.76,7.76s-7.76-3.47-7.76-7.76,3.47-7.76,7.76-7.76,7.76,3.47,7.76,7.76"/>
      <path class="cls-182" d="M80.53,91.44c0,4.29-3.47,7.76-7.76,7.76s-7.76-3.47-7.76-7.76,3.47-7.76,7.76-7.76,7.76,3.47,7.76,7.76"/>
      <path class="cls-87" d="M80.76,91.77c0,4.29-3.47,7.76-7.76,7.76s-7.76-3.47-7.76-7.76,3.47-7.76,7.76-7.76,7.76,3.47,7.76,7.76"/>
      <path class="cls-98" d="M80.99,92.1c0,4.29-3.47,7.76-7.76,7.76s-7.76-3.47-7.76-7.76,3.47-7.76,7.76-7.76,7.76,3.47,7.76,7.76"/>
      <path class="cls-98" d="M81.22,92.42c0,4.29-3.47,7.76-7.76,7.76s-7.76-3.47-7.76-7.76,3.47-7.76,7.76-7.76,7.76,3.47,7.76,7.76"/>
      <path class="cls-54" d="M81.44,92.75c0,4.29-3.47,7.76-7.76,7.76s-7.76-3.47-7.76-7.76,3.47-7.76,7.76-7.76,7.76,3.47,7.76,7.76"/>
      <path class="cls-59" d="M81.67,93.07c0,4.29-3.47,7.76-7.76,7.76s-7.76-3.47-7.76-7.76,3.47-7.76,7.76-7.76,7.76,3.47,7.76,7.76"/>
      <path class="cls-55" d="M81.89,93.39c0,4.29-3.47,7.76-7.76,7.76s-7.76-3.47-7.76-7.76,3.47-7.76,7.76-7.76,7.76,3.47,7.76,7.76"/>
      <path class="cls-55" d="M82.11,93.7c0,4.29-3.47,7.76-7.76,7.76s-7.76-3.47-7.76-7.76,3.47-7.76,7.76-7.76,7.76,3.47,7.76,7.76"/>
      <path class="cls-60" d="M82.34,94.02c0,4.29-3.47,7.76-7.76,7.76s-7.76-3.47-7.76-7.76,3.47-7.76,7.76-7.76,7.76,3.47,7.76,7.76"/>
      <path class="cls-56" d="M82.56,94.34c0,4.29-3.47,7.76-7.76,7.76s-7.76-3.47-7.76-7.76,3.47-7.76,7.76-7.76,7.76,3.47,7.76,7.76"/>
      <path class="cls-105" d="M19.11,55.97c-2.09.36-3.1.95-3.45,1.29v36.64c0,4.52,3.67,8.19,8.18,8.19s8.18-3.66,8.18-8.19v-34.33c-6.09-3.74-10.57-4.01-12.91-3.6"/>
      <path class="cls-105" d="M412.22,50.34c1.45,1.22,3.24,1.88,5.12,1.88.22,0,.44-.01.65-.03,2.11-.17,4.03-1.15,5.4-2.75l13.74-16.07c1.37-1.6,2.03-3.64,1.86-5.74-.17-2.1-1.16-4-2.77-5.37-1.61-1.36-3.66-2.02-5.78-1.85-2.11.17-4.03,1.15-5.4,2.75l-13.74,16.07c-1.37,1.6-2.03,3.64-1.86,5.74.17,2.1,1.15,4,2.77,5.37"/>
      <path class="cls-105" d="M381.25,23.17c-1.52-1.78-3.72-2.79-6.04-2.79-1.85,0-3.67.67-5.13,1.88-3.33,2.82-3.74,7.8-.92,11.12l23.57,27.57-23.57,27.55c-2.82,3.32-2.41,8.31.92,11.12,1.45,1.22,3.24,1.88,5.12,1.88.22,0,.44-.01.66-.03,2.11-.17,4.02-1.15,5.39-2.76l21.89-25.61,21.89,25.61c1.37,1.61,3.29,2.59,5.4,2.76,2.12.17,4.17-.49,5.79-1.85,3.32-2.81,3.73-7.8.9-11.12l-55.88-65.33Z"/>
    </g>
  </g>
</svg>