<svg width="272" height="244" viewBox="0 0 272 244" fill="none" xmlns="http://www.w3.org/2000/svg">
<g clip-path="url(#clip0_502_781)">
<path d="M0 243.322C0 243.637 0.244837 243.89 0.549729 243.89H337.45C337.755 243.89 338 243.637 338 243.322C338 243.007 337.755 242.754 337.45 242.754H0.549729C0.244837 242.754 0 243.007 0 243.322Z" fill="#3F3D58"/>
<path d="M203.543 37.7705L215.374 41.7901V24.189H204.638L203.543 37.7705Z" fill="#F8A8AB"/>
<path d="M213.909 29.0583C220.42 29.0583 225.698 23.6038 225.698 16.8754C225.698 10.1471 220.42 4.69263 213.909 4.69263C207.398 4.69263 202.12 10.1471 202.12 16.8754C202.12 23.6038 207.398 29.0583 213.909 29.0583Z" fill="#F8A8AB"/>
<path d="M210.906 17.8303L212.532 19.8687L215.47 14.5507C215.47 14.5507 219.222 14.7512 219.222 11.8726C219.222 8.99396 222.663 8.9128 222.663 8.9128C222.663 8.9128 227.537 0.119406 217.443 2.43471C217.443 2.43471 210.44 -2.52052 206.961 1.71386C206.961 1.71386 196.285 7.2706 199.339 16.9424L204.416 26.9149L205.566 24.6569C205.566 24.6569 204.869 15.1808 210.906 17.8208V17.8303Z" fill="#2F2E43"/>
<path d="M209.668 220.446H199.995V234.629H209.668V220.446Z" fill="#F8A8AB"/>
<path d="M208.597 242.754C206.943 242.907 198.665 243.585 198.249 241.623C197.87 239.823 198.429 237.942 198.508 237.684C199.302 229.502 199.598 229.411 199.778 229.359C200.06 229.273 200.882 229.678 202.217 230.566L202.3 230.624L202.319 230.724C202.342 230.853 202.933 233.856 205.737 233.392C207.659 233.077 208.283 232.638 208.481 232.423C208.319 232.347 208.116 232.213 207.973 231.984C207.765 231.65 207.728 231.22 207.867 230.705C208.227 229.344 209.308 227.334 209.354 227.253L209.479 227.024L220.474 234.691L227.264 236.696C227.777 236.849 228.188 237.226 228.396 237.732C228.683 238.438 228.507 239.259 227.953 239.775C226.719 240.921 224.271 242.883 221.698 243.126C221.014 243.193 220.109 243.217 219.092 243.217C214.847 243.217 208.647 242.763 208.601 242.754H208.597Z" fill="#2F2E43"/>
<path d="M222.021 98.1691L196.646 96.8276C196.646 96.8276 192.756 112.066 197.671 127.943L198.263 223.558H212.602L226.119 124.926L222.021 98.1691Z" fill="#2F2E43"/>
<path d="M217.743 34.3859L203.815 26.7478C203.815 26.7478 188.806 49.4139 190.881 61.6922C192.959 73.9705 196.646 96.8276 196.646 96.8276L227.371 98.1691L222.007 53.1566L217.743 34.3859Z" fill="#E2E3E4"/>
<path d="M216.552 220.446H206.878V234.629H216.552V220.446Z" fill="#F8A8AB"/>
<path d="M215.48 242.754C213.826 242.907 205.548 243.585 205.132 241.623C204.753 239.823 205.312 237.942 205.391 237.684C206.185 229.502 206.481 229.411 206.661 229.359C206.943 229.273 207.765 229.678 209.1 230.566L209.183 230.624L209.202 230.724C209.225 230.853 209.816 233.856 212.62 233.392C214.542 233.077 215.166 232.638 215.364 232.423C215.203 232.347 214.999 232.213 214.856 231.984C214.648 231.65 214.611 231.22 214.75 230.705C215.11 229.344 216.191 227.334 216.237 227.253L216.362 227.024L227.357 234.691L234.147 236.696C234.66 236.849 235.071 237.226 235.279 237.732C235.566 238.438 235.39 239.259 234.836 239.775C233.602 240.921 231.154 242.883 228.581 243.126C227.897 243.193 226.992 243.217 225.975 243.217C221.73 243.217 215.531 242.763 215.484 242.754H215.48Z" fill="#2F2E43"/>
<path d="M227.371 98.1691L196.646 96.8276C196.646 96.8276 192.756 112.066 197.671 127.943L203.612 223.558H217.951L231.468 124.926L227.371 98.1691Z" fill="#2F2E43"/>
<path d="M224.165 160.62C222.017 160.62 219.674 160.076 217.36 159.541C215.646 159.145 214.136 159.045 212.925 158.968C211.087 158.849 209.631 158.754 208.823 157.641C208.024 156.543 208.024 154.677 208.823 150.996C209.886 146.108 212.251 138.298 215.143 131.872C218.88 123.585 222.469 119.771 225.818 120.549C230.304 121.589 232.092 129.328 232.762 133.844C233.695 140.15 233.612 147.645 232.558 152.495C231.163 158.916 227.962 160.615 224.16 160.615H224.165V160.62ZM224.982 121.89C222.52 121.89 219.499 125.604 216.404 132.478C213.553 138.804 211.225 146.494 210.177 151.311C209.507 154.405 209.433 156.09 209.932 156.782C210.357 157.364 211.47 157.441 213.008 157.536C214.269 157.617 215.84 157.718 217.66 158.143C224.895 159.818 229.417 160.429 231.205 152.185C233.122 143.353 231.662 123.375 225.514 121.947C225.338 121.904 225.158 121.885 224.978 121.885H224.982V121.89Z" fill="#DFDFE0"/>
<path d="M253.42 219.983L184.519 220.451L173.816 215.362L180.052 149.621L186.326 149.951L250.875 153.345L253.42 219.983Z" fill="#131742"/>
<path opacity="0.2" d="M184.519 220.451L173.816 215.362L180.052 149.621L186.326 149.951L184.519 220.451Z" fill="#272223"/>
<path d="M225.204 148.495C223.924 148.495 222.525 148.17 221.148 147.85C220.127 147.612 219.226 147.554 218.501 147.507C217.406 147.435 216.538 147.378 216.057 146.714C215.581 146.06 215.581 144.948 216.057 142.752C216.69 139.835 218.099 135.181 219.827 131.352C222.053 126.411 224.197 124.139 226.193 124.602C228.867 125.222 229.934 129.834 230.332 132.531C230.886 136.293 230.84 140.761 230.212 143.649C229.38 147.478 227.472 148.49 225.204 148.49V148.495ZM225.694 125.404C224.225 125.404 222.423 127.619 220.58 131.72C218.88 135.491 217.489 140.074 216.87 142.948C216.468 144.79 216.427 145.798 216.727 146.208C216.981 146.557 217.642 146.6 218.561 146.657C219.314 146.705 220.247 146.767 221.333 147.02C225.643 148.017 228.341 148.38 229.408 143.468C230.549 138.202 229.68 126.292 226.017 125.442C225.911 125.418 225.805 125.404 225.698 125.404H225.694Z" fill="#DFDFE0"/>
<path d="M242.643 183.893L201.566 184.169L195.181 181.138L198.9 141.94L202.642 142.136L241.128 144.16L242.643 183.893Z" fill="#E2E3E4"/>
<path opacity="0.2" d="M201.566 184.169L195.181 181.138L198.9 141.94L202.642 142.136L201.566 184.169Z" fill="#272223"/>
<path d="M227.606 122.038C228.295 125.533 227.033 128.726 224.798 129.17C222.562 129.614 220.192 127.137 219.508 123.642C219.217 122.248 219.263 120.806 219.642 119.432L216.921 104.58L223.952 103.43L225.888 118.19C226.761 119.317 227.348 120.635 227.606 122.038Z" fill="#F8A8AB"/>
<path d="M200.027 34.109C200.027 34.109 210.311 32.7627 211.539 35.9373C212.768 39.1119 227.209 114.677 227.209 114.677H217.683L200.027 34.109Z" fill="#E2E3E4"/>
<path d="M128.581 50.2829L118.252 53.7916V38.4294H127.625L128.581 50.2829Z" fill="#F8A8AB"/>
<path d="M119.531 42.6828C125.216 42.6828 129.824 37.9209 129.824 32.0467C129.824 26.1726 125.216 21.4106 119.531 21.4106C113.847 21.4106 109.239 26.1726 109.239 32.0467C109.239 37.9209 113.847 42.6828 119.531 42.6828Z" fill="#F8A8AB"/>
<path d="M122.359 30.9918C120.635 30.9392 119.504 29.1395 118.834 27.4973C118.164 25.8551 117.476 23.9695 115.877 23.2916C114.57 22.7378 112.265 26.4853 111.235 25.4875C110.158 24.4468 111.207 19.1049 112.348 18.1454C113.489 17.1858 115.05 16.9997 116.519 16.9281C120.104 16.7562 123.712 17.057 127.228 17.816C129.403 18.2838 131.639 18.9904 133.21 20.6135C135.196 22.6758 135.705 25.7835 135.848 28.6908C135.996 31.6649 135.829 34.7774 134.43 37.3791C133.03 39.9809 130.101 41.9 127.292 41.2364C127.01 39.661 127.297 38.0427 127.408 36.4387C127.514 34.8395 127.403 33.1113 126.456 31.8367C125.509 30.5621 123.49 30.0561 122.391 31.1875" fill="#2F2E43"/>
<path d="M135.021 34.6771C136.051 33.899 137.284 33.2449 138.55 33.4073C139.918 33.5791 141.077 34.7439 141.428 36.1236C141.779 37.5032 141.387 39.0213 140.537 40.1479C139.691 41.2745 138.43 42.0192 137.1 42.3916C136.328 42.6064 135.483 42.6971 134.748 42.3725C133.667 41.8904 133.081 40.463 133.506 39.3268" fill="#2F2E43"/>
<path d="M125.172 221.234H115.499V235.417H125.172V221.234Z" fill="#F8A8AB"/>
<path d="M106.075 244C105.058 244 104.153 243.976 103.469 243.909C100.901 243.666 98.4477 241.704 97.2143 240.558C96.6599 240.042 96.4844 239.221 96.7708 238.515C96.9787 238.009 97.3898 237.627 97.9026 237.479L104.693 235.474L115.688 227.807L115.813 228.036C115.859 228.122 116.94 230.132 117.3 231.488C117.439 232.003 117.402 232.433 117.194 232.767C117.051 232.996 116.847 233.13 116.686 233.206C116.884 233.421 117.508 233.86 119.43 234.175C122.234 234.634 122.825 231.631 122.848 231.507L122.867 231.407L122.95 231.349C124.285 230.461 125.107 230.056 125.389 230.142C125.565 230.194 125.86 230.29 126.659 238.467C126.738 238.725 127.297 240.606 126.918 242.405C126.507 244.363 118.229 243.69 116.57 243.537C116.524 243.542 110.325 244 106.079 244H106.075Z" fill="#2F2E43"/>
<path d="M152.716 210.081L144.508 215.371L151.771 227.406L159.979 222.116L152.716 210.081Z" fill="#F8A8AB"/>
<path d="M141.812 242.057C140.675 242.057 139.631 241.914 138.887 241.78C138.157 241.647 137.585 241.045 137.465 240.291C137.381 239.747 137.534 239.198 137.894 238.792L142.629 233.378L148.034 220.861L148.256 220.985C148.339 221.033 150.284 222.145 151.286 223.1C151.67 223.463 151.859 223.85 151.85 224.246C151.845 224.523 151.744 224.742 151.642 224.9C151.919 224.976 152.672 225.005 154.465 224.222C157.079 223.081 156.044 220.207 155.998 220.088L155.961 219.992L156.003 219.902C156.682 218.417 157.167 217.625 157.453 217.544C157.634 217.491 157.929 217.41 162.794 223.917C162.992 224.088 164.429 225.382 165.03 227.115C165.681 229.001 158.313 232.958 156.83 233.732C156.784 233.77 149.074 239.56 145.904 241.207C144.648 241.861 143.16 242.062 141.807 242.062L141.812 242.057Z" fill="#2F2E43"/>
<path d="M132.295 102.628H105.211L102.753 128.664L113.507 224.866H127.334L121.804 169.304L144.232 219.467L156.52 210.578L139.007 163.747C139.007 163.747 145.262 122.95 140.347 112.786C135.432 102.623 132.295 102.628 132.295 102.628Z" fill="#2F2E43"/>
<path d="M145.766 104.213H102.753L115.656 46.7454H134.397L145.766 104.213Z" fill="#131742"/>
<path d="M92.068 45.614C91.3797 42.1195 92.6409 38.9259 94.8767 38.4819C97.1126 38.0379 99.4824 40.5155 100.166 44.01C100.457 45.4039 100.411 46.8456 100.032 48.2205L102.753 63.0719L95.7221 64.2224L93.7865 49.4617C92.9134 48.3351 92.3267 47.0175 92.068 45.614Z" fill="#F8A8AB"/>
<path d="M133.94 46.7452H117.411L106.269 69.7742L102.065 52.5168L92.8302 53.5289C92.8302 53.5289 95.0153 87.2464 104.564 86.1055C114.113 84.9645 136.383 54.5887 133.935 46.7405H133.94V46.7452Z" fill="#131742"/>
<path d="M149.549 155.975C148.27 155.975 146.87 155.651 145.493 155.331C144.472 155.092 143.572 155.035 142.846 154.987C141.751 154.916 140.883 154.858 140.403 154.195C139.927 153.541 139.927 152.428 140.403 150.232C141.035 147.316 142.444 142.661 144.172 138.832C146.399 133.892 148.542 131.619 150.538 132.082C153.213 132.703 154.28 137.314 154.677 140.012C155.231 143.773 155.185 148.242 154.557 151.13C153.725 154.958 151.817 155.971 149.549 155.971V155.975ZM150.039 132.884C148.57 132.884 146.768 135.099 144.925 139.2C143.225 142.971 141.835 147.554 141.216 150.428C140.814 152.271 140.772 153.278 141.072 153.689C141.326 154.037 141.987 154.08 142.906 154.137C143.659 154.185 144.592 154.247 145.678 154.5C149.988 155.498 152.686 155.861 153.753 150.948C154.894 145.683 154.026 133.772 150.362 132.922C150.256 132.899 150.15 132.884 150.044 132.884H150.039Z" fill="#DFDFE0"/>
<path d="M166.993 191.368L125.916 191.645L119.531 188.614L123.25 149.416L126.992 149.612L165.478 151.636L166.993 191.368Z" fill="#E2E3E4"/>
<path opacity="0.2" d="M125.916 191.645L119.531 188.614L123.25 149.416L126.992 149.612L125.916 191.645Z" fill="#272223"/>
<path d="M152.395 134.321C153.083 137.816 151.822 141.009 149.586 141.453C147.35 141.897 144.981 139.42 144.297 135.925C144.006 134.531 144.052 133.09 144.431 131.715L141.71 116.863L148.741 115.713L150.677 130.474C151.55 131.6 152.136 132.918 152.395 134.321Z" fill="#F8A8AB"/>
<path d="M124.516 46.7455C124.516 46.7455 133.907 46.3349 134.397 46.7455C136.961 48.908 151.998 126.965 151.998 126.965H142.472L124.516 46.7455Z" fill="#131742"/>
</g>
<defs>
<clipPath id="clip0_502_781">
<rect width="338" height="244" fill="white"/>
</clipPath>
</defs>
</svg>
